<svg width="38" height="152" viewBox="0 0 38 152" fill="none" xmlns="http://www.w3.org/2000/svg">
<path d="M29.6042 7.12994C30.0077 6.7528 30.029 6.11999 29.6519 5.71653C29.2748 5.31306 28.642 5.29172 28.2385 5.66886L29.6042 7.12994ZM36.9892 150.257C37.5326 150.159 37.8932 149.638 37.7946 149.095L36.1881 140.24C36.0895 139.696 35.5691 139.335 35.0257 139.434C34.4823 139.533 34.1217 140.053 34.2202 140.597L35.6482 148.468L27.7767 149.896C27.2333 149.995 26.8727 150.515 26.9713 151.058C27.0699 151.602 27.5903 151.962 28.1337 151.864L36.9892 150.257ZM28.2385 5.66886C-0.975659 32.9767 -3.37765 66.0865 3.6969 93.7953C7.23137 107.639 13.1321 120.153 19.2473 129.97C25.3454 139.759 31.7153 146.96 36.2411 150.095L37.3802 148.451C33.1829 145.543 26.9858 138.61 20.9449 128.913C14.9212 119.243 9.1111 106.916 5.63474 93.3005C-1.31238 66.0908 1.0641 33.8077 29.6042 7.12994L28.2385 5.66886Z" fill="black"/>
</svg>
