<svg xmlns="http://www.w3.org/2000/svg" viewBox="0 0 500 500"><g id="freepik--background-simple--inject-202"><path d="M322.76,169.08c-31.66-16.42-54.92-79.39-93.17-58.29-23.24,12.82-16,22.74-45.36,15.81C164.64,122,151,110.26,124,120.3c-103.68,38.6-36.39,184,58.18,190.57,27.64,1.92,32.17-24.57,52.71-31.23,20.89-6.76,43.28,10.94,60.95,19.31,43.93,20.81,86.87,19.55,125.53-12.32,29.44-24.26,39.89-78.56,7.42-106.94C400.14,154.61,357.69,187.19,322.76,169.08Z" style="fill:#8CC0DE"></path><path d="M322.76,169.08c-31.66-16.42-54.92-79.39-93.17-58.29-23.24,12.82-16,22.74-45.36,15.81C164.64,122,151,110.26,124,120.3c-103.68,38.6-36.39,184,58.18,190.57,27.64,1.92,32.17-24.57,52.71-31.23,20.89-6.76,43.28,10.94,60.95,19.31,43.93,20.81,86.87,19.55,125.53-12.32,29.44-24.26,39.89-78.56,7.42-106.94C400.14,154.61,357.69,187.19,322.76,169.08Z" style="fill:#fff;opacity:0.9"></path></g><g id="freepik--Shadow--inject-202"><ellipse id="freepik--path--inject-202" cx="250" cy="416.24" rx="193.89" ry="11.32" style="fill:#f5f5f5"></ellipse></g><g id="freepik--Carpet--inject-202"><polygon points="355.02 419.95 144.98 419.95 152.07 411.33 347.93 411.33 355.02 419.95" style="fill:#8CC0DE"></polygon><polygon points="355.02 419.95 144.98 419.95 152.07 411.33 347.93 411.33 355.02 419.95" style="fill:#fff;opacity:0.6000000000000001"></polygon></g><g id="freepik--Character--inject-202"><path d="M189.42,336.84c26.11-.66,43.05,19.23,43.05,19.23-2.56,8.15-4.2,14.25-4.2,14.25-14.28-2.7-30.52-3.79-43.89-7.27-12.07-3.14-13.33-19.45-12-26.3s8.18-8.45,14.92-10.68c7.69-2.55,22.35-2.75,32.86-2.79,11.08,0,25.64,1,33.18,2.7,0,0,16-.71,27.89-.51,6.94-1.17,2.76,10.14-8.26,19.78A49.19,49.19,0,0,1,232.6,357h-.09" style="fill:#263238"></path><path d="M315,336.84c-26.11-.66-49.28,19.23-49.28,19.23,2.56,8.15,4.2,14.25,4.2,14.25,14.28-2.7,36.75-3.79,50.12-7.27,12.08-3.14,13.33-19.45,12-26.3s-8.18-8.45-14.92-10.68c-7.69-2.55-22.35-2.75-32.86-2.79-11.08,0-25.64,1-33.18,2.7,0,0-16-.71-27.88-.51-6.95-1.17-2.77,10.14,8.25,19.78A49.19,49.19,0,0,0,271.77,357h.09" style="fill:#263238"></path><path d="M232.59,266q-3.39,11.56-7.15,23c-1.25,3.82-2.52,7.63-3.84,11.43S219,308,217.54,311.84l-.18.48-.24.58c-.16.38-.34.74-.52,1.1a20,20,0,0,1-1.2,1.94,20.73,20.73,0,0,1-2.71,3.09,34.48,34.48,0,0,1-5.75,4.31,68.15,68.15,0,0,1-11.76,5.51,126.77,126.77,0,0,1-24.05,6.09l-1.53-6.48c3.64-1.3,7.39-2.68,11-4.18s7.19-3,10.6-4.74a66,66,0,0,0,9.53-5.61c2.82-2,5.07-4.51,5.3-6L212.71,285c2.26-7.67,4.58-15.34,7-23Z" style="fill:#ce7a63"></path><path d="M172.21,328.78,160,325.68l5.82,11.74s8.28.36,11-4.25Z" style="fill:#ce7a63"></path><path d="M258.65,182.63c-4.38-3.17-11.58-5.83-14.48-1s-5.4,15-10.23,17.46-10.58,12.33-7.42,21-9.33,6.33-10,19.5,18.08,19.83,29.92,13.33,20.17-40.42,19.42-53.83S258.65,182.63,258.65,182.63Z" style="fill:#263238"></path><path d="M253.15,182.05s6.42-9.75,18.24-4.72c13.8,5.87,9.47,12.2,12,25.58s17.95,15.77,17.25,34.39c-1.19,31.71-29.25,25.83-37,17.41s.83-39.33.83-39.33Z" style="fill:#263238"></path><polygon points="150.1 330.29 155.51 339.86 165.81 337.57 159.98 325.83 150.1 330.29" style="fill:#ce7a63"></polygon><path d="M224.1,247.86c-5.31,1.36-9,23.22-9,23.22l14.64,10s14-22.06,10-27.9C235.41,247.05,231.86,245.89,224.1,247.86Z" style="fill:#8CC0DE"></path><path d="M223.62,255.81,235,258.45l1.09,11.12A129.88,129.88,0,0,1,229.71,281l-8.88-6C221.21,269.89,222.18,259.27,223.62,255.81Z" style="opacity:0.2"></path><path d="M224.1,247.86S218,250,230.26,325.68h52.37c-.88-21.31-.91-34.45,9.28-78.19a154,154,0,0,0-22.24-2.93c-8.81-.43-16-.71-23.77,0C235.68,245.49,224.1,247.86,224.1,247.86Z" style="fill:#8CC0DE"></path><path d="M279.59,267.8l6.76,5.75c-1.45,7.65-2.41,14-3,19.69C282.05,287.56,278.84,272.14,279.59,267.8Z" style="opacity:0.2"></path><path d="M267.32,217.79c-1.5,7.65-3,21.66,2.35,26.77,0,0-5,11.46-18.25,11.46s-5.52-11.46-5.52-11.46c8.53-2,8.31-8.37,6.82-14.31Z" style="fill:#ce7a63"></path><path d="M269.67,244.56c-8.81-.43-16-.71-23.78,0-3.68.33-7.53.85-10.95,1.38-2.26,4.09-11.23,22.48,10.78,22.48,23.08,0,32.7-20.22,33.9-23C276.53,245.06,273.11,244.73,269.67,244.56Z" style="fill:#ce7a63"></path><path d="M261.37,222.87l-8.64,7.37a25.39,25.39,0,0,1,.73,4.22c3.26-.47,7.74-4.05,8.08-7.46A11.48,11.48,0,0,0,261.37,222.87Z" style="opacity:0.2"></path><path d="M277.4,203.33C275,215.9,274.23,221.27,267,226.94c-10.88,8.54-25.79,2.83-27.18-10.21-1.25-11.73,2.91-30.31,16-33.75A17.45,17.45,0,0,1,277.4,203.33Z" style="fill:#ce7a63"></path><path d="M255,181.63c-4.51,2.53-1.52,7,6.62,10.17s8.63,3.75,7.3,10.33,10.53,12.67,10.68,5.87,2.57-19.7-3.76-23.29S259.77,179,255,181.63Z" style="fill:#263238"></path><path d="M254.32,184.8c-4,1.29-13.09,11.16-12.42,7.91s2.37-7.75,7.17-9.41a26,26,0,0,1,7.08-1.71Z" style="fill:#263238"></path><path d="M279.78,213.89a9.7,9.7,0,0,1-5.48,4.58c-3.11,1-4.68-1.69-3.83-4.63.77-2.65,3.3-6.36,6.43-6.08S281.19,211.23,279.78,213.89Z" style="fill:#ce7a63"></path><path d="M229.69,368.83l4.79-13.67c.18-.5,2.25.81,2.76.91,0,0,7.51-1,10.5-.16s2.86,2.76,2.31,4.8c-1.27,4.74-3.32,5.64-4.64,11.92-.81,3.83-1.47,7.36-5.66,11-4,3.47-7.84,3.26-6.26-1,3.8-10.16,2-8.65-.4-12.43C232.65,369.56,229.43,369.55,229.69,368.83Z" style="fill:#ce7a63"></path><path d="M267.33,368.83l-4.8-13.67c-.18-.5-2.25.81-2.76.91,0,0-7.51-1-10.5-.16s-2.86,2.76-2.31,4.8c1.27,4.74,3.32,5.64,4.64,11.92.81,3.83,1.47,7.36,5.66,11,4,3.47,7.84,3.26,6.26-1-3.8-10.16-2-8.65.4-12.43C264.36,369.56,267.58,369.55,267.33,368.83Z" style="fill:#ce7a63"></path><polygon points="231.33 372.09 236.16 353.96 229.8 351.33 220.83 370.8 231.33 372.09" style="fill:#8CC0DE"></polygon><polygon points="266.05 372.47 258.46 354.14 264.33 351.73 276.22 369.56 266.05 372.47" style="fill:#8CC0DE"></polygon><path d="M248.7,204.36s-2.32,4.21-4.53,6.1c1.2,1.45,3.59,1.17,3.59,1.17Z" style="fill:#ba4d3c"></path><path d="M250.91,217l.08,0a8.9,8.9,0,0,0,6.3-1.92.2.2,0,0,0,0-.28.2.2,0,0,0-.28,0,8.67,8.67,0,0,1-6,1.83.2.2,0,0,0-.13.36Z" style="fill:#263238"></path><path d="M262.34,199.41a.38.38,0,0,0,.37,0,.39.39,0,0,0,.12-.54,5.78,5.78,0,0,0-4.55-2.83.39.39,0,1,0,0,.77,5.08,5.08,0,0,1,3.9,2.48A.44.44,0,0,0,262.34,199.41Z" style="fill:#263238"></path><path d="M253.61,202.92a.39.39,0,0,0-.35.66,5.86,5.86,0,0,0,5.08,1.73.4.4,0,0,0,.3-.47.39.39,0,0,0-.46-.3,5.05,5.05,0,0,1-4.37-1.51A.4.4,0,0,0,253.61,202.92Z" style="fill:#263238"></path><path d="M239.86,201.5a.37.37,0,0,0-.35.1.4.4,0,0,0,0,.56,5.84,5.84,0,0,0,5.08,1.72.39.39,0,0,0,.3-.46.4.4,0,0,0-.47-.3,5,5,0,0,1-4.36-1.52A.42.42,0,0,0,239.86,201.5Z" style="fill:#263238"></path><path d="M241,195.58a.39.39,0,0,0,.4,0,5,5,0,0,1,4.52-1,.4.4,0,0,0,.5-.24.39.39,0,0,0-.24-.5,5.85,5.85,0,0,0-5.26,1.08.39.39,0,0,0-.07.55A.33.33,0,0,0,241,195.58Z" style="fill:#263238"></path><path d="M283.41,322.61l.42,4.68c.18.37-.25.74-.85.74H230c-.47,0-.86-.23-.89-.53l-.47-4.69c0-.32.38-.6.89-.6h53A.94.94,0,0,1,283.41,322.61Z" style="fill:#8CC0DE"></path><path d="M283.41,322.61l.42,4.68c.18.37-.25.74-.85.74H230c-.47,0-.86-.23-.89-.53l-.47-4.69c0-.32.38-.6.89-.6h53A.94.94,0,0,1,283.41,322.61Z" style="opacity:0.30000000000000004"></path><path d="M276.29,328.54h1.42c.28,0,.5-.15.48-.33l-.67-6.09c0-.18-.26-.32-.55-.32h-1.42c-.28,0-.5.14-.48.32l.67,6.09C275.76,328.39,276,328.54,276.29,328.54Z" style="fill:#263238"></path><path d="M234,328.54h1.42c.28,0,.49-.15.47-.33l-.66-6.09c0-.18-.27-.32-.55-.32h-1.42c-.28,0-.5.14-.48.32l.67,6.09C233.47,328.39,233.71,328.54,234,328.54Z" style="fill:#263238"></path><path d="M255.14,328.54h1.42c.29,0,.5-.15.48-.33l-.66-6.09c0-.18-.27-.32-.55-.32h-1.42c-.29,0-.5.14-.48.32l.66,6.09C254.61,328.39,254.86,328.54,255.14,328.54Z" style="fill:#263238"></path><path d="M296.56,263l4.29,23.12c.73,3.84,1.47,7.67,2.25,11.46.38,1.89.82,3.76,1.23,5.61l.66,2.73.64,2.34a7.69,7.69,0,0,0,1.85,2.77,26.3,26.3,0,0,0,3.69,3.13,69.58,69.58,0,0,0,9.46,5.49c3.38,1.68,6.91,3.21,10.48,4.67s7.26,2.83,10.84,4.12l-1.53,6.48a126.65,126.65,0,0,1-23.74-6,70.37,70.37,0,0,1-11.61-5.34,36.42,36.42,0,0,1-5.68-4.11,18.9,18.9,0,0,1-5-6.79l-.23-.57-.15-.43-.27-.76-.53-1.54-.93-3q-.88-3-1.63-5.9-1.55-5.86-2.81-11.72c-1.74-7.82-3.23-15.61-4.51-23.52Z" style="fill:#ce7a63"></path><path d="M291.91,247.49c5.25,1.59,11.75,18.47,11.75,18.47L283.3,280.52s-7.62-13.9-5.41-20.68C280.18,252.78,285.92,245.67,291.91,247.49Z" style="fill:#8CC0DE"></path><path d="M339.35,328.78l12.23-3.1-5.83,11.74s-8.27.36-11-4.25Z" style="fill:#ce7a63"></path><polygon points="361.46 330.29 356.05 339.86 345.75 337.57 351.58 325.83 361.46 330.29" style="fill:#ce7a63"></polygon></g></svg>