<svg width="56" height="62" viewBox="0 0 56 62" fill="none" xmlns="http://www.w3.org/2000/svg">
<g clip-path="url(#clip0_129_45)">
<path d="M50.8546 25.9729C50.8546 23.5989 50.6014 21.2919 50.1287 19.0816C48.778 15.9079 46.9048 13.0684 44.6364 10.704C40.4759 7.90221 35.575 6.37523 30.3713 6.58909C16.0139 7.17893 4.79952 20.7779 5.32277 36.9624C5.39932 39.3301 5.72598 41.6206 6.268 43.8061C7.43918 46.3218 8.94315 48.6108 10.7153 50.5969C14.7831 53.569 19.6324 55.2972 24.8412 55.2972C39.2079 55.2972 50.8546 42.1681 50.8546 25.9729ZM37.1976 20.9458C38.8394 20.9458 40.1706 22.4464 40.1706 24.2972C40.1706 26.148 38.8394 27.6486 37.1976 27.6486C35.5557 27.6486 34.2245 26.148 34.2245 24.2972C34.2245 22.4464 35.5557 20.9458 37.1976 20.9458ZM18.802 20.9458C20.4439 20.9458 21.7751 22.4464 21.7751 24.2972C21.7751 26.148 20.4439 27.6486 18.802 27.6486C17.1602 27.6486 15.829 26.148 15.829 24.2972C15.829 22.4464 17.1602 20.9458 18.802 20.9458ZM10.0998 40.9696V37.6182C11.7722 37.6182 12.9982 36.1526 12.9982 34.351C12.9982 32.5496 11.7722 31.0842 10.0998 31.0842V27.7328C13.0729 27.7328 15.7114 30.3955 15.9779 33.7767C19.2071 37.3143 23.4528 39.2537 27.9842 39.2537C32.4708 39.2537 36.7494 37.2726 39.9519 33.7758C40.2191 30.3951 42.8028 27.7328 45.7758 27.7328V31.0842C44.2893 31.0842 42.8775 32.5496 42.8775 34.351C42.8775 36.1526 44.2893 37.6182 45.7758 37.6182V40.9696C43.7319 40.9696 41.6937 39.5792 40.6762 37.5325C37.1045 40.7884 32.637 42.6053 27.9842 42.6053C23.2809 42.6053 18.831 40.8242 15.2504 37.5386C14.232 39.5821 12.3296 40.9696 10.0998 40.9696Z" fill="#FFD9C0"/>
<path d="M50.1287 19.0816C50.6015 21.2921 50.8547 23.5989 50.8547 25.9729C50.8547 42.1681 39.2079 55.2972 24.8412 55.2972C19.6325 55.2972 14.783 53.5689 10.7153 50.5969C15.1526 55.5704 21.2634 58.6486 28.0001 58.6486C41.5243 58.6486 52.527 46.2455 52.527 31C52.527 26.7349 51.6652 22.6925 50.1287 19.0816Z" fill="#FFD9C0"/>
<path d="M30.3712 6.58904C35.5751 6.37518 40.476 7.90216 44.6363 10.7039C40.2612 6.14309 34.4147 3.35138 27.9999 3.35138C14.4757 3.35138 3.4729 15.7545 3.4729 31C3.4729 35.6184 4.4841 39.9752 6.2679 43.8061C5.72589 41.6206 5.39923 39.3301 5.32267 36.9623C4.79942 20.7778 16.0138 7.17888 30.3712 6.58904Z" fill="#FFD9C0"/>
<path d="M28 0C12.8365 0 0.5 13.9066 0.5 31C0.5 48.0934 12.8365 62 28 62C43.1635 62 55.5 48.0934 55.5 31C55.5 13.9066 43.1637 0 28 0ZM28 58.6486C21.2632 58.6486 15.1523 55.5703 10.7153 50.5969C8.94336 48.6108 7.4392 46.3217 6.26802 43.8061C4.48421 39.9753 3.47301 35.6184 3.47301 31C3.47301 15.7545 14.4758 3.3514 28 3.3514C34.4148 3.3514 40.2613 6.14311 44.6364 10.7039C46.9048 13.0684 48.778 15.9078 50.1287 19.0816C51.6654 22.6925 52.527 26.7349 52.527 31C52.527 46.2455 41.5242 58.6486 28 58.6486ZM48.196 12.5204C48.2148 12.5462 48.2338 12.5715 48.2523 12.5975C48.2338 12.5717 48.2146 12.5462 48.196 12.5204Z" fill="black"/>
<path d="M18.8021 27.6486C20.4441 27.6486 21.7751 26.1481 21.7751 24.2972C21.7751 22.4463 20.4441 20.9458 18.8021 20.9458C17.1602 20.9458 15.8291 22.4463 15.8291 24.2972C15.8291 26.1481 17.1602 27.6486 18.8021 27.6486Z" fill="black"/>
<path d="M37.1976 27.6486C38.8396 27.6486 40.1706 26.1481 40.1706 24.2972C40.1706 22.4463 38.8396 20.9458 37.1976 20.9458C35.5557 20.9458 34.2246 22.4463 34.2246 24.2972C34.2246 26.1481 35.5557 27.6486 37.1976 27.6486Z" fill="black"/>
<path d="M27.9998 42.6051C32.6526 42.6051 37.1048 40.7882 40.6764 37.5323C41.6939 39.579 43.7321 40.9694 45.776 40.9694V37.618C44.2895 37.618 42.8777 36.1524 42.8777 34.3508C42.8777 32.5494 44.2895 31.084 45.776 31.084V27.7326C42.803 27.7326 40.2269 30.3949 39.9599 33.7756C36.7574 37.2724 32.4712 39.2534 27.9844 39.2534C23.4528 39.2534 19.1995 37.3138 15.9703 33.7764C15.7036 30.3955 13.0729 27.7328 10.0999 27.7328V31.0842C11.7722 31.0842 12.9982 32.5496 12.9982 34.351C12.9982 36.1526 11.7722 37.6182 10.0999 37.6182V40.9696C12.3296 40.9696 14.2398 39.5821 15.2582 37.5386C18.839 40.824 23.2967 42.6051 27.9998 42.6051Z" fill="black"/>
</g>
<defs>
<clipPath id="clip0_129_45">
<rect width="55" height="62" fill="white" transform="translate(0.5)"/>
</clipPath>
</defs>
</svg>
