<svg xmlns="http://www.w3.org/2000/svg" viewBox="0 0 500 500"><g id="freepik--background-simple--inject-62"><path d="M425.38,245.09C401.34,297,339,285.17,307,265.86s-57-9.6-64.88,15.43.36,90.6-65.6,92.32S85.18,248.84,153.68,168.13C192,123,269.25,81.5,350.84,124.84,399.46,150.67,444.62,203.54,425.38,245.09Z" style="fill:#8CC0DE"></path><path d="M425.38,245.09C401.34,297,339,285.17,307,265.86s-57-9.6-64.88,15.43.36,90.6-65.6,92.32S85.18,248.84,153.68,168.13C192,123,269.25,81.5,350.84,124.84,399.46,150.67,444.62,203.54,425.38,245.09Z" style="fill:#fff;opacity:0.9;isolation:isolate"></path></g><g id="freepik--Shadow--inject-62"><ellipse id="freepik--path--inject-62" cx="250" cy="416.24" rx="193.89" ry="11.32" style="fill:#f5f5f5"></ellipse></g><g id="freepik--Chat--inject-62"><path d="M132.72,247.68H256l7.7,8V207.17A10.7,10.7,0,0,0,253,196.47H132.72A10.7,10.7,0,0,0,122,207.17V237A10.7,10.7,0,0,0,132.72,247.68Z" style="fill:#8CC0DE"></path><path d="M132.72,247.68H256l7.7,8V207.17A10.7,10.7,0,0,0,253,196.47H132.72A10.7,10.7,0,0,0,122,207.17V237A10.7,10.7,0,0,0,132.72,247.68Z" style="fill:#fff;opacity:0.4;isolation:isolate"></path><line x1="249" y1="209" x2="138" y2="209" style="fill:none;stroke:#8CC0DE;stroke-linecap:round;stroke-linejoin:round;stroke-width:2px"></line><line x1="249" y1="221" x2="138" y2="221" style="fill:none;stroke:#8CC0DE;stroke-linecap:round;stroke-linejoin:round;stroke-width:2px"></line><line x1="227" y1="233" x2="138" y2="233" style="fill:none;stroke:#8CC0DE;stroke-linecap:round;stroke-linejoin:round;stroke-width:2px"></line><path d="M132.72,247.68H256l7.7,8V207.17A10.7,10.7,0,0,0,253,196.47H132.72A10.7,10.7,0,0,0,122,207.17V237A10.7,10.7,0,0,0,132.72,247.68Z" style="fill:#fff;opacity:0.30000000000000004;isolation:isolate"></path><path d="M221,180.68H97.73l-7.7,8V140.17a10.7,10.7,0,0,1,10.69-10.7H221a10.7,10.7,0,0,1,10.69,10.7V170A10.7,10.7,0,0,1,221,180.68Z" style="fill:#8CC0DE"></path><line x1="137" y1="142" x2="216" y2="142" style="fill:none;stroke:#fff;stroke-linecap:round;stroke-linejoin:round;stroke-width:2px"></line><line x1="137" y1="154" x2="216" y2="154" style="fill:none;stroke:#fff;stroke-linecap:round;stroke-linejoin:round;stroke-width:2px"></line><line x1="137" y1="166" x2="194" y2="166" style="fill:none;stroke:#fff;stroke-linecap:round;stroke-linejoin:round;stroke-width:2px"></line><path d="M176.72,113.68H256l7.7,8V83.17A10.7,10.7,0,0,0,253,72.48H176.72A10.7,10.7,0,0,0,166,83.17V103A10.7,10.7,0,0,0,176.72,113.68Z" style="fill:#8CC0DE"></path><path d="M176.72,113.68H256l7.7,8V83.17A10.7,10.7,0,0,0,253,72.48H176.72A10.7,10.7,0,0,0,166,83.17V103A10.7,10.7,0,0,0,176.72,113.68Z" style="fill:#fff;opacity:0.4;isolation:isolate"></path><line x1="249" y1="87" x2="182" y2="87" style="fill:none;stroke:#8CC0DE;stroke-linecap:round;stroke-linejoin:round;stroke-width:2px"></line><line x1="227" y1="99" x2="182" y2="99" style="fill:none;stroke:#8CC0DE;stroke-linecap:round;stroke-linejoin:round;stroke-width:2px"></line><path d="M176.72,113.68H256l7.7,8V83.17A10.7,10.7,0,0,0,253,72.48H176.72A10.7,10.7,0,0,0,166,83.17V103A10.7,10.7,0,0,0,176.72,113.68Z" style="fill:#fff;opacity:0.30000000000000004;isolation:isolate"></path></g><g id="freepik--character-1--inject-62"><path d="M127.41,146a25,25,0,1,1-25-25A24.84,24.84,0,0,1,127.41,146Z" style="fill:#8CC0DE"></path><path d="M127.41,146a25,25,0,1,1-25-25A24.84,24.84,0,0,1,127.41,146Z" style="fill:#fff;opacity:0.5;isolation:isolate"></path><path d="M120.6,163.12a24.95,24.95,0,0,1-36,.31c1.17-.22,2.44-.45,3.74-.65,1.1-.18,2.24-.35,3.36-.48a154.22,154.22,0,0,1,17.84-1.24c.73,0,1.45.08,2.17.08,1.86.11,3.63.3,5.16.49A7.88,7.88,0,0,1,120.6,163.12Z" style="fill:#2e353a"></path><path d="M115.05,127.42s1.33,8.91-4.42,13.08-5.75-16-5.75-16Z" style="fill:#2e353a"></path><path d="M91.67,162.25c3.83,3.48,13.21,2.19,13.21,2.19s5.86-1.6,4.63-3.43c-3.45-.57-5.12-2.18-5.81-4.24a10,10,0,0,1-.35-3.94,20.71,20.71,0,0,1,.29-2.2L92,142C93.56,147.71,95.42,158.14,91.67,162.25Z" style="fill:#e4897b"></path><path d="M94.72,147.5c.46,7,6.18,8.88,9,9.27a10,10,0,0,1-.35-3.94Z" style="opacity:0.2;isolation:isolate"></path><path d="M93.94,149.11a9.83,9.83,0,0,0,11.29,3.81,11,11,0,0,0,6.25-5.09,11.2,11.2,0,0,0,.52-1c2.83-6.62,3.73-18.2-3.27-22.54a10.66,10.66,0,0,0-16.28,8C91.59,140,90.72,144.53,93.94,149.11Z" style="fill:#e4897b"></path><path d="M103.73,136.42c-.15.61.14,1.18.55,1.25s.83-.38.94-1-.15-1.18-.55-1.25S103.85,135.78,103.73,136.42Z" style="fill:#2e353a"></path><path d="M110.8,137.62c-.15.61.14,1.19.55,1.26s.82-.39.93-1-.14-1.19-.55-1.26S110.9,137,110.8,137.62Z" style="fill:#2e353a"></path><path d="M108.5,137.55a22.9,22.9,0,0,0,2.07,5.85,3.65,3.65,0,0,1-3.1,0Z" style="fill:#de5753"></path><path d="M101.93,133.75a.38.38,0,0,0,.38-.08,3,3,0,0,1,2.56-.83.37.37,0,1,0,.18-.72h0a3.69,3.69,0,0,0-3.24,1,.37.37,0,0,0,0,.52h0A.44.44,0,0,0,101.93,133.75Z" style="fill:#2e353a"></path><path d="M105.91,146.51h0a5.67,5.67,0,0,1-4.63-2.52.19.19,0,0,1,.07-.27.19.19,0,0,1,.26.06h0a5.45,5.45,0,0,0,4.31,2.32.2.2,0,0,1,.19.19v0a.19.19,0,0,1-.19.19Z" style="fill:#2e353a"></path><path d="M114.25,135.7a.39.39,0,0,0,.21.06.37.37,0,0,0,.26-.46h0a3.69,3.69,0,0,0-2.29-2.51.36.36,0,0,0-.46.25h0a.37.37,0,0,0,.25.46h0a3,3,0,0,1,1.78,2A.35.35,0,0,0,114.25,135.7Z" style="fill:#2e353a"></path><path d="M93.38,157.83l11.09,5,.65-4,4.07,1.43a3.33,3.33,0,0,1,2.22,3.51l-.46,4.4-5.62-3.08-2.8,4-13.32-6.41Z" style="fill:#8CC0DE"></path><path d="M102.44,126.5a21.6,21.6,0,0,0,6.58,4l-2.14-4s5,4.4,10.12,6.26c0,0,2.25-11.13-10.88-15.51C95,113.55,93,121,93,121c-7-2.12-14.9,17.88.32,27.18,0,0-1.22-7.79.65-9.3S103.12,132.63,102.44,126.5Z" style="fill:#2e353a"></path><path d="M88,138a7.45,7.45,0,0,0,3.56,4.41c2.29,1.23,4-.69,3.84-3.14-.16-2.19-1.51-5.53-4-5.72S87.37,135.68,88,138Z" style="fill:#e4897b"></path></g><g id="freepik--Table--inject-62"><polygon points="257 332 257 415 263 415 263 344 358 344 358 415 365 415 365 332 257 332" style="fill:#8CC0DE"></polygon><polygon points="257 332 257 415 263 415 263 344 358 344 358 415 365 415 365 332 257 332" style="opacity:0.30000000000000004;isolation:isolate"></polygon><polygon points="257 332 257 415 263 415 263 344 358 344 358 415 365 415 365 332 257 332" style="fill:#fff;opacity:0.6000000000000001;isolation:isolate"></polygon><polygon points="312 332 312 415 318 415 318 344 413 344 413 415 420 415 420 332 312 332" style="fill:#8CC0DE"></polygon><polygon points="312 332 312 415 318 415 318 344 413 344 413 415 420 415 420 332 312 332" style="fill:#fff;opacity:0.6000000000000001;isolation:isolate"></polygon><path d="M350.12,288.4c-1.34-2.2-3.54-.28-3.54-.28.31-4.23-3.57-7.11-3.57-7.11s4.51,0,5.14-4.31-1.57-2.3-3.64-2.33-4.23,6-1.5,9.4,2,9.2-4.3,14.77a12.36,12.36,0,0,0-3.29,5.13c.48-5.12.75-12.34-.76-17.15-2.56-8.19,2.32-10.39,3.73-14.48s-3.73-7.56-3.73-7.56,4.83-2.2,2.47-4.72-7.24-2.18-7.24,1.12,3.31,4.55,3.31,4.55,3.78,3.93,3.78,6-3.78,6.45-3.78,6.45,1.73-3.77-1.73-3.93-4.57,4.4-3.15,6.45,3.78.31,3.78.31a39.44,39.44,0,0,0,1.08,7.08c.35,1.18.19,5.8-.11,10.6a12,12,0,0,0-3.07-4.55c-6.29-5.57-7-11.37-4.3-14.77s.57-9.43-1.5-9.4-4.27-2-3.64,2.33,5.14,4.31,5.14,4.31-3.88,2.88-3.57,7.11c0,0-2.2-1.92-3.54.28-2.39,3.94,3.15,6.38,4.08,4.44,0,0,11.74,8.31,8.91,20.27l.66,1c-.09,1-.14,1.55-.14,1.55l.92-.39,1,1.54a36,36,0,0,0,.27,5.2l2.8-4.15c-2.83-12,8.91-20.27,8.91-20.27C347,294.78,352.51,292.34,350.12,288.4Z" style="fill:#8CC0DE"></path><path d="M350.12,288.4c-1.34-2.2-3.54-.28-3.54-.28.31-4.23-3.57-7.11-3.57-7.11s4.51,0,5.14-4.31-1.57-2.3-3.64-2.33-4.23,6-1.5,9.4,2,9.2-4.3,14.77a12.36,12.36,0,0,0-3.29,5.13c.48-5.12.75-12.34-.76-17.15-2.56-8.19,2.32-10.39,3.73-14.48s-3.73-7.56-3.73-7.56,4.83-2.2,2.47-4.72-7.24-2.18-7.24,1.12,3.31,4.55,3.31,4.55,3.78,3.93,3.78,6-3.78,6.45-3.78,6.45,1.73-3.77-1.73-3.93-4.57,4.4-3.15,6.45,3.78.31,3.78.31a39.44,39.44,0,0,0,1.08,7.08c.35,1.18.19,5.8-.11,10.6a12,12,0,0,0-3.07-4.55c-6.29-5.57-7-11.37-4.3-14.77s.57-9.43-1.5-9.4-4.27-2-3.64,2.33,5.14,4.31,5.14,4.31-3.88,2.88-3.57,7.11c0,0-2.2-1.92-3.54.28-2.39,3.94,3.15,6.38,4.08,4.44,0,0,11.74,8.31,8.91,20.27l.66,1c-.09,1-.14,1.55-.14,1.55l.92-.39,1,1.54a36,36,0,0,0,.27,5.2l2.8-4.15c-2.83-12,8.91-20.27,8.91-20.27C347,294.78,352.51,292.34,350.12,288.4Z" style="opacity:0.2;isolation:isolate"></path><polygon points="343.01 332 339.22 310.31 340.29 304 328.36 304 329.43 310.31 325.65 332 343.01 332" style="fill:#8CC0DE"></polygon><polygon points="343.01 332 339.22 310.31 340.29 304 328.36 304 329.43 310.31 325.65 332 343.01 332" style="fill:#fff;opacity:0.2;isolation:isolate"></polygon><rect x="299.56" y="311.67" width="18.37" height="20.33" style="fill:#8CC0DE"></rect><rect x="299.56" y="311.67" width="18.37" height="20.33" style="fill:#fff;opacity:0.30000000000000004;isolation:isolate"></rect><rect x="298.63" y="309" width="20.25" height="5.77" style="fill:#8CC0DE"></rect><rect x="298.63" y="309" width="20.25" height="5.77" style="fill:#fff;opacity:0.1;isolation:isolate"></rect></g><g id="freepik--character-2--inject-62"><polygon points="118.63 406.86 118.94 413.62 128.4 414.3 137.08 414.91 138.02 406.83 127.76 406.84 118.63 406.86" style="fill:#e4897b"></polygon><path d="M119.44,415c.74-.05-.26-9.17-.26-9.17s-6-5.37-7.51-10.79-4.68-2.2-4.4,3.91.48,10.78.68,15.12S111.73,415.57,119.44,415Z" style="fill:#2e353a"></path><path d="M118.17,405H118s0,0,0,0,0,0,0-.07c-.31-.6-1.85-3.61-1.13-4.56a.89.89,0,0,1,1-.27,1,1,0,0,1,.64.47,3.74,3.74,0,0,1,.32,2c.36-.77.82-1.44,1.3-1.49.31,0,.58.16.79.57a1.36,1.36,0,0,1,.09,1.18c-.46,1.26-2.54,2.11-2.65,2.16Zm1.92-3h0c-.41,0-1.07,1.17-1.52,2.55a4.27,4.27,0,0,0,1.9-1.77.62.62,0,0,0-.06-.63A.33.33,0,0,0,120.09,402Zm-2.63-1.48a.3.3,0,0,0-.27.11c-.33.45.25,2.1.88,3.42.18-1,.34-2.61-.06-3.26a.54.54,0,0,0-.34-.24Z" style="fill:#8CC0DE"></path><polygon points="127.55 406.85 128.21 414.31 136.99 414.92 137.97 406.83 127.55 406.85" style="opacity:0.2;isolation:isolate"></polygon><polygon points="107.61 404.85 109.75 411.26 119.04 409.35 127.56 407.57 126.26 399.54 116.39 402.35 107.61 404.85" style="fill:#e4897b"></polygon><path d="M110.62,412.5c.7-.25-2.75-8.76-2.75-8.76s-7.21-3.54-10.16-8.33-5.11-.84-3.18,5,3.41,10.24,4.78,14.37S103.34,415.11,110.62,412.5Z" style="fill:#2e353a"></path><path d="M106.6,403.13s0,0,0,0,0,0-.06,0a.14.14,0,0,1-.08-.05c-.47-.48-2.77-2.95-2.35-4.06a.87.87,0,0,1,.86-.52,1,1,0,0,1,.74.27,3.7,3.7,0,0,1,.86,1.88c.15-.83.4-1.6.85-1.78.29-.12.6,0,.92.33a1.39,1.39,0,0,1,.4,1.11c-.1,1.34-1.88,2.75-2,2.81H107V403h-.14S106.65,403.13,106.6,403.13Zm1-3.77h0c-.38.15-.64,1.62-.7,3.07a4.06,4.06,0,0,0,1.37-2.11,1,1,0,0,0-.27-.75C107.87,399.49,107.73,399.36,107.61,399.36ZM105,399h0c-.37,0-.42.16-.44.21-.2.52.81,1.95,1.78,3.05-.11-1.05-.38-2.61-1-3.12A.52.52,0,0,0,105,399Z" style="fill:#8CC0DE"></path><polygon points="116.19 402.41 118.86 409.4 127.47 407.6 126.22 399.56 116.19 402.41" style="opacity:0.2;isolation:isolate"></polygon><path d="M257.37,415.11c-23.37,0-49.45-14.15-61-18.31a14.15,14.15,0,0,0-4.74-1.15c-5.07.24-42.57,8.91-60.28,13.06l-.08,0-9.14,2.16-3-10.78S186.67,365,196,366.86c7.08,1.42,27,6.72,36.24,9.19l4.76,1.28L243,367l33,2.53S285,415.11,257.37,415.11Z" style="fill:#2e353a"></path><path d="M130.11,402.88l2.65,12.88,62.24-.84s45.07.19,62.37.19.95-31.11.95-31.11Z" style="fill:#2e353a"></path><path d="M243,367l-.78,21.41-45.81,8.4-65,11.91,69.25-23,36.2,1.43a18.15,18.15,0,0,0-4.6-11.11l4.76,1.28Z" style="opacity:0.2;isolation:isolate"></path><polygon points="276 364.68 276 369.52 243 366.99 243 361.27 276 364.68" style="fill:#8CC0DE"></polygon><polygon points="276 364.68 276 369.52 243 366.99 243 361.27 276 364.68" style="opacity:0.4;isolation:isolate"></polygon><rect x="264.89" y="362.69" width="1.64" height="8.35" transform="translate(512.37 746.8) rotate(-177.08)" style="fill:#2e353a"></rect><rect x="250.56" y="362.76" width="7.24" height="5.49" transform="translate(474.74 752.23) rotate(-174.88)" style="fill:#8CC0DE"></rect><rect x="244.73" y="360.48" width="1.64" height="8.35" transform="translate(472.21 741.34) rotate(-177.08)" style="fill:#2e353a"></rect><rect x="250.56" y="362.76" width="7.24" height="5.49" transform="translate(474.74 752.23) rotate(-174.88)" style="fill:#fff;opacity:0.6000000000000001;isolation:isolate"></rect><path d="M225.13,314.75s-4.2.25-4.29,1,.66,6.86,1.29,7.68a13,13,0,0,0,2.25,1.95L222,334.75l5.38,2.22,1.5-10.14s2.37-2.7,1.37-5.83S225.13,314.75,225.13,314.75Z" style="fill:#e4897b"></path><path d="M225.13,314.75s-4.2.25-4.29,1,.66,6.86,1.29,7.68a13,13,0,0,0,2.25,1.95L222,334.75l5.38,2.22,1.5-10.14s2.37-2.7,1.37-5.83S225.13,314.75,225.13,314.75Z" style="opacity:0.2;isolation:isolate"></path><path d="M276,282.83s8,14.26-1.53,33.56" style="fill:none;stroke:#2e353a;stroke-linecap:round;stroke-linejoin:round;stroke-width:0.5px"></path><path d="M250.48,324l-2.78,14.2-.83.9c-2.7,2.88-11.43,11.85-18.66,15.21-3.16,1.47-6,1.86-8,.19-7.27-6.25,2-27.67,2-27.67L230.5,330l-.67,8.93,9-19.93Z" style="fill:#8CC0DE"></path><path d="M246.87,339.1c-2.7,2.88-11.43,11.85-18.66,15.21,11.11-6.31,14-20.14,14-20.14Z" style="opacity:0.2;isolation:isolate"></path><path d="M268.68,273.67c5.87,1.13,12,12.15,9.15,26.49a114.67,114.67,0,0,1-9.15,26.67L250.48,324S247,269.5,268.68,273.67Z" style="fill:#2e353a"></path><path d="M243.05,361.85l33,2.85c.78-12.27,1.57-20.18,8.83-42.05l1.1-3.28a2.87,2.87,0,0,0-1.93-3.68,99.71,99.71,0,0,0-10.8-2.43,105.51,105.51,0,0,0-14.82-1.56c-6.43-.05-13.8.67-13.8.67s-1,.25-1.71,7.06C242.31,325.82,241.72,338.6,243.05,361.85Z" style="fill:#8CC0DE"></path><path d="M265.07,311.69A130,130,0,0,1,281.63,315s-20.41,10.72-43.82,6.17c0,0,2.94-8.39,6.82-8.83C251.23,311.62,260,311.16,265.07,311.69Z" style="fill:#e4897b"></path><path d="M268.62,276.28s1.37-6.28-8.71-7.11-21.08,9.92-18.24,25,7.12,19.28,3.88,27.79.4,10.83,3.34,12.17c0,0-2-1.84-1.19-4s8.09-3.19,7.86-11.18,9-8.32,9-8.32Z" style="fill:#2e353a"></path><path d="M271.73,314.47S269.28,318,261.15,319c0,0-4-2.65-2.32-5.87,0,0,1.76-.55,2.14-3.35a13.58,13.58,0,0,0-.75-5.83c-.09-.3-.2-.62-.31-.94l10.28-6.43S266.57,309.6,271.73,314.47Z" style="fill:#e4897b"></path><path d="M267.88,300.3s-.55,7.35-6.91,9.47a13.58,13.58,0,0,0-.75-5.83C264,302,267.88,300.3,267.88,300.3Z" style="opacity:0.2;isolation:isolate"></path><path d="M257.37,276.22c-8.4,1.43-10.34,6.39-9.48,15.16,1.08,10.95,4.79,18.23,14.9,14.12C276.53,299.93,271.32,273.84,257.37,276.22Z" style="fill:#e4897b"></path><path d="M253.24,290a18.07,18.07,0,0,1-1.85,3.9,2.35,2.35,0,0,0,2.38.57Z" style="fill:#de5753"></path><path d="M258.27,288.41c.1.7.56,1.2,1,1.14s.75-.69.65-1.38-.56-1.2-1-1.13S258.17,287.72,258.27,288.41Z" style="fill:#2e353a"></path><path d="M259.12,287l-1.59-.37S258.46,287.83,259.12,287Z" style="fill:#2e353a"></path><path d="M249.63,289.53c.11.7.56,1.2,1,1.14s.76-.69.66-1.38-.56-1.2-1-1.13S249.53,288.84,249.63,289.53Z" style="fill:#2e353a"></path><path d="M250.48,288.16l-1.59-.37S249.83,289,250.48,288.16Z" style="fill:#2e353a"></path><path d="M257.36,282.6a4.43,4.43,0,0,1,3.86.65" style="fill:none;stroke:#2e353a;stroke-linecap:round;stroke-linejoin:round;stroke-width:0.7246800000000001px"></path><path d="M251.2,283.29a4,4,0,0,0-3.24,1.26" style="fill:none;stroke:#2e353a;stroke-linecap:round;stroke-linejoin:round;stroke-width:0.7246800000000001px"></path><path d="M255.56,297.55A21.47,21.47,0,0,1,257,300.3l.53-.14c2.4-.67,3.3-1.77,3.56-2.79a3.1,3.1,0,0,0,0-1.52,3.21,3.21,0,0,0-.3-.82,11.55,11.55,0,0,1-4.44,2.28C255.88,297.47,255.56,297.55,255.56,297.55Z" style="fill:#2e353a"></path><path d="M256.38,297.31l.45.8c2.27-.63,3.77-1.38,4.29-2.26a3.21,3.21,0,0,0-.3-.82A11.55,11.55,0,0,1,256.38,297.31Z" style="fill:#fff"></path><path d="M257.57,300.16c2.4-.67,3.3-1.77,3.56-2.79a8.08,8.08,0,0,0-2.52,1.27A3.07,3.07,0,0,0,257.57,300.16Z" style="fill:#de5753"></path><path d="M269,288.81s-5.11-6.23-5.42-11.66c0,0-17.81-4-15.75,13.08,0,0-4.19-14.73,10.2-17.53s17.93,18.34,11.55,25.91C269.55,298.61,272.14,292.72,269,288.81Z" style="fill:#2e353a"></path><path d="M267.9,290.82a3.75,3.75,0,0,1,3.39-4.05c2.66-.16,4.81,5-1.45,7.37C268.94,294.48,268.26,293.66,267.9,290.82Z" style="fill:#e4897b"></path><path d="M253.77,271s-18.51,8-12.56,30.67,1.79,22,1.79,22" style="fill:none;stroke:#2e353a;stroke-linecap:round;stroke-linejoin:round;stroke-width:0.5px"></path><path d="M233.9,321.08a.82.82,0,0,1-.83.92h-9.14a1.05,1.05,0,0,1-1-.92l-2.05-18a.93.93,0,0,1,.83-1h9.14a1.18,1.18,0,0,1,1,1Z" style="fill:#2e353a"></path><path d="M230.84,302.92l2.07,18.22a.69.69,0,0,1-.72.86h-7.75c-.52,0-1.47-.29-1.53-.8l-2.07-18.28c-.06-.51.83-.92,1.35-.92h7.75A.94.94,0,0,1,230.84,302.92Z" style="fill:#fff;opacity:0.5"></path><path d="M242.25,328.88l-4.71-5.21s-1.54-8.42-2-9.29-7.37,0-8.12,0,0,8.46.83,9.29,3.67,1.33,3.67,1.33l5.66,7.88Z" style="fill:#e4897b"></path><path d="M285.94,317.57c5.06,14.68-16.69,39.78-27.19,40s-25.5-27.8-25.5-27.8l6.87-4.25s17.45,16,19.79,16.25c1.32.14,14-19.95,20.72-24.31C284.38,315,285.94,317.57,285.94,317.57Z" style="fill:#8CC0DE"></path><path d="M285.94,317.57c5.06,14.68-16.69,39.78-27.19,40s-25.5-27.8-25.5-27.8l6.87-4.25s17.45,16,19.79,16.25c1.32.14,14-19.95,20.72-24.31C284.38,315,285.94,317.57,285.94,317.57Z" style="opacity:0.1;isolation:isolate"></path></g><g id="freepik--Jar--inject-62"><rect x="269.01" y="391.75" width="21.38" height="25.34" style="fill:#8CC0DE"></rect><rect x="269.01" y="391.75" width="21.38" height="25.34" style="fill:#fff;opacity:0.2;isolation:isolate"></rect><rect x="268.07" y="389.08" width="23.25" height="5.77" style="fill:#8CC0DE"></rect></g></svg>