<svg width="52" height="43" viewBox="0 0 52 43" fill="none" xmlns="http://www.w3.org/2000/svg">
<path d="M50.8618 9.94201C50.4027 9.53433 49.8474 9.27258 49.258 9.18616C48.6686 9.09973 48.0686 9.19204 47.5252 9.45272L36.0628 14.9327C36.0123 14.9624 35.9568 14.9809 35.8995 14.9871C35.8423 14.9934 35.7845 14.9872 35.7295 14.9689C35.6745 14.9507 35.6234 14.9208 35.5793 14.8809C35.5352 14.8411 35.4989 14.7922 35.4727 14.737L28.7768 1.77095C28.5053 1.23496 28.1049 0.787676 27.6176 0.47606C27.1304 0.164444 26.5743 0 26.0077 0C25.4411 0 24.885 0.164444 24.3977 0.47606C23.9105 0.787676 23.5101 1.23496 23.2386 1.77095L16.5427 14.737C16.5164 14.7922 16.4802 14.8411 16.4361 14.8809C16.392 14.9208 16.3409 14.9507 16.2859 14.9689C16.2309 14.9872 16.1731 14.9934 16.1158 14.9871C16.0586 14.9809 16.0031 14.9624 15.9526 14.9327L4.49018 9.45272C3.94866 9.18802 3.3491 9.09238 2.75966 9.17669C2.17023 9.261 1.61456 9.52187 1.15584 9.92964C0.697118 10.3374 0.353748 10.8757 0.164767 11.4834C-0.0242145 12.091 -0.0512243 12.7436 0.0868078 13.367L5.87475 39.8618C5.97276 40.3095 6.15406 40.7312 6.40765 41.1012C6.66124 41.4713 6.98186 41.782 7.3501 42.0146C7.83521 42.3346 8.3929 42.504 8.96165 42.5039C9.25269 42.501 9.54233 42.46 9.82416 42.3816C20.4059 39.2264 31.5827 39.2179 42.1685 42.3571C42.5814 42.4856 43.0142 42.5225 43.4408 42.4655C43.8673 42.4085 44.2786 42.2588 44.65 42.0255C45.0213 41.7923 45.3448 41.4803 45.6011 41.1083C45.8573 40.7364 46.0408 40.3124 46.1406 39.8618L51.9059 13.367C52.0499 12.7481 52.0283 12.0979 51.8435 11.4917C51.6587 10.8855 51.3183 10.3482 50.8618 9.94201ZM49.2729 12.682L43.485 39.1768C43.4539 39.3055 43.3815 39.4182 43.2807 39.4948C43.168 39.5539 43.0403 39.5711 42.9175 39.5438C31.8515 36.2491 20.1639 36.2491 9.09783 39.5438C9.03818 39.562 8.97569 39.5668 8.91423 39.558C8.85277 39.5492 8.79363 39.527 8.74046 39.4926C8.68729 39.4582 8.64122 39.4124 8.60509 39.3581C8.56896 39.3038 8.54354 39.2421 8.53039 39.1768L2.74245 12.682C2.72925 12.6089 2.73097 12.5335 2.7475 12.4611C2.76402 12.3888 2.79495 12.3212 2.83813 12.263C2.88132 12.2048 2.93573 12.1574 2.9976 12.1242C3.05946 12.0909 3.1273 12.0726 3.19641 12.0704L3.37799 12.1193L14.8631 17.6238C15.5874 17.9753 16.408 18.0194 17.1612 17.7473C17.9143 17.4752 18.5446 16.9069 18.926 16.1559L25.6218 3.18987C25.6576 3.11259 25.7127 3.04758 25.7808 3.00214C25.849 2.95671 25.9275 2.93264 26.0077 2.93264C26.0878 2.93264 26.1664 2.95671 26.2345 3.00214C26.3027 3.04758 26.3578 3.11259 26.3935 3.18987L33.0894 16.1559C33.4708 16.9069 34.101 17.4752 34.8542 17.7473C35.6073 18.0194 36.428 17.9753 37.1523 17.6238L48.6374 12.1193C48.7152 12.0822 48.8012 12.0693 48.8855 12.0823C48.9698 12.0953 49.049 12.1335 49.114 12.1927C49.1804 12.2501 49.2305 12.3263 49.2585 12.4128C49.2866 12.4993 49.2916 12.5926 49.2729 12.682Z" fill="black"/>
</svg>
