<svg width="153" height="182" viewBox="0 0 153 182" fill="none" xmlns="http://www.w3.org/2000/svg">
<path d="M62.2747 178.35C62.1809 178.894 62.546 179.411 63.0903 179.505L71.9595 181.034C72.5037 181.128 73.021 180.763 73.1148 180.218C73.2086 179.674 72.8435 179.157 72.2992 179.063L64.4155 177.704L65.7744 169.82C65.8682 169.276 65.5031 168.759 64.9588 168.665C64.4146 168.571 63.8973 168.936 63.8035 169.481L62.2747 178.35ZM95.9798 72.023L96.6973 71.3264L95.9798 72.023ZM66.9139 91.5045L65.9139 91.5085L65.9141 91.5498L65.9177 91.5909L66.9139 91.5045ZM114.947 72.8878L113.95 72.8111L114.947 72.8878ZM77.1894 5.17741C76.7542 4.83735 76.1258 4.91444 75.7857 5.34962C75.4457 5.78479 75.5228 6.41325 75.9579 6.75331L77.1894 5.17741ZM63.8369 179.337C65.1999 178.374 67.1312 176.386 69.3832 173.68C71.6556 170.95 74.3115 167.42 77.1265 163.308C82.7558 155.085 89.045 144.499 94.1931 133.271C99.3366 122.053 103.367 110.138 104.43 99.2711C105.493 88.4069 103.6 78.4362 96.6973 71.3264L95.2624 72.7195C101.593 79.2401 103.473 88.5166 102.44 99.0763C101.407 109.633 97.4731 121.319 92.3751 132.437C87.2816 143.546 81.0518 154.033 75.4761 162.178C72.6885 166.251 70.0703 169.729 67.8461 172.401C65.6014 175.098 63.8134 176.905 62.6834 177.703L63.8369 179.337ZM96.6973 71.3264C93.0075 67.5258 89.1793 65.7359 85.4679 65.584C81.7634 65.4322 78.3318 66.9189 75.4408 69.3682C69.6918 74.2389 65.8804 83.0685 65.9139 91.5085L67.9139 91.5006C67.8824 83.575 71.4903 75.3364 76.7337 70.8941C79.3389 68.6869 82.2968 67.4558 85.3861 67.5823C88.4685 67.7085 91.8385 69.1928 95.2624 72.7195L96.6973 71.3264ZM65.9177 91.5909C67.0953 105.181 78.5535 114.266 90.3591 112.925C102.274 111.571 113.884 99.7585 115.944 72.9644L113.95 72.8111C111.922 99.1849 100.647 109.743 90.1333 110.938C79.5104 112.144 68.9964 103.953 67.9102 91.4182L65.9177 91.5909ZM115.944 72.9644C117.105 57.871 111.534 44.1496 103.646 32.6184C95.7586 21.0878 85.5115 11.6807 77.1894 5.17741L75.9579 6.75331C84.1874 13.1842 94.2648 22.4464 101.995 33.7476C109.725 45.0481 115.065 58.3208 113.95 72.8111L115.944 72.9644Z" fill="black"/>
</svg>
