<svg width="167" height="200" viewBox="0 0 167 200" fill="none" xmlns="http://www.w3.org/2000/svg">
<path d="M59.1624 13.9971C58.8976 13.5124 58.29 13.3343 57.8054 13.5991C57.3207 13.8639 57.1425 14.4715 57.4074 14.9561L59.1624 13.9971ZM81.2147 79.5581L80.6022 80.3486L81.2147 79.5581ZM109.824 67.4403L108.889 67.7955L108.899 67.821L108.91 67.8459L109.824 67.4403ZM99.9703 144.141L99.5845 143.218L99.9703 144.141ZM96.4125 119.819L96.2256 120.801L96.4125 119.819ZM79.4881 141.612L78.4912 141.691L79.4881 141.612ZM73.054 186.69C73.3463 187.159 73.9631 187.302 74.4317 187.009L82.0683 182.247C82.5369 181.955 82.6799 181.338 82.3877 180.869C82.0954 180.4 81.4786 180.257 81.01 180.55L74.2219 184.783L69.9885 177.995C69.6962 177.526 69.0794 177.383 68.6108 177.676C68.1422 177.968 67.9992 178.585 68.2915 179.053L73.054 186.69ZM57.4074 14.9561C64.7478 28.3889 63.776 39.1675 64.2871 49.5239C64.5423 54.6939 65.1759 59.7607 67.4933 64.8695C69.8141 69.9859 73.7869 75.0669 80.6022 80.3486L81.8273 78.7677C75.2132 73.642 71.4745 68.805 69.3147 64.0434C67.1514 59.2742 66.5353 54.5029 66.2847 49.4253C65.7843 39.2864 66.777 27.9315 59.1624 13.9971L57.4074 14.9561ZM80.6022 80.3486C86.2036 84.6895 91.1835 86.7714 95.4719 87.213C99.7807 87.6568 103.332 86.4365 106.005 84.2931C108.662 82.1628 110.414 79.1536 111.222 76.053C112.029 72.9598 111.917 69.6924 110.738 67.0347L108.91 67.8459C109.87 70.0092 110.004 72.7997 109.287 75.5484C108.572 78.2896 107.032 80.9062 104.754 82.7327C102.492 84.5461 99.4647 85.6137 95.6768 85.2236C91.8684 84.8313 87.2335 82.9573 81.8273 78.7677L80.6022 80.3486ZM110.759 67.0852C107.654 58.9128 99.2217 51.6999 89.7038 53.1113C80.1584 54.5269 70.2522 64.5051 63.8858 89.0679L65.8219 89.5697C72.1472 65.1654 81.7289 56.3159 89.9972 55.0897C98.2928 53.8595 106 60.1909 108.889 67.7955L110.759 67.0852ZM63.8858 89.0679C60.6769 101.449 60.95 111.32 63.3129 119.132C65.6771 126.948 70.1129 132.634 75.1142 136.67C80.1069 140.699 85.6598 143.083 90.29 144.326C92.6061 144.947 94.7074 145.288 96.4108 145.403C98.0585 145.514 99.4878 145.427 100.356 145.063L99.5845 143.218C99.1792 143.388 98.1592 143.517 96.5455 143.408C94.9873 143.302 93.015 142.986 90.8086 142.394C86.3937 141.209 81.1063 138.935 76.3702 135.113C71.6427 131.298 67.4615 125.939 65.2272 118.553C62.9917 111.162 62.685 101.673 65.8219 89.5697L63.8858 89.0679ZM100.356 145.063C104.022 143.53 106.351 141.235 107.544 138.559C108.731 135.898 108.747 132.967 107.993 130.23C106.502 124.819 101.896 119.844 96.5994 118.836L96.2256 120.801C100.621 121.637 104.732 125.923 106.065 130.761C106.723 133.149 106.678 135.59 105.717 137.745C104.762 139.886 102.855 141.85 99.5845 143.218L100.356 145.063ZM96.5994 118.836C93.1771 118.185 90.2163 118.337 87.7191 119.225C85.212 120.116 83.2371 121.726 81.765 123.877C78.8491 128.14 77.9228 134.491 78.4912 141.691L80.485 141.533C79.9304 134.509 80.8812 128.711 83.4157 125.007C84.6688 123.175 86.3124 121.847 88.3888 121.109C90.4751 120.368 93.0628 120.2 96.2256 120.801L96.5994 118.836ZM78.4912 141.691C79.675 156.685 76.5265 170.412 72.9284 185.935L74.8767 186.387C78.4647 170.907 81.6969 156.884 80.485 141.533L78.4912 141.691Z" fill="black"/>
</svg>
