<svg width="56" height="59" viewBox="0 0 56 59" fill="none" xmlns="http://www.w3.org/2000/svg">
<g clip-path="url(#clip0_129_60)">
<path d="M47.2409 48.0711C44.8201 46.9175 42.0274 46.0077 38.9941 45.3671V37.9983C41.6361 37.6118 47.9112 34.7368 50.31 32.1636C53.3351 28.9188 53.7403 24.073 51.2129 21.3618C50.1389 20.2096 48.643 19.5749 47.0012 19.5749C44.9109 19.5749 42.7759 20.5793 41.1435 22.3304C40.2743 23.2626 39.5547 24.6929 38.994 26.1171V18.9615C41.3345 18.8525 48.1803 15.802 50.7116 13.0865C53.7367 9.84152 54.1418 4.9959 51.6143 2.28489C50.5402 1.13266 49.0444 0.497925 47.4025 0.497925C45.3122 0.497925 43.1774 1.50218 41.5449 3.25328C39.5815 5.35925 38.3785 10.0082 38.0563 11.3831C37.9907 11.6633 37.9144 12.0053 37.8367 12.3874C37.7591 12.0053 37.6827 11.6633 37.6172 11.3831C37.2951 10.0083 36.0919 5.35925 34.1285 3.25328C32.4962 1.50218 30.3611 0.497925 28.2709 0.497925C26.6291 0.497925 25.1333 1.13237 24.0591 2.28489C21.5319 4.99581 21.9368 9.84152 24.962 13.0865C27.3604 15.6596 33.6358 18.5347 36.278 18.9214V44.8766C33.6346 44.4747 30.8503 44.2652 27.9999 44.2652C23.6111 44.2652 19.3781 44.7604 15.5777 45.694V32.6342C17.6288 32.2285 22.2787 29.7677 24.0586 27.8585C26.3742 25.3743 26.6751 21.6552 24.7293 19.5676C23.8982 18.6762 22.743 18.1853 21.4766 18.1853C19.8776 18.1853 18.2461 18.9515 17.0007 20.2876C15.5265 21.8688 14.6221 25.4753 14.3689 26.5993C14.1155 25.4753 13.2112 21.8688 11.7371 20.2876C10.4917 18.9515 8.86027 18.1853 7.26123 18.1853C5.99479 18.1853 4.83961 18.6762 4.00841 19.5677C2.06274 21.6551 2.3638 25.3744 4.67937 27.8587C6.37682 29.6796 10.6877 32.0036 12.8619 32.5663V46.4593C11.4046 46.9269 10.0304 47.4653 8.75908 48.071C3.43315 50.6089 0.5 54.0546 0.5 57.7737V58.5021H55.5V57.7737C55.5 54.0546 52.5668 50.6089 47.2409 48.0711Z" fill="#8CC0DE"/>
</g>
<defs>
<clipPath id="clip0_129_60">
<rect width="55" height="59" fill="white" transform="translate(0.5)"/>
</clipPath>
</defs>
</svg>
