<svg width="56" height="59" viewBox="0 0 56 59" fill="none" xmlns="http://www.w3.org/2000/svg">
<g clip-path="url(#clip0_129_56)">
<path d="M0.5 21.9983V21.3299C0.5 13.275 5.92695 6.40475 13.3262 5.08186C18.1279 4.20723 23.209 5.91961 26.7109 9.68202L28 11.0625L29.1924 9.68202C32.791 5.91961 37.7754 4.20723 42.6738 5.08186C50.0752 6.40475 55.5 13.275 55.5 21.3299V21.9983C55.5 26.7805 53.6523 31.3553 50.3867 34.6164L30.9756 54.0565C30.1699 54.8631 29.1064 55.3125 28 55.3125C26.8936 55.3125 25.8301 54.8631 25.0244 54.0565L5.61221 34.6164C2.35088 31.3553 0.5 26.7805 0.5 21.9983Z" fill="#F4BFBF"/>
</g>
<defs>
<clipPath id="clip0_129_56">
<rect width="55" height="59" fill="white" transform="translate(0.5)"/>
</clipPath>
</defs>
</svg>
