<svg width="500" height="500" viewBox="0 0 500 500" fill="none" xmlns="http://www.w3.org/2000/svg">
<path d="M94.48 219.42C94.48 219.42 78.14 76.1 225.19 72.88C372.24 69.66 356.68 217.81 350.45 237.94C344.22 258.07 314.64 316.35 311.53 342.94C308.42 369.53 312.53 449.4 314.53 475.51H163.15L163.72 396.58C163.72 396.58 108.48 405.44 98.37 380.48C88.26 355.52 89 307.18 89 307.18C89 307.18 58.66 307.18 56.32 302.35C53.98 297.52 94.48 219.42 94.48 219.42Z" fill="#EC9292"/>
<path d="M94.48 219.42C94.48 219.42 78.14 76.1 225.19 72.88C372.24 69.66 356.68 217.81 350.45 237.94C344.22 258.07 314.64 316.35 311.53 342.94C308.42 369.53 312.53 449.4 314.53 475.51H163.15L163.72 396.58C163.72 396.58 108.48 405.44 98.37 380.48C88.26 355.52 89 307.18 89 307.18C89 307.18 58.66 307.18 56.32 302.35C53.98 297.52 94.48 219.42 94.48 219.42Z" fill="#D78763"/>
<g opacity="0.7">
<path d="M94.48 219.42C94.48 219.42 78.14 76.1 225.19 72.88C372.24 69.66 356.68 217.81 350.45 237.94C344.22 258.07 314.64 316.35 311.53 342.94C308.42 369.53 312.53 449.4 314.53 475.51H163.15L163.72 396.58C163.72 396.58 108.48 405.44 98.37 380.48C88.26 355.52 89 307.18 89 307.18C89 307.18 58.66 307.18 56.32 302.35C53.98 297.52 94.48 219.42 94.48 219.42Z" fill="white"/>
</g>
<path d="M171.56 131.36C163.14 129.26 152.02 124.85 142.97 132.95C138.35 137.09 135.76 146.24 135.45 152.53C130.932 152.855 126.544 154.186 122.608 156.427C118.671 158.668 115.286 161.761 112.7 165.48C109.931 169.25 108.432 173.802 108.42 178.48C108.58 183.14 110.93 187.86 114.94 190.07C112.76 193.307 111.5 197.076 111.294 200.973C111.088 204.871 111.944 208.751 113.77 212.2C115.648 215.557 118.434 218.317 121.809 220.164C125.183 222.01 129.01 222.868 132.85 222.64C132.25 226.671 132.668 230.788 134.065 234.616C135.462 238.445 137.795 241.863 140.85 244.56C143.913 247.143 147.595 248.885 151.535 249.612C155.475 250.34 159.537 250.029 163.32 248.71C170.61 259.5 187.32 261.86 197.16 253.49C198.39 252.49 199.61 251.22 201.16 250.94C202.539 250.84 203.92 251.109 205.16 251.72C211.74 254.25 218.77 256.45 225.7 255.3C232.63 254.15 239.37 248.69 239.85 241.5C247.425 245.626 255.904 247.811 264.53 247.86C274.39 247.86 285.88 243.39 287.98 233.52C290.894 235.784 294.396 237.163 298.071 237.495C301.746 237.826 305.438 237.096 308.71 235.39C311.968 233.552 314.654 230.848 316.47 227.577C318.286 224.307 319.162 220.597 319 216.86C327.36 218.48 334.48 209.94 336.71 201.53C338.88 193.35 338.28 184.17 333.86 177.01C329.44 169.85 320.91 165.2 312.77 166.71C314.907 163.542 316.17 159.867 316.431 156.055C316.693 152.243 315.944 148.43 314.26 145C312.528 141.646 309.91 138.83 306.691 136.857C303.473 134.885 299.775 133.831 296 133.81C295.079 130.835 293.448 128.129 291.248 125.925C289.047 123.721 286.344 122.085 283.37 121.16C280.405 120.322 277.278 120.234 274.27 120.904C271.263 121.575 268.469 122.982 266.14 125C263.607 120.759 260.137 117.154 255.997 114.46C251.856 111.767 247.154 110.056 242.25 109.46C237.354 108.973 232.411 109.622 227.806 111.357C223.201 113.091 219.059 115.864 215.7 119.46C209.02 113.58 196.94 110.36 188.56 113.14C184.398 114.452 180.646 116.817 177.668 120.005C174.689 123.194 172.585 127.099 171.56 131.34" fill="#EC9292"/>
<g opacity="0.3">
<path d="M171.56 131.36C163.14 129.26 152.02 124.85 142.97 132.95C138.35 137.09 135.76 146.24 135.45 152.53C130.932 152.855 126.544 154.186 122.608 156.427C118.671 158.668 115.286 161.761 112.7 165.48C109.931 169.25 108.432 173.802 108.42 178.48C108.58 183.14 110.93 187.86 114.94 190.07C112.76 193.307 111.5 197.076 111.294 200.973C111.088 204.871 111.944 208.751 113.77 212.2C115.648 215.557 118.434 218.317 121.809 220.164C125.183 222.01 129.01 222.868 132.85 222.64C132.25 226.671 132.668 230.788 134.065 234.616C135.462 238.445 137.795 241.863 140.85 244.56C143.913 247.143 147.595 248.885 151.535 249.612C155.475 250.34 159.537 250.029 163.32 248.71C170.61 259.5 187.32 261.86 197.16 253.49C198.39 252.49 199.61 251.22 201.16 250.94C202.539 250.84 203.92 251.109 205.16 251.72C211.74 254.25 218.77 256.45 225.7 255.3C232.63 254.15 239.37 248.69 239.85 241.5C247.425 245.626 255.904 247.811 264.53 247.86C274.39 247.86 285.88 243.39 287.98 233.52C290.894 235.784 294.396 237.163 298.071 237.495C301.746 237.826 305.438 237.096 308.71 235.39C311.968 233.552 314.654 230.848 316.47 227.577C318.286 224.307 319.162 220.597 319 216.86C327.36 218.48 334.48 209.94 336.71 201.53C338.88 193.35 338.28 184.17 333.86 177.01C329.44 169.85 320.91 165.2 312.77 166.71C314.907 163.542 316.17 159.867 316.431 156.055C316.693 152.243 315.944 148.43 314.26 145C312.528 141.646 309.91 138.83 306.691 136.857C303.473 134.885 299.775 133.831 296 133.81C295.079 130.835 293.448 128.129 291.248 125.925C289.047 123.721 286.344 122.085 283.37 121.16C280.405 120.322 277.278 120.234 274.27 120.904C271.263 121.575 268.469 122.982 266.14 125C263.607 120.759 260.137 117.154 255.997 114.46C251.856 111.767 247.154 110.056 242.25 109.46C237.354 108.973 232.411 109.622 227.806 111.357C223.201 113.091 219.059 115.864 215.7 119.46C209.02 113.58 196.94 110.36 188.56 113.14C184.398 114.452 180.646 116.817 177.668 120.005C174.689 123.194 172.585 127.099 171.56 131.34" fill="white"/>
</g>
<path d="M164.27 149.69C163.413 149.635 162.552 149.693 161.71 149.86C159.382 150.43 157.323 151.787 155.88 153.7C153.97 156.1 152.81 159.7 152.38 163.85C152.094 166.026 152.074 168.229 152.32 170.41C152.538 172.788 153.528 175.028 155.14 176.79L155.49 177.15L154.99 177.23C150.454 178.039 146.355 180.44 143.43 184C141.996 185.724 140.879 187.687 140.13 189.8C139.156 192.666 138.829 195.713 139.175 198.72C139.521 201.727 140.53 204.62 142.13 207.19L142.31 207.47L141.99 207.54C140.369 207.97 138.89 208.819 137.7 210C136.631 211.047 135.743 212.264 135.07 213.6C134.013 215.816 133.363 218.204 133.15 220.65C132.92 222.65 132.89 224.29 132.85 225.39C132.85 225.9 132.85 226.32 132.85 226.64C132.873 226.782 132.873 226.928 132.85 227.07C132.837 226.927 132.837 226.783 132.85 226.64C132.85 226.31 132.85 225.9 132.85 225.38C132.822 223.791 132.879 222.203 133.02 220.62C133.192 218.13 133.819 215.693 134.87 213.43C135.549 212.043 136.455 210.779 137.55 209.69C138.777 208.466 140.305 207.586 141.98 207.14L141.84 207.49C140.191 204.861 139.149 201.897 138.79 198.815C138.43 195.732 138.761 192.608 139.76 189.67C140.526 187.485 141.673 185.453 143.15 183.67C146.151 179.988 150.374 177.504 155.05 176.67L154.91 177.12C153.229 175.272 152.197 172.927 151.97 170.44C151.731 168.218 151.765 165.974 152.07 163.76C152.54 159.58 153.77 155.89 155.76 153.46C157.254 151.526 159.376 150.175 161.76 149.64C162.591 149.476 163.447 149.493 164.27 149.69V149.69Z" fill="#EC9292"/>
<path d="M185.3 211.92C184.822 212.195 184.32 212.426 183.8 212.61C182.414 213.187 180.999 213.691 179.56 214.12C177.416 214.79 175.176 215.101 172.93 215.04C171.591 214.985 170.271 214.711 169.02 214.23C167.684 213.704 166.439 212.972 165.33 212.06C163.062 210.454 161.271 208.263 160.15 205.72C159.354 203.589 159.178 201.277 159.64 199.05C159.928 197.557 160.517 196.139 161.37 194.88C161.6 194.543 161.858 194.225 162.14 193.93C162.34 193.72 162.44 193.62 162.46 193.63C162.48 193.64 162.1 194.1 161.55 195C160.613 196.574 160.043 198.339 159.882 200.164C159.721 201.989 159.973 203.826 160.62 205.54C161.72 207.975 163.445 210.077 165.62 211.63C167.669 213.361 170.223 214.381 172.9 214.54C175.099 214.621 177.296 214.351 179.41 213.74C181.23 213.26 182.67 212.74 183.67 212.41C184.199 212.201 184.744 212.037 185.3 211.92V211.92Z" fill="#EC9292"/>
<path d="M276.71 193.46C276.723 193.553 276.723 193.647 276.71 193.74C276.71 193.95 276.64 194.23 276.58 194.58C276.46 195.31 276.28 196.4 276 197.8C275.676 199.52 275.252 201.219 274.73 202.89C274.041 205.148 273.009 207.286 271.67 209.23C269.983 211.603 267.846 213.621 265.38 215.17C262.558 217.054 259.417 218.409 256.11 219.17C254.294 219.587 252.433 219.772 250.57 219.72C248.61 219.623 246.668 219.304 244.78 218.77C240.769 217.597 236.971 215.791 233.53 213.42L233.93 213.25C233.22 217.42 232.48 221.91 230.29 226.04C229.719 227.069 229.049 228.041 228.29 228.94C227.508 229.841 226.622 230.647 225.65 231.34C223.631 232.658 221.371 233.563 219 234C214.967 234.78 210.805 234.574 206.869 233.401C202.933 232.227 199.338 230.121 196.39 227.26L196.83 227.11C196.489 229.358 195.53 231.466 194.06 233.2C192.672 234.889 190.931 236.254 188.96 237.2C185.237 238.831 181.072 239.159 177.14 238.13C173.667 237.292 170.379 235.821 167.44 233.79C164.849 232.086 162.735 229.749 161.3 227C160.704 225.81 160.309 224.529 160.13 223.21C159.992 222.041 160.032 220.857 160.25 219.7C160.583 217.855 161.397 216.13 162.61 214.7C163.375 213.82 164.338 213.135 165.42 212.7C165.791 212.549 166.176 212.435 166.57 212.36C166.57 212.36 166.17 212.48 165.45 212.79C164.405 213.24 163.478 213.924 162.74 214.79C161.583 216.218 160.812 217.919 160.5 219.73C160.07 222.152 160.453 224.648 161.59 226.83C163.009 229.492 165.072 231.758 167.59 233.42C170.496 235.401 173.739 236.834 177.16 237.65C180.994 238.628 185.045 238.297 188.67 236.71C190.562 235.8 192.237 234.494 193.58 232.88C194.989 231.214 195.907 229.188 196.23 227.03L196.31 226.52L196.68 226.88C199.475 229.615 202.883 231.641 206.62 232.79C210.564 234.025 214.754 234.255 218.81 233.46C221.126 233.037 223.333 232.152 225.3 230.86C226.236 230.198 227.089 229.426 227.84 228.56C228.569 227.687 229.212 226.746 229.76 225.75C231.9 221.75 232.64 217.29 233.36 213.14L233.42 212.74L233.75 212.96C237.145 215.31 240.892 217.105 244.85 218.28C246.698 218.808 248.6 219.123 250.52 219.22C252.344 219.28 254.169 219.109 255.95 218.71C259.212 217.975 262.315 216.657 265.11 214.82C267.55 213.31 269.67 211.336 271.35 209.01C272.69 207.103 273.728 205.002 274.43 202.78C274.972 201.124 275.42 199.437 275.77 197.73C276.08 196.34 276.29 195.26 276.44 194.53L276.61 193.71C276.634 193.623 276.668 193.539 276.71 193.46Z" fill="#EC9292"/>
<path d="M281.77 161.89C281.998 161.883 282.226 161.903 282.45 161.95C282.67 161.95 282.95 162 283.27 162.06L284.38 162.33C286.713 163.001 288.874 164.164 290.72 165.74C293.466 168.07 295.677 170.966 297.2 174.23C298.101 176.157 298.815 178.166 299.33 180.23C299.613 181.328 299.764 182.456 299.78 183.59C299.741 184.745 299.637 185.897 299.47 187.04C299.169 189.317 298.44 191.515 297.32 193.52C296.229 195.362 294.78 196.966 293.06 198.24C290.197 200.42 286.936 202.02 283.46 202.95C281.114 203.515 278.701 203.754 276.29 203.66C275.44 203.66 274.78 203.58 274.29 203.54C274.064 203.531 273.839 203.497 273.62 203.44C273.846 203.416 274.074 203.416 274.3 203.44C274.75 203.44 275.4 203.44 276.3 203.44C282.273 203.54 288.095 201.56 292.77 197.84C294.424 196.597 295.817 195.041 296.87 193.26C297.947 191.308 298.649 189.171 298.94 186.96C299.94 182.39 298.34 178.08 296.75 174.47C295.274 171.257 293.138 168.392 290.48 166.06C288.687 164.49 286.595 163.3 284.33 162.56L283.25 162.25L282.44 162.08C282.211 162.039 281.987 161.975 281.77 161.89V161.89Z" fill="#EC9292"/>
<path d="M316.64 177.63C316.901 178.002 317.106 178.409 317.25 178.84C317.688 180 317.941 181.222 318 182.46C318.096 184.308 317.81 186.157 317.16 187.89C316.395 190.039 315.053 191.935 313.28 193.37C312.358 194.094 311.35 194.701 310.28 195.18C309.292 195.649 308.246 195.985 307.17 196.18C305.341 196.534 303.449 196.382 301.7 195.74C300.537 195.293 299.479 194.613 298.59 193.74C298.349 193.507 298.125 193.256 297.92 192.99C297.839 192.904 297.772 192.806 297.72 192.7C298.077 192.965 298.412 193.259 298.72 193.58C299.633 194.369 300.684 194.982 301.82 195.39C303.509 195.953 305.317 196.06 307.06 195.7C308.1 195.5 309.108 195.164 310.06 194.7C311.088 194.237 312.056 193.65 312.94 192.95C314.635 191.571 315.933 189.766 316.7 187.72C317.346 186.054 317.655 184.276 317.61 182.49C317.538 180.83 317.21 179.191 316.64 177.63Z" fill="#EC9292"/>
<path d="M297.72 134.37C297.088 134.218 296.447 134.111 295.8 134.05C295.01 134.008 294.218 134.059 293.44 134.2C292.376 134.429 291.35 134.806 290.39 135.32C287.734 136.77 285.597 139.015 284.28 141.74C282.62 144.88 281.68 148.88 280.82 153.32L280.74 153.75L280.51 153.38C278.309 149.947 275.288 147.115 271.72 145.14C267.642 142.819 262.954 141.794 258.28 142.2C253.078 142.685 248.169 144.831 244.28 148.32C242.179 150.127 240.476 152.35 239.28 154.85C237.982 157.406 237.676 160.352 238.42 163.12L238.9 164.67L237.96 163.35C235.866 160.528 233.124 158.251 229.965 156.713C226.806 155.174 223.323 154.419 219.81 154.51C218.999 154.54 218.191 154.62 217.39 154.75C215.772 154.993 214.193 155.444 212.69 156.09C211.176 156.769 209.747 157.621 208.43 158.63C207.123 159.679 205.933 160.866 204.88 162.17C202.984 164.568 201.565 167.307 200.7 170.24C199.885 173.112 199.661 176.119 200.04 179.08L200.1 179.51L199.69 179.37C196.393 178.19 192.868 177.786 189.39 178.19C186.032 178.618 182.927 180.202 180.61 182.67C179.528 183.871 178.697 185.276 178.165 186.803C177.632 188.329 177.41 189.947 177.51 191.56C177.653 194.694 178.888 197.68 181 200C182.988 202.216 185.593 203.786 188.48 204.51C191.223 205.14 194.053 205.302 196.85 204.99C199.48 204.789 202.052 204.112 204.44 202.99C206.65 201.946 208.494 200.259 209.73 198.15L209.86 197.92L210.04 198.12C211.796 200.042 214.077 201.408 216.6 202.05C218.84 202.638 221.197 202.607 223.42 201.96C225.345 201.395 227.075 200.308 228.42 198.82C229.546 197.556 230.409 196.08 230.96 194.48C231.756 192.275 231.905 189.887 231.39 187.6C231.179 186.812 230.911 186.04 230.59 185.29L230.87 185.85C231.136 186.4 231.344 186.977 231.49 187.57C232.063 189.886 231.948 192.318 231.16 194.57C230.609 196.2 229.743 197.705 228.61 199C227.237 200.541 225.465 201.673 223.49 202.27C221.211 202.946 218.792 202.991 216.49 202.4C213.899 201.751 211.553 200.361 209.74 198.4H210.04C208.771 200.576 206.875 202.319 204.6 203.4C202.175 204.572 199.554 205.287 196.87 205.51C194.02 205.834 191.137 205.675 188.34 205.04C185.363 204.299 182.676 202.687 180.62 200.41C178.436 198.016 177.156 194.936 177 191.7C176.895 190.021 177.125 188.338 177.676 186.748C178.227 185.158 179.088 183.694 180.21 182.44C182.612 179.881 185.829 178.237 189.31 177.79C192.868 177.367 196.476 177.774 199.85 178.98L199.49 179.28C199.102 176.242 199.334 173.156 200.17 170.21C201.05 167.206 202.503 164.401 204.45 161.95C205.527 160.611 206.748 159.394 208.09 158.32C209.44 157.282 210.906 156.406 212.46 155.71C214.008 155.045 215.634 154.581 217.3 154.33C218.121 154.2 218.949 154.12 219.78 154.09C220.604 154.068 221.429 154.092 222.25 154.16C225.429 154.403 228.516 155.333 231.3 156.887C234.083 158.441 236.496 160.582 238.37 163.16L237.91 163.38C237.135 160.491 237.455 157.417 238.81 154.75C240.052 152.164 241.82 149.865 244 148C247.974 144.454 252.985 142.283 258.29 141.81C263.049 141.395 267.821 142.442 271.97 144.81C275.584 146.83 278.637 149.721 280.85 153.22L280.54 153.27C281.41 148.83 282.38 144.8 284.09 141.63C285.454 138.878 287.642 136.62 290.35 135.17C291.328 134.659 292.376 134.295 293.46 134.09C294.251 133.947 295.058 133.906 295.86 133.97C296.347 134.014 296.83 134.105 297.3 134.24C297.57 134.31 297.72 134.37 297.72 134.37Z" fill="#EC9292"/>
<path d="M275 177.08C275.004 177.634 274.95 178.187 274.84 178.73C274.636 180.232 274.319 181.716 273.89 183.17C273.294 185.375 272.104 187.375 270.45 188.95C268.252 190.684 265.59 191.728 262.8 191.95C260.028 192.318 257.208 191.927 254.64 190.82C252.553 189.887 250.763 188.396 249.47 186.51C248.593 185.256 247.99 183.832 247.7 182.33C247.617 181.925 247.57 181.513 247.56 181.1C247.533 180.955 247.533 180.805 247.56 180.66C247.56 180.66 247.64 181.25 247.88 182.28C248.251 183.719 248.889 185.076 249.76 186.28C251.054 188.063 252.801 189.469 254.82 190.35C257.319 191.375 260.045 191.72 262.72 191.35C265.405 191.123 267.967 190.127 270.1 188.48C271.704 186.969 272.881 185.062 273.51 182.95C273.963 181.523 274.33 180.071 274.61 178.6C274.707 178.085 274.837 177.578 275 177.08V177.08Z" fill="#EC9292"/>
<path d="M267.94 124C267.558 124.211 267.16 124.392 266.75 124.54C265.97 124.87 264.84 125.36 263.45 126.04C261.766 126.782 260.191 127.751 258.77 128.92C257.947 129.644 257.33 130.572 256.98 131.61C256.777 132.162 256.691 132.749 256.725 133.336C256.759 133.922 256.914 134.496 257.18 135.02L256.75 135.3C255.06 132.95 252.15 131.3 248.96 130.45C245.6 129.477 242.106 129.045 238.61 129.17C235.764 129.376 233.023 130.336 230.67 131.95C229.075 133.045 227.673 134.396 226.52 135.95C225.71 137.05 225.35 137.72 225.3 137.69C225.364 137.518 225.441 137.351 225.53 137.19C225.771 136.718 226.045 136.263 226.35 135.83C227.731 133.811 229.544 132.125 231.658 130.893C233.771 129.662 236.133 128.916 238.57 128.71C240.285 128.587 242.008 128.648 243.71 128.89C245.534 129.117 247.339 129.478 249.11 129.97C252.36 130.87 255.4 132.55 257.17 135.03L256.74 135.31C256.444 134.724 256.273 134.083 256.237 133.427C256.2 132.771 256.3 132.115 256.53 131.5C256.925 130.386 257.616 129.4 258.53 128.65C259.993 127.471 261.62 126.511 263.36 125.8C264.78 125.15 265.94 124.7 266.74 124.42C267.128 124.247 267.529 124.106 267.94 124Z" fill="#EC9292"/>
<path d="M177.62 163.92C177.076 163.293 176.627 162.589 176.29 161.83C175.481 160.041 175.093 158.091 175.156 156.128C175.218 154.166 175.729 152.244 176.65 150.51C177.556 148.875 178.864 147.499 180.45 146.51C182.229 145.396 184.264 144.756 186.36 144.65C188.644 144.511 190.918 145.057 192.89 146.22L192.53 146.6C191.359 144.85 190.628 142.843 190.4 140.75C189.832 135.656 191.199 130.534 194.23 126.4C196.661 123.007 200.196 120.564 204.23 119.49C206.923 118.755 209.755 118.686 212.48 119.29C213.216 119.448 213.939 119.665 214.64 119.94C214.887 120.027 215.125 120.137 215.35 120.27C215.35 120.33 214.35 119.87 212.44 119.5C209.095 118.873 205.641 119.218 202.486 120.494C199.331 121.77 196.608 123.924 194.64 126.7C191.714 130.746 190.398 135.737 190.95 140.7C191.157 142.706 191.843 144.634 192.95 146.32L193.64 147.32L192.64 146.69C190.758 145.581 188.591 145.053 186.41 145.17C184.395 145.261 182.437 145.863 180.72 146.92C179.186 147.874 177.92 149.202 177.04 150.78C176.283 152.148 175.795 153.649 175.6 155.2C175.307 157.442 175.611 159.722 176.48 161.81C177.1 163.2 177.67 163.89 177.62 163.92Z" fill="#EC9292"/>
<path d="M127.49 176.94C127.49 176.94 127.59 176.94 127.79 176.94C128.085 176.981 128.372 177.068 128.64 177.2C129.649 177.663 130.484 178.438 131.02 179.41C131.437 180.121 131.71 180.908 131.821 181.725C131.933 182.542 131.882 183.373 131.67 184.17C131.118 186.114 129.891 187.798 128.21 188.92C126.536 190.005 124.626 190.674 122.64 190.87C121.046 191.07 119.434 191.07 117.84 190.87C116.754 190.728 115.711 190.357 114.78 189.78C114.435 189.576 114.133 189.308 113.89 188.99C115.074 189.821 116.451 190.334 117.89 190.48C119.453 190.622 121.027 190.578 122.58 190.35C124.475 190.135 126.294 189.488 127.9 188.46C129.479 187.406 130.642 185.837 131.19 184.02C131.598 182.53 131.415 180.939 130.68 179.58C130.205 178.648 129.464 177.879 128.55 177.37C127.9 177.06 127.47 177 127.49 176.94Z" fill="#EC9292"/>
<path d="M166.2 252.32C165.907 252.174 165.637 251.985 165.4 251.76C164.724 251.169 164.123 250.497 163.61 249.76C161.887 247.369 160.815 244.571 160.5 241.64C160.308 240.032 160.355 238.404 160.64 236.81C160.88 235.514 161.283 234.254 161.84 233.06C162.242 231.907 162.93 230.874 163.84 230.06C163.683 230.34 163.509 230.611 163.32 230.87C162.877 231.614 162.496 232.393 162.18 233.2C161.681 234.384 161.322 235.623 161.11 236.89C160.868 238.439 160.837 240.013 161.02 241.57C161.327 244.428 162.315 247.172 163.9 249.57C164.599 250.541 165.368 251.46 166.2 252.32V252.32Z" fill="#EC9292"/>
<path d="M201.93 239.55C202.283 240.165 202.508 240.846 202.59 241.55C202.873 243.277 202.777 245.044 202.31 246.73C201.847 248.417 201.017 249.981 199.88 251.31C199.445 251.889 198.888 252.367 198.25 252.71C198.19 252.64 198.8 252.1 199.58 251.07C200.587 249.727 201.333 248.208 201.78 246.59C202.223 244.963 202.369 243.269 202.21 241.59C202.081 240.915 201.987 240.234 201.93 239.55Z" fill="#EC9292"/>
<path d="M241.07 227.38C241.259 227.691 241.401 228.028 241.49 228.38C241.808 229.285 242.052 230.215 242.22 231.16C242.78 234.292 242.637 237.51 241.8 240.58C240.951 243.65 239.412 246.485 237.3 248.87C236.665 249.592 235.973 250.261 235.23 250.87C234.975 251.116 234.681 251.319 234.36 251.47C234.3 251.39 235.48 250.47 237 248.63C238.98 246.232 240.435 243.445 241.27 240.45C242.086 237.448 242.28 234.31 241.84 231.23C241.5 228.81 241 227.41 241.07 227.38Z" fill="#EC9292"/>
<path d="M285.54 213C285.54 213 285.74 213.23 286.01 213.71C286.391 214.376 286.725 215.067 287.01 215.78C289.024 220.507 289.682 225.701 288.91 230.78C288.798 231.545 288.641 232.303 288.44 233.05C288.391 233.332 288.293 233.602 288.15 233.85C288.06 233.85 288.32 232.65 288.53 230.73C289.074 225.743 288.44 220.698 286.68 216C286 214.15 285.46 213.07 285.54 213Z" fill="#EC9292"/>
<path d="M217.87 99C216.051 97.3648 213.968 96.0496 211.71 95.11C209.513 93.9465 207.153 93.1206 204.71 92.66C198.14 91.66 191.8 95.31 187.41 99.57C183.02 103.83 179.71 108.91 174.58 112.57L187.84 112.35C191.84 112.28 195.93 112.2 199.57 110.83C204.21 109.1 207.74 104.83 212.78 104.35C215.551 104.269 218.319 104.606 220.99 105.35C220.674 102.949 219.578 100.718 217.87 99V99ZM204.45 104.23C204.095 104.441 203.681 104.532 203.27 104.49C202.938 104.448 202.602 104.448 202.27 104.49C201.47 104.65 201.06 105.55 200.39 106.01C200.118 106.206 199.795 106.32 199.46 106.338C199.125 106.355 198.791 106.276 198.5 106.11C198.213 105.925 197.996 105.649 197.883 105.327C197.771 105.004 197.77 104.653 197.88 104.33C198.013 104.049 198.2 103.798 198.43 103.59C199.005 103.042 199.686 102.617 200.43 102.34C200.871 101.989 201.397 101.758 201.954 101.67C202.511 101.582 203.082 101.641 203.61 101.84C204.29 102.04 205.03 102.49 205.07 103.22C205.051 103.419 204.985 103.611 204.877 103.78C204.769 103.949 204.623 104.089 204.45 104.19V104.23Z" fill="#445A64"/>
<path d="M190.59 104.45C190.59 104.45 190.88 104.29 191.41 103.95C191.94 103.61 192.68 103.06 193.6 102.31C194.52 101.56 195.6 100.57 196.94 99.51C198.502 98.3321 200.283 97.4787 202.18 97C203.282 96.7244 204.415 96.5933 205.55 96.61C206.775 96.6491 207.993 96.8235 209.18 97.13C211.801 97.814 214.271 98.9843 216.46 100.58C218.887 102.332 220.957 104.532 222.56 107.06C224.292 109.745 225.685 112.634 226.71 115.66C228.88 121.85 229.91 128.01 231.11 133.51C232.31 139.01 233.28 144.01 234.11 148.2C234.94 152.39 235.64 155.72 236.11 158.11C236.33 159.25 236.5 160.11 236.63 160.81C236.63 161.09 236.72 161.32 236.75 161.52C236.757 161.6 236.757 161.68 236.75 161.76C236.711 161.688 236.684 161.611 236.67 161.53L236.49 160.83L235.87 158.15C235.35 155.77 234.61 152.41 233.7 148.28C232.79 144.15 231.7 139.13 230.54 133.62C229.38 128.11 228.27 121.97 226.12 115.84C223.97 109.71 220.7 104.23 216.12 100.99C213.987 99.4183 211.579 98.2584 209.02 97.57C206.803 96.9292 204.46 96.8604 202.21 97.37C200.36 97.8118 198.614 98.61 197.07 99.72C195.73 100.72 194.64 101.72 193.68 102.44C192.959 103.01 192.201 103.531 191.41 104C191.205 104.125 190.991 104.236 190.77 104.33L190.59 104.45Z" fill="#263238"/>
<path d="M250.07 118.37C249.627 119.554 249.443 120.819 249.531 122.08C249.619 123.342 249.977 124.569 250.58 125.68C251.88 127.75 254.21 128.82 256.35 129.94C259.66 131.656 262.797 133.685 265.72 136C266.35 134.66 265.87 133.06 265.34 131.67C264.88 130.46 264.4 129.26 263.89 128.07C262.6 125.07 261.07 122.01 258.54 119.98C256.01 117.95 252.74 116.53 250.07 118.37" fill="#417A95"/>
<path d="M257.63 124.49C257.63 124.49 257.27 124.03 256.63 123.23C255.696 122.108 254.632 121.101 253.46 120.23C251.729 118.937 249.706 118.088 247.57 117.76C244.963 117.357 242.298 117.922 240.08 119.35C237.954 120.921 236.267 123.011 235.18 125.42C234.211 127.36 233.379 129.364 232.69 131.42C232.214 132.805 231.902 134.242 231.76 135.7C231.67 136.7 231.7 137.31 231.65 137.31C231.603 137.175 231.58 137.033 231.58 136.89C231.551 136.487 231.551 136.083 231.58 135.68C231.644 134.193 231.903 132.72 232.35 131.3C232.999 129.199 233.804 127.15 234.76 125.17C235.849 122.67 237.573 120.498 239.76 118.87C242.086 117.36 244.895 116.778 247.63 117.24C249.822 117.602 251.886 118.514 253.63 119.89C254.805 120.806 255.848 121.879 256.73 123.08C256.972 123.4 257.196 123.734 257.4 124.08C257.58 124.35 257.65 124.48 257.63 124.49Z" fill="#263238"/>
<path d="M173.35 169.7C172.827 169.212 172.2 168.848 171.516 168.636C170.832 168.425 170.11 168.37 169.402 168.477C168.694 168.583 168.02 168.849 167.429 169.253C166.838 169.657 166.346 170.189 165.99 170.81C165.539 171.842 165.275 172.946 165.21 174.07C165.055 174.899 165.055 175.751 165.21 176.58C165.356 176.982 165.476 177.393 165.57 177.81C165.605 178.324 165.541 178.84 165.38 179.33C165.111 180.13 164.963 180.966 164.94 181.81C164.932 182.232 165.031 182.649 165.229 183.022C165.426 183.394 165.716 183.71 166.07 183.94C166.39 184.043 166.686 184.209 166.94 184.43C167.131 184.727 167.219 185.078 167.19 185.43C167.19 186.79 167.26 188.15 167.29 189.51C168.224 188.828 168.948 187.897 169.381 186.825C169.814 185.752 169.939 184.58 169.74 183.44C169.55 182.756 169.423 182.057 169.36 181.35C169.36 179.8 170.57 178.42 170.44 176.87C170.31 175.32 169.1 174.31 168.81 172.87C168.706 172.326 168.743 171.765 168.918 171.239C169.093 170.714 169.4 170.242 169.81 169.87C170.237 169.513 170.755 169.282 171.306 169.202C171.857 169.123 172.419 169.198 172.93 169.42" fill="#2C2C2C"/>
<path d="M228.6 125.36C228.058 124.606 227.329 124.005 226.485 123.618C225.64 123.231 224.71 123.07 223.784 123.152C222.859 123.234 221.971 123.555 221.207 124.084C220.444 124.613 219.831 125.332 219.43 126.17C219.085 127.174 218.603 128.126 218 129C216.71 130.42 214.3 130.19 213 131.59C212.567 132.091 212.259 132.687 212.1 133.33C211.767 134.488 211.677 135.702 211.836 136.896C211.994 138.09 212.397 139.239 213.02 140.27C213.93 141.74 215.31 142.98 215.71 144.68C216.22 146.88 215.01 149.54 216.41 151.28C218.041 149.589 219.171 147.479 219.676 145.184C220.181 142.889 220.04 140.5 219.27 138.28C219.016 137.738 218.88 137.148 218.87 136.55C219.05 134.55 222.06 134.41 223.29 132.82C224.19 131.66 223.95 130 224 128.52C224.05 127.04 224.86 125.24 226.31 125.32C227.31 125.32 228.41 126.22 229.05 125.48" fill="#263D49"/>
<path d="M252.59 171.68C252.15 172.42 251.71 173.4 252.23 174.09C252.46 174.4 252.83 174.57 253.08 174.86C253.65 175.56 253.3 176.6 253 177.45C252.7 178.3 252.61 179.45 253.39 179.9C253.86 180.14 254.39 179.98 254.93 180.05C255.381 180.149 255.795 180.375 256.123 180.701C256.451 181.027 256.679 181.439 256.78 181.89C256.977 182.801 257.004 183.74 256.86 184.66C258.35 183.9 258.77 181.94 258.86 180.24C258.989 179.412 258.784 178.567 258.29 177.89C258.05 177.64 257.75 177.48 257.53 177.21C256.98 176.53 257.24 175.53 257.46 174.68C257.68 173.83 257.74 172.68 257.01 172.26C256.52 171.96 255.79 172.05 255.46 171.58C254.98 170.9 256.01 169.95 255.26 169.58" fill="#497286"/>
<path d="M285.69 179.18C284.734 176.367 283.082 173.841 280.888 171.837C278.694 169.833 276.029 168.417 273.14 167.72C270.76 167.19 268.14 167.24 266.09 168.64L265.62 168.82C265.29 171.94 265.03 175.35 266.75 177.94C269.48 182.06 275.75 182.04 278.87 185.89C281.14 188.72 281.03 192.89 282.65 196.12C284.511 193.764 285.762 190.986 286.292 188.031C286.823 185.076 286.616 182.036 285.69 179.18V179.18ZM272 176.18C271.875 176.609 271.611 176.984 271.248 177.245C270.886 177.506 270.446 177.638 270 177.62C269.559 177.576 269.138 177.411 268.785 177.143C268.432 176.874 268.16 176.513 268 176.1C267.84 175.677 267.771 175.224 267.799 174.773C267.827 174.321 267.95 173.881 268.16 173.48L268.26 173.67C268.664 173.422 269.13 173.295 269.604 173.305C270.078 173.314 270.539 173.46 270.933 173.725C271.326 173.99 271.635 174.362 271.822 174.797C272.01 175.232 272.068 175.712 271.99 176.18H272Z" fill="#497B92"/>
<path d="M279.71 180.54C279.571 180.401 279.453 180.243 279.36 180.07L278.44 178.65C277.335 176.912 276.069 175.282 274.66 173.78C272.446 171.687 269.816 170.086 266.94 169.08C265.271 168.435 263.508 168.07 261.72 168C259.811 167.953 257.924 168.412 256.25 169.33C252.78 171.25 250.44 174.39 248.56 177.24C246.888 179.801 245.452 182.509 244.27 185.33C243.492 187.237 242.824 189.187 242.27 191.17C241.86 192.58 241.68 193.37 241.63 193.36C241.631 193.161 241.658 192.962 241.71 192.77C241.77 192.39 241.89 191.83 242.06 191.12C242.557 189.102 243.192 187.121 243.96 185.19C245.096 182.321 246.506 179.568 248.17 176.97C250.06 174.08 252.42 170.85 256.03 168.85C257.786 167.887 259.768 167.411 261.77 167.47C263.615 167.544 265.434 167.929 267.15 168.61C270.082 169.662 272.752 171.333 274.98 173.51C276.377 175.044 277.61 176.72 278.66 178.51C279.03 179.14 279.31 179.64 279.49 179.98C279.591 180.154 279.665 180.343 279.71 180.54V180.54Z" fill="#263238"/>
<path d="M202.86 202.73C202.94 202.79 203.02 202.86 203.1 202.91L203.38 202.83L202.86 202.73Z" fill="#455A64"/>
<path d="M208.4 226.74C208.26 225.07 207.92 223.42 207.86 221.74C207.74 218.43 208.72 215.13 208.39 211.84C208.204 210.058 207.636 208.337 206.723 206.796C205.809 205.254 204.574 203.929 203.1 202.91C200.823 203.617 198.725 204.804 196.946 206.391C195.168 207.978 193.75 209.928 192.79 212.11C191.822 214.376 191.347 216.823 191.399 219.287C191.451 221.751 192.027 224.176 193.09 226.4C194.09 228.4 195.43 230.24 195.6 232.4C195.77 234.56 194.69 236.64 194.34 238.8C193.63 243.2 195.92 247.46 198.13 251.3C198.005 250.241 198.098 249.167 198.404 248.146C198.711 247.124 199.223 246.176 199.91 245.36C201.18 243.67 202.8 242.28 204.15 240.66C207.295 236.735 208.816 231.753 208.4 226.74V226.74ZM204.4 220.69C204.169 221.058 203.845 221.358 203.46 221.56C203.27 221.658 203.057 221.703 202.844 221.689C202.631 221.675 202.425 221.603 202.25 221.48C202.032 221.27 201.865 221.014 201.76 220.73C201.559 220.304 201.382 219.866 201.23 219.42C200.947 218.474 200.898 217.474 201.088 216.505C201.278 215.537 201.701 214.629 202.32 213.86V213.8C202.687 213.781 203.053 213.849 203.388 213.999C203.724 214.148 204.019 214.375 204.25 214.66C204.978 215.49 205.38 216.556 205.38 217.66C205.376 218.747 205.033 219.806 204.4 220.69V220.69Z" fill="#455156"/>
<path d="M198.25 219.44C198.224 219.234 198.224 219.026 198.25 218.82C198.25 218.41 198.37 217.82 198.47 217.05C198.771 214.882 199.188 212.733 199.72 210.61C200.479 207.436 201.692 204.388 203.32 201.56C205.296 198.031 208.256 195.154 211.84 193.28C213.645 192.362 215.621 191.831 217.643 191.723C219.665 191.614 221.687 191.93 223.58 192.65C226.587 194.039 229.068 196.356 230.66 199.26C231.753 201.16 232.69 203.147 233.46 205.2C233.73 205.92 233.94 206.49 234.07 206.87C234.151 207.062 234.208 207.264 234.24 207.47C234.125 207.297 234.034 207.108 233.97 206.91C233.78 206.49 233.55 205.91 233.26 205.28C232.428 203.271 231.448 201.325 230.33 199.46C228.746 196.666 226.316 194.446 223.39 193.12C221.561 192.438 219.61 192.144 217.662 192.256C215.713 192.368 213.809 192.884 212.07 193.77C208.592 195.591 205.706 198.366 203.75 201.77C202.127 204.555 200.896 207.549 200.09 210.67C199.37 213.32 198.97 215.53 198.68 217.04C198.55 217.76 198.45 218.34 198.36 218.79C198.346 219.01 198.309 219.228 198.25 219.44V219.44Z" fill="#263238"/>
<path d="M149.54 156.06C146.378 156.786 143.429 158.237 140.924 160.299C138.42 162.361 136.43 164.977 135.11 167.94C133.814 170.959 133.219 174.233 133.37 177.515C133.521 180.797 134.413 184.002 135.98 186.89C137.69 184.44 138.58 181.51 139.98 178.89C141.38 176.27 143.45 173.67 146.33 173.06C148.74 172.56 151.11 172.55 153.5 171.97C156.102 171.359 158.39 169.815 159.93 167.63C161.64 165.34 163.88 164.07 165.59 161.79C162.19 156.66 155.41 154.81 149.54 156.06ZM142.39 170.06C142.29 170.293 142.131 170.496 141.93 170.65C141.703 170.79 141.435 170.847 141.171 170.812C140.907 170.778 140.663 170.653 140.48 170.46C140.301 170.255 140.179 170.007 140.126 169.74C140.074 169.473 140.092 169.197 140.18 168.94C140.31 168.53 140.67 168.15 141.08 168.23L140.93 168.48C141.011 168.368 141.117 168.278 141.239 168.215C141.362 168.152 141.497 168.12 141.635 168.12C141.773 168.12 141.908 168.152 142.031 168.215C142.153 168.278 142.259 168.368 142.34 168.48C142.487 168.715 142.57 168.986 142.578 169.263C142.587 169.541 142.522 169.816 142.39 170.06V170.06ZM154.6 167.59C153.861 168.506 152.811 169.119 151.65 169.31C150.507 169.482 149.343 169.455 148.21 169.23C147.684 169.182 147.182 168.988 146.76 168.67C146.514 168.436 146.346 168.132 146.278 167.8C146.21 167.467 146.246 167.122 146.38 166.81C146.428 166.696 146.508 166.599 146.61 166.53C146.738 166.461 146.886 166.436 147.03 166.46C147.951 166.608 148.894 166.49 149.75 166.12C150.364 165.649 150.885 165.069 151.29 164.41C151.622 163.95 152.086 163.601 152.62 163.41C152.554 163.423 152.486 163.423 152.42 163.41H152.86C152.956 163.395 153.054 163.395 153.15 163.41C153.311 163.366 153.474 163.336 153.64 163.32C153.941 163.34 154.23 163.444 154.474 163.621C154.718 163.798 154.908 164.04 155.02 164.32C155.239 164.855 155.315 165.437 155.242 166.01C155.168 166.584 154.947 167.128 154.6 167.59Z" fill="#333333"/>
<path d="M145 164.31C145.102 164.183 145.22 164.069 145.35 163.97C145.698 163.658 146.061 163.364 146.44 163.09C147.854 162.095 149.403 161.308 151.04 160.75C153.478 159.915 156.059 159.575 158.63 159.75C161.795 159.915 164.867 160.878 167.56 162.55C170.206 164.274 172.458 166.536 174.17 169.19C175.556 171.34 176.728 173.621 177.67 176C178.47 178 179.02 179.7 179.36 180.86C179.54 181.44 179.66 181.86 179.74 182.21C179.79 182.366 179.824 182.527 179.84 182.69C179.572 182.12 179.344 181.532 179.16 180.93C178.76 179.79 178.16 178.14 177.31 176.15C176.336 173.816 175.144 171.58 173.75 169.47C172.06 166.891 169.854 164.692 167.27 163.01C164.652 161.388 161.674 160.44 158.6 160.25C156.086 160.071 153.561 160.373 151.16 161.14C148.961 161.885 146.885 162.954 145 164.31Z" fill="#263238"/>
<path d="M300.91 142.08C302.346 142.985 303.946 143.599 305.619 143.885C307.292 144.172 309.005 144.126 310.66 143.75C313.42 143.11 316.11 141.53 318.9 142.02C321.06 142.39 322.9 143.97 325.11 144.02C328.11 144.13 330.58 141.44 333.57 141.13C335.57 140.91 337.57 141.84 339.42 142.74C339.95 140.56 338.36 138.5 336.89 136.84C333.89 133.51 330.66 130 326.36 128.98C321.62 127.86 316.75 129.98 311.88 129.98C310.742 129.9 309.599 129.94 308.47 130.1C306.6 130.51 305.08 131.88 303.67 133.2C302.328 134.239 301.292 135.621 300.67 137.2C300.23 138.7 300.55 140.33 300.16 141.84" fill="#417993"/>
<path d="M329.37 136.43C329.37 136.43 328.6 136.19 327.21 135.84C325.248 135.335 323.235 135.053 321.21 135C318.202 134.914 315.199 135.282 312.3 136.09C308.74 137.064 305.363 138.611 302.3 140.67C296.78 144.493 292.065 149.361 288.42 155C287.254 156.665 286.294 158.465 285.56 160.36C285.07 161.71 284.95 162.5 284.9 162.49C284.892 162.295 284.909 162.1 284.95 161.91C285.048 161.361 285.185 160.82 285.36 160.29C286.026 158.343 286.947 156.494 288.1 154.79C291.689 149.032 296.419 144.07 302 140.21C305.112 138.128 308.544 136.57 312.16 135.6C315.091 134.808 318.126 134.47 321.16 134.6C323.213 134.683 325.249 135.019 327.22 135.6C327.753 135.757 328.278 135.944 328.79 136.16C328.997 136.218 329.192 136.309 329.37 136.43V136.43Z" fill="#263238"/>
<path d="M408.7 375L413.59 393.33C413.59 393.33 396.59 404.45 397.17 407.92L433 399.72L426.57 370.85L408.7 375Z" fill="#FAD67C"/>
<path d="M424.32 389.23C424.689 389.257 425.036 389.418 425.294 389.684C425.552 389.949 425.704 390.3 425.72 390.67C425.707 391.041 425.553 391.392 425.289 391.653C425.025 391.913 424.671 392.063 424.3 392.07C423.908 392.04 423.541 391.867 423.269 391.582C422.998 391.298 422.841 390.923 422.83 390.53C422.885 390.146 423.086 389.798 423.392 389.559C423.698 389.321 424.084 389.21 424.47 389.25" fill="#E0E0E0"/>
<g opacity="0.6">
<path d="M433 399.72L432.24 396.84L398.13 405.77C398.13 405.77 396.69 406.83 397.13 407.91L433 399.72Z" fill="white"/>
</g>
<path d="M413 393.27C413.05 393.44 413.94 393.32 414.93 393.69C415.92 394.06 416.55 394.69 416.7 394.58C416.85 394.47 416.35 393.52 415.14 393.1C413.93 392.68 412.89 393.12 413 393.27Z" fill="#263238"/>
<path d="M409.55 395.68C409.55 395.86 410.38 395.99 411.14 396.59C411.9 397.19 412.26 397.94 412.43 397.9C412.6 397.86 412.49 396.83 411.52 396.1C410.55 395.37 409.52 395.52 409.55 395.68Z" fill="#263238"/>
<path d="M408.44 400.68C408.61 400.68 408.66 399.75 407.99 398.89C407.32 398.03 406.41 397.84 406.37 398C406.33 398.16 406.96 398.56 407.49 399.27C408.02 399.98 408.27 400.7 408.44 400.68Z" fill="#263238"/>
<path d="M412.31 389C412.42 389.14 413.17 388.72 414.18 388.56C415.19 388.4 416.03 388.56 416.08 388.36C416.13 388.16 415.25 387.74 414.08 387.94C412.91 388.14 412.2 388.85 412.31 389Z" fill="#263238"/>
<path d="M368.17 157.53L350.32 220.25L364.34 222.99L373.6 191.37L368.17 157.53Z" fill="#F5F5F5"/>
<path d="M368.17 157.53C368.48 159.4 370.47 171.29 373.82 191.33V191.43C371.14 200.61 367.99 211.43 364.6 223.06L364.53 223.3L364.29 223.25L358.29 222.08L350.29 220.52L350 220.46L350.08 220.18C355.13 202.43 359.72 186.68 362.99 175.46C366.13 164.64 367.82 158.82 368.19 157.53C367.82 158.84 366.19 164.78 363.09 175.81C359.94 187.12 355.61 202.73 350.61 220.33L350.4 219.99L358.4 221.55L364.4 222.72L364.09 222.91C367.51 211.29 370.69 200.47 373.38 191.31V191.41C370.29 171.32 368.46 159.41 368.17 157.53Z" fill="#E0E0E0"/>
<path d="M449.23 265.19C449.23 265.19 447.94 270.45 440.38 271.47C417.6 274.54 404.07 291.81 404.07 291.81L410 272.57L431.94 257.28L445.94 261.69L449.23 265.19Z" fill="#E0E0E0"/>
<path d="M418.84 310.5C415.04 295.3 412.32 287.14 412.32 287.14C412.32 287.14 412.75 222.4 412.32 217.02C411.27 204.02 403.95 189.12 403 187.22L366.88 195.69L369.2 213.69L378.29 292.83L409.55 383.39L431 380.06C431 380.06 422.64 325.7 418.84 310.5Z" fill="#263238"/>
<path d="M385 116L386.32 116.3L399.72 119.3C399.72 119.3 402.57 153.5 403.05 157.77C403.53 162.04 397.59 170.6 397.59 170.6C397.59 170.6 403.05 173.92 404.52 178.2C405.99 182.48 404.52 189.76 404.52 189.76L396.33 197C392.996 199.972 389.003 202.108 384.68 203.23L367.68 207.62C367.68 207.62 365.68 170.31 360.51 155.36C357.05 145.36 366.51 123.95 366.51 123.95L378.21 115.95" fill="#FAD67C"/>
<path d="M376.76 151C373.988 151.41 371.192 151.641 368.39 151.69C365.596 151.919 362.79 151.966 359.99 151.83C362.762 151.42 365.558 151.189 368.36 151.14C371.154 150.917 373.96 150.87 376.76 151Z" fill="white"/>
<path d="M379.22 170C376.788 170.514 374.321 170.848 371.84 171C369.373 171.32 366.887 171.463 364.4 171.43C366.835 170.914 369.305 170.579 371.79 170.43C374.253 170.107 376.736 169.963 379.22 170V170Z" fill="white"/>
<path d="M382.41 191.14C381.762 191.58 381.051 191.917 380.3 192.14C376.752 193.437 372.964 193.946 369.2 193.63C368.416 193.616 367.64 193.478 366.9 193.22C369.523 193.3 372.149 193.21 374.76 192.95C379.07 192.39 382.35 191 382.41 191.14Z" fill="white"/>
<path d="M363.08 105C360.8 103.94 359.37 101.6 358.53 99.23C357.69 96.86 357.3 94.33 356.37 92C355.67 90.25 356.44 87.48 354.87 86.44C352.87 85.14 352.93 81.7 353.69 79.99C354.51 78.12 356.75 76.73 356.9 76.13C357.3 74.58 355.9 72.9 356.44 71.37C357.62 67.79 360.54 68.26 360.54 68.26C361.87 66.65 363.67 64.52 366.54 63.76C369.71 62.95 374.37 62.34 377.19 64C380.01 65.66 382.08 66.76 382.99 69.9" fill="#263238"/>
<path d="M387.44 74.29C388.241 74.3774 388.98 74.7616 389.511 75.3669C390.042 75.9723 390.327 76.7548 390.31 77.56V77.56L388.39 121C388.31 126.13 380.82 129 375.33 128.88C369.78 128.75 369.61 126.03 369.54 121.16C369.42 113.01 369.43 109.95 369.43 110C369.43 110.05 362.43 108.82 361 99.68C360.29 95.13 360.53 87.68 360.93 81.59C361.28 76.11 364.93 69.39 370.39 69.98L387.44 74.29Z" fill="#D38D6E"/>
<path d="M362.71 87.79C362.702 88.0996 362.816 88.4001 363.027 88.6264C363.239 88.8528 363.531 88.987 363.84 89C364.133 89.0252 364.423 88.9345 364.65 88.7474C364.876 88.5604 365.02 88.292 365.05 88C365.053 87.6938 364.937 87.3985 364.726 87.1764C364.515 86.9544 364.226 86.823 363.92 86.81C363.631 86.7845 363.343 86.8725 363.117 87.0553C362.891 87.2382 362.745 87.5016 362.71 87.79V87.79Z" fill="#263238"/>
<path d="M362.53 85.43C362.68 85.59 363.53 84.93 364.83 84.94C366.13 84.95 367.01 85.58 367.15 85.42C367.29 85.26 367.07 85.08 366.67 84.78C366.125 84.4004 365.474 84.201 364.81 84.21C364.154 84.2069 363.514 84.4098 362.98 84.79C362.6 85.09 362.46 85.36 362.53 85.43Z" fill="#263238"/>
<path d="M374.9 87.79C374.892 88.0947 375.001 88.3909 375.206 88.6164C375.411 88.842 375.696 88.9795 376 89C376.293 89.0278 376.585 88.9381 376.812 88.7506C377.039 88.5631 377.182 88.2931 377.21 88C377.213 87.6938 377.097 87.3985 376.886 87.1764C376.675 86.9544 376.386 86.823 376.08 86.81C375.796 86.7926 375.515 86.8842 375.296 87.0663C375.077 87.2484 374.935 87.5072 374.9 87.79V87.79Z" fill="#263238"/>
<path d="M374.93 85.69C375.07 85.85 375.93 85.19 377.22 85.2C378.51 85.21 379.41 85.84 379.55 85.68C379.69 85.52 379.47 85.34 379.06 85.05C378.52 84.667 377.872 84.464 377.21 84.47C376.554 84.4648 375.913 84.6679 375.38 85.05C375 85.35 374.86 85.63 374.93 85.69Z" fill="#263238"/>
<path d="M370.33 95C369.666 94.7838 368.977 94.656 368.28 94.62C367.96 94.62 367.66 94.52 367.6 94.3C367.565 93.9518 367.642 93.6016 367.82 93.3C368.13 92.52 368.44 91.71 368.82 90.85C369.707 88.7743 370.426 86.6307 370.97 84.44C369.92 86.4395 369.03 88.5194 368.31 90.66C367.99 91.52 367.68 92.34 367.39 93.13C367.19 93.5178 367.129 93.963 367.22 94.39C367.266 94.5042 367.337 94.6061 367.429 94.6877C367.521 94.7693 367.631 94.8283 367.75 94.86C367.93 94.9076 368.114 94.9345 368.3 94.94C368.972 95.0415 369.653 95.0617 370.33 95V95Z" fill="#263238"/>
<path d="M369.43 110C373.731 110.075 377.969 108.953 381.67 106.76C381.67 106.76 378.57 113.2 369.43 112.33V110Z" fill="#B26746"/>
<path d="M370.86 98.08C371.096 97.7835 371.403 97.5511 371.753 97.4044C372.102 97.2576 372.483 97.201 372.86 97.24C373.138 97.2653 373.408 97.3466 373.654 97.4789C373.899 97.6112 374.116 97.7919 374.29 98.01C374.458 98.2199 374.558 98.477 374.574 98.7457C374.59 99.0144 374.522 99.2814 374.38 99.51C374.178 99.7367 373.913 99.8979 373.619 99.9727C373.325 100.048 373.016 100.033 372.73 99.93C372.133 99.7058 371.586 99.366 371.12 98.93C370.981 98.8272 370.859 98.7022 370.76 98.56C370.716 98.4897 370.692 98.4082 370.692 98.325C370.692 98.2418 370.716 98.1603 370.76 98.09" fill="#B26746"/>
<path d="M374 95.92C373.8 95.92 373.79 97.27 372.62 98.24C371.45 99.21 369.99 99.06 369.98 99.24C369.97 99.42 370.3 99.5 370.92 99.52C371.72 99.5308 372.498 99.262 373.12 98.76C373.423 98.5152 373.674 98.2121 373.858 97.8685C374.042 97.525 374.155 97.148 374.19 96.76C374.29 96.25 374.13 95.91 374 95.92Z" fill="#263238"/>
<path d="M374.45 81.5C374.57 81.84 375.83 81.68 377.31 81.86C378.79 82.04 379.98 82.45 380.18 82.14C380.27 82 380.06 81.68 379.58 81.34C378.939 80.9252 378.209 80.6682 377.45 80.59C376.693 80.4956 375.925 80.5848 375.21 80.85C374.67 81.07 374.39 81.34 374.45 81.5Z" fill="#263238"/>
<path d="M362.28 82C362.5 82.29 363.37 82 364.42 82C365.47 82 366.35 82.2 366.55 81.9C366.64 81.76 366.5 81.47 366.12 81.2C365.603 80.8652 364.996 80.6976 364.38 80.72C363.766 80.7257 363.17 80.9291 362.68 81.3C362.31 81.56 362.19 81.85 362.28 82Z" fill="#263238"/>
<path d="M382.42 69.26C382.425 70.178 382.227 71.0857 381.841 71.9185C381.455 72.7513 380.89 73.4886 380.186 74.0778C379.482 74.6671 378.657 75.0938 377.769 75.3275C376.881 75.5613 375.953 75.5962 375.05 75.43C373.65 75.18 372.12 74.43 370.91 75.22C369.7 76.01 369.59 77.91 368.46 78.89C366.85 80.29 364.29 78.98 362.25 79.59C360.67 80.05 359.68 81.59 358.63 82.83C357.58 84.07 356.01 85.31 354.43 84.83C354.473 83.4068 354.685 81.9936 355.06 80.62C355.435 79.2341 356.28 78.0216 357.45 77.19C358.1 76.76 358.86 76.5 359.45 76.01C360.76 74.95 361.06 73.11 361.87 71.63C362.404 70.6809 363.155 69.8722 364.063 69.2706C364.97 68.669 366.008 68.2918 367.09 68.17C368.89 67.99 370.74 68.53 372.49 68.08C373.79 67.76 374.92 66.92 376.23 66.67C378.79 66.18 381.16 68.02 383.02 69.84" fill="#263238"/>
<path d="M387.23 89.06C387.448 89.1461 387.63 89.3064 387.742 89.5127C387.854 89.719 387.89 89.9582 387.843 90.1883C387.797 90.4185 387.671 90.6249 387.487 90.7715C387.304 90.9181 387.075 90.9954 386.84 90.99C383.77 91.69 383.37 85.69 384.05 83.99C382.904 83.0358 381.88 81.9443 381 80.74C380.022 78.8189 379.538 76.6849 379.59 74.53C378.48 74.6 373.77 73.04 374.27 72.9C375.42 72.57 377.76 71.83 378.38 70.83C378.997 69.7618 379.885 68.8755 380.954 68.2609C382.024 67.6462 383.237 67.3251 384.47 67.33C385.713 67.43 386.891 67.9288 387.828 68.7523C388.765 69.5757 389.411 70.6798 389.67 71.9C391.164 71.9516 392.617 72.4063 393.874 73.2161C395.131 74.0259 396.145 75.1606 396.81 76.5C397.506 77.9071 397.846 79.4633 397.801 81.0324C397.755 82.6014 397.326 84.1354 396.55 85.5C396.056 86.145 395.736 86.9059 395.62 87.71C395.62 88.71 396.36 89.53 396.89 90.37C397.558 91.5797 397.927 92.9318 397.965 94.3133C398.004 95.6947 397.71 97.0652 397.11 98.31C395.99 100.81 395.2 101.68 393.61 102.19C390.49 103.19 394.11 109.58 388.92 109.58" fill="#263238"/>
<path d="M387.11 91.57C387.127 91.1214 387.258 90.6844 387.489 90.2995C387.72 89.9146 388.045 89.5941 388.432 89.3679C388.82 89.1416 389.259 89.0167 389.707 89.0049C390.156 88.993 390.601 89.0945 391 89.3C391.92 89.84 392.63 90.91 392.54 92.98C392.32 98.48 386.84 97.12 386.83 96.98C386.82 96.84 387 93.85 387.11 91.57Z" fill="#D38D6E"/>
<path d="M388.61 94.94C388.61 94.94 388.7 95.02 388.86 95.1C389.092 95.1894 389.348 95.1894 389.58 95.1C389.945 94.8906 390.247 94.5872 390.454 94.2213C390.662 93.8555 390.767 93.4406 390.76 93.02C390.795 92.5468 390.723 92.0717 390.55 91.63C390.506 91.4564 390.42 91.2962 390.3 91.1637C390.18 91.0311 390.029 90.9303 389.86 90.87C389.752 90.8343 389.635 90.8389 389.53 90.883C389.425 90.9272 389.34 91.0078 389.29 91.11C389.21 91.26 389.24 91.37 389.21 91.38C389.18 91.39 389.09 91.28 389.15 91.06C389.18 90.9212 389.262 90.7994 389.38 90.72C389.534 90.6123 389.724 90.5692 389.91 90.6C390.141 90.6485 390.356 90.7574 390.531 90.9154C390.707 91.0735 390.837 91.2751 390.91 91.5C391.126 91.9832 391.218 92.5123 391.18 93.04C391.188 93.5319 391.05 94.0151 390.783 94.4282C390.516 94.8413 390.132 95.1657 389.68 95.36C389.531 95.3991 389.375 95.4031 389.224 95.3719C389.073 95.3407 388.931 95.275 388.81 95.18C388.62 95.08 388.59 95 388.61 94.94Z" fill="#B26746"/>
<path d="M395.28 87.29C395.28 87.29 395.46 86.99 395.72 86.41C396.069 85.6029 396.236 84.7289 396.21 83.85C396.174 82.5502 395.67 81.3072 394.79 80.35C394.291 79.7833 393.682 79.324 393 79C392.248 78.6729 391.44 78.493 390.62 78.47C388.92 78.39 387.26 78.65 385.73 78.47C384.377 78.3251 383.088 77.8172 382 77C381.27 76.4545 380.649 75.7759 380.17 75C379.979 74.7267 379.837 74.4221 379.75 74.1C380.372 75.1413 381.195 76.0488 382.17 76.77C383.232 77.5252 384.473 77.9905 385.77 78.12C387.24 78.28 388.88 78.01 390.64 78.12C391.512 78.1442 392.372 78.3378 393.17 78.69C393.908 79.0284 394.566 79.5192 395.1 80.13C395.868 80.9873 396.355 82.059 396.496 83.2012C396.638 84.3434 396.426 85.5015 395.89 86.52C395.743 86.8164 395.535 87.0788 395.28 87.29V87.29Z" fill="#455A64"/>
<path d="M395.28 75.09C394.594 74.6842 393.817 74.4573 393.02 74.43C392.161 74.4221 391.308 74.5677 390.5 74.86C389.57 75.16 388.58 75.62 387.5 75.97C386.449 76.3261 385.327 76.4222 384.23 76.25C383.333 76.0928 382.479 75.7523 381.72 75.25C381.213 74.9235 380.758 74.5223 380.37 74.06C380.214 73.9027 380.092 73.7156 380.01 73.51C380.567 74.0646 381.176 74.5637 381.83 75C382.577 75.43 383.398 75.7181 384.25 75.85C385.29 75.9849 386.347 75.8789 387.34 75.54C388.42 75.21 389.42 74.75 390.34 74.46C391.197 74.1762 392.099 74.0541 393 74.1C393.612 74.1404 394.206 74.3182 394.74 74.62C395.14 74.88 395.29 75.07 395.28 75.09Z" fill="#455A64"/>
<path d="M358.31 70.79C358.483 71.108 358.695 71.4035 358.94 71.67C359.302 71.9946 359.726 72.2418 360.187 72.3966C360.648 72.5513 361.136 72.6104 361.62 72.57C363.068 72.3748 364.405 71.6902 365.41 70.63C366.65 69.54 367.86 68.05 369.69 67.17C370.583 66.7455 371.581 66.5926 372.56 66.73C373.462 66.8777 374.322 67.2189 375.08 67.73C376.347 68.5748 377.38 69.7275 378.08 71.08C378.564 71.9645 378.982 72.8837 379.33 73.83C379.483 74.1693 379.597 74.5249 379.67 74.89C379.475 74.5734 379.31 74.2385 379.18 73.89C378.78 72.9756 378.329 72.0842 377.83 71.22C377.126 69.9208 376.113 68.8149 374.88 68C374.162 67.5381 373.354 67.2347 372.51 67.11C371.605 66.9913 370.684 67.1371 369.86 67.53C368.15 68.34 366.94 69.79 365.67 70.89C364.605 71.9951 363.193 72.7011 361.67 72.89C361.151 72.915 360.633 72.831 360.149 72.6432C359.665 72.4554 359.226 72.1682 358.86 71.8C358.669 71.5941 358.519 71.3529 358.42 71.09C358.364 70.9982 358.327 70.8962 358.31 70.79V70.79Z" fill="#455A64"/>
<path d="M377.32 65.29C377.76 65.5364 378.139 65.878 378.43 66.29C379.185 67.2481 379.711 68.3661 379.967 69.5585C380.224 70.751 380.204 71.9863 379.91 73.17C379.821 73.6659 379.619 74.1347 379.32 74.54C379.388 74.0539 379.488 73.5729 379.62 73.1C379.828 71.954 379.808 70.7781 379.56 69.64C379.309 68.5026 378.844 67.4234 378.19 66.46C377.877 66.0878 377.586 65.6971 377.32 65.29Z" fill="#455A64"/>
<path d="M287.45 58.86C287.45 58.86 279.92 62.11 280.54 67.96C280.986 71.756 281.81 75.498 283 79.13C283 79.13 271.17 70.13 259.6 73.77L259.53 76.45C259.53 76.45 267.83 75.45 274.94 79.37C282.05 83.29 291.37 97.37 291.37 97.37L314.74 86.88L309.21 77.88C309.21 77.88 309.99 69.33 310.12 66.95C310.31 63.31 305.83 49.23 287.45 58.86ZM307.12 64.78C307.36 66.86 305.6 69.99 305.6 69.99L303.15 64.26L284.59 70.67C284.59 70.67 281.25 65.13 288.03 61.51C292.03 59.38 296.38 59.17 299.22 59.04C300.539 58.9526 301.859 59.1991 303.058 59.7566C304.257 60.3142 305.297 61.1648 306.08 62.23C306.635 62.9795 306.992 63.8563 307.12 64.78Z" fill="#EC9292"/>
<path d="M310 55.08L299.88 54.63L291.58 58.23C291.58 58.23 291.96 59.53 292.75 59.43C294.334 59.1054 295.891 58.6642 297.41 58.11L294.76 60.43L294.65 62.13C294.65 62.13 297.26 65.32 297.72 64.98C298.113 64.5476 298.421 64.0457 298.63 63.5L300.45 66.11H303.29L304.59 64.36L306 65.48C306 65.48 309.55 68.69 311.58 67.95C312.76 67.52 314.92 72.82 314.92 72.82L322.58 68L317.43 61.64L310 55.08Z" fill="#D38D6E"/>
<path d="M306.44 58.26C305.868 58.4254 305.275 58.5063 304.68 58.5L302.79 58.61C302.451 58.624 302.115 58.6811 301.79 58.78C301.446 58.9576 301.112 59.1546 300.79 59.37C300.11 59.82 299.48 60.29 298.92 60.73C298.36 61.17 297.92 61.54 298.05 62.02C298.33 63.02 298.79 63.55 298.71 63.6C298.63 63.65 298.1 63.21 297.71 62.12C297.651 61.9539 297.633 61.7756 297.659 61.6012C297.686 61.4267 297.754 61.2614 297.86 61.12C298.086 60.8373 298.344 60.5822 298.63 60.36C299.23 59.8479 299.861 59.3736 300.52 58.94C300.868 58.6928 301.24 58.4817 301.63 58.31C302.011 58.1849 302.409 58.1241 302.81 58.13H304.74C305.31 58.0811 305.884 58.125 306.44 58.26V58.26Z" fill="#B26746"/>
<path d="M303.29 66.2C303.22 66.2 303.48 65.66 303.91 64.91C304.02 64.72 304.13 64.51 304.24 64.29C304.287 64.195 304.32 64.0941 304.34 63.99C304.34 63.99 304.34 63.99 304.34 63.99C304.34 63.99 304.34 63.99 304.34 63.93C304.319 63.8863 304.292 63.8459 304.26 63.81C304.049 63.6564 303.796 63.5736 303.535 63.5736C303.274 63.5736 303.021 63.6564 302.81 63.81L302.39 64.02L302.07 64.18L301.99 63.81L301.78 62.81C301.7 62.51 301.55 62.28 301.39 62.24L300.7 62.1L301.34 61.81C301.97 61.52 302.5 61.29 302.88 61.15C303.032 61.0872 303.189 61.037 303.35 61C303.48 61 303.54 61 303.53 61.07C303.348 61.1667 303.171 61.2735 303 61.39C302.66 61.61 302.15 61.89 301.54 62.23L301.49 61.79C301.684 61.8522 301.858 61.9644 301.995 62.1154C302.132 62.2664 302.227 62.4508 302.27 62.65C302.36 63.02 302.44 63.38 302.53 63.76L302.13 63.55L302.58 63.32C302.909 63.1552 303.272 63.0696 303.64 63.07C303.829 63.074 304.016 63.1168 304.188 63.196C304.36 63.2751 304.514 63.3888 304.64 63.53C304.702 63.5978 304.753 63.6755 304.79 63.76C304.814 63.8013 304.834 63.8449 304.85 63.89C304.865 63.9592 304.865 64.0308 304.85 64.1C304.818 64.255 304.76 64.4037 304.68 64.54C304.558 64.757 304.425 64.9673 304.28 65.17C303.71 65.83 303.35 66.23 303.29 66.2Z" fill="#B26746"/>
<path d="M306 56.09C304.159 56.3506 302.298 56.441 300.44 56.36L300.63 56.29C300.45 56.45 300.27 56.61 300.08 56.76C298.72 57.85 297.45 58.76 296.53 59.42C296.055 59.8189 295.531 60.155 294.97 60.42C294.85 60.28 297.03 58.49 299.73 56.36L300.26 55.92L300.34 55.84H300.44C302.297 55.7584 304.158 55.8421 306 56.09V56.09Z" fill="#B26746"/>
<path d="M256.31 76.5C252.496 76.5819 248.776 77.7014 245.55 79.738C242.324 81.7747 239.714 84.6517 238 88.06C237.121 89.5916 236.77 91.3693 237 93.12C237.36 94.83 238.91 96.39 240.65 96.22C241.251 96.1146 241.825 95.8916 242.34 95.5638C242.855 95.2361 243.3 94.81 243.65 94.31C245.97 91.47 246.87 87.77 248.24 84.31C249.61 80.85 251.84 77.44 255.36 76.43" fill="#F5F5F5"/>
<path d="M256.59 92.54C256.258 91.4367 255.85 90.3575 255.37 89.31C254.623 87.454 254.109 85.5125 253.84 83.53L253.36 83.98C251.301 86.8239 250.417 90.3513 250.89 93.83C250.975 94.6644 251.234 95.4718 251.65 96.2C251.862 96.5633 252.151 96.8759 252.496 97.116C252.842 97.3561 253.236 97.5178 253.65 97.59C254.226 97.6317 254.802 97.4947 255.297 97.1977C255.793 96.9006 256.185 96.4579 256.42 95.93C256.87 94.8544 256.93 93.6553 256.59 92.54V92.54Z" fill="#F5F5F5"/>
<path d="M246.27 100.79C245.019 101.525 243.894 102.457 242.94 103.55C242.468 104.105 242.136 104.765 241.974 105.476C241.812 106.186 241.825 106.925 242.01 107.63C242.233 108.319 242.717 108.893 243.358 109.229C243.999 109.566 244.746 109.638 245.44 109.43C246.96 108.79 247.28 106.78 247.01 105.16C246.74 103.54 246.1 101.9 246.53 100.31" fill="#F5F5F5"/>
<path d="M408.2 187.22L408.12 187.09L408.2 187.22L400.89 169L403.21 160.22L399.67 119.34L390.31 113.7L389.86 110.06L387.29 110.49L383 114.36L347.61 98.61L324.48 66.73L313.48 73.33L334.72 113.6L374.83 136.49L374.75 136.76C375.11 136.97 392.45 280.88 399.87 281.31C407.29 281.74 420 262.89 435 262.45C444.71 262.17 448.09 263.93 449.28 265.19C444.07 255.37 409 188.63 408.2 187.22Z" fill="#F5F5F5"/>
<path d="M408.2 187.22C408.2 187.22 408.46 187.68 408.95 188.58L411.09 192.58L419.3 208.07C426.42 221.54 436.7 241.02 449.4 265.07L450.02 266.24L449.08 265.29C447.898 264.257 446.456 263.565 444.91 263.29C443.327 262.944 441.718 262.73 440.1 262.65C436.83 262.52 433.42 262.39 430.1 263.37C426.782 264.431 423.646 265.992 420.8 268C417.8 270 415 272.22 412.14 274.53C410.7 275.69 409.25 276.86 407.74 277.98C406.236 279.157 404.606 280.164 402.88 280.98C401.976 281.392 400.994 281.607 400 281.61C399.704 281.602 399.42 281.489 399.2 281.29C399.014 281.109 398.85 280.908 398.71 280.69C398.439 280.277 398.201 279.842 398 279.39C397.236 277.585 396.604 275.727 396.11 273.83C394.04 266.25 392.55 258.32 391.05 250.2C388.13 233.94 385.54 216.83 382.98 199.09C380.42 181.35 377.98 162.98 375.53 144.17C375.36 142.95 375.2 141.73 375.04 140.51L374.79 138.68L374.66 137.77L374.59 137.32V137.1V136.99V136.94C374.613 136.988 374.652 137.027 374.7 137.05L374.58 136.73L374.66 136.46L374.79 136.77L334.68 113.88H334.61V113.81L313.28 73.44L313.17 73.23L313.38 73.11L324.38 66.52L324.58 66.4L324.71 66.59L347.8 98.48L347.71 98.4L383.12 114.18L382.84 114.4V114.29L382.92 114.21L387.18 110.3H387.24L389.81 109.88H390V110.08L390.44 113.71L390.35 113.58L399.71 119.22L399.81 119.36C401.21 135.83 402.38 149.59 403.28 160.25V160.3C402.28 163.91 401.6 166.61 400.95 169.07V169.01C403.29 174.91 405.08 179.41 406.29 182.47C407.5 185.53 408.13 187.16 408.17 187.3L408.09 187.17L408.16 187.3L408.08 187.17L408.15 187.3C408.08 187.17 407.41 185.56 406.15 182.51L400.8 169V168.94C401.44 166.47 402.15 163.77 403.09 160.16C402.15 149.5 400.94 135.74 399.5 119.28L399.59 119.43L390.22 113.8H390.14V113.71L389.69 110.07L389.91 110.24L387.34 110.67H387.44L383.19 114.59L383.25 114.4L383.33 114.77L382.98 114.62L347.52 98.82H347.46L324.28 66.88L324.61 66.95L313.61 73.54L313.7 73.21L335 113.47L334.89 113.37L375 136.25L375.19 136.36L375.12 136.57L375.04 136.84L374.91 136.53C374.971 136.571 375.017 136.63 375.04 136.7V136.76V136.82V136.94V137.17L375.11 137.63L375.24 138.55L375.49 140.38C375.65 141.6 375.81 142.82 375.98 144.04C378.44 162.85 380.88 181.22 383.42 198.96C385.96 216.7 388.55 233.8 391.42 250.05C392.91 258.16 394.42 266.05 396.42 273.64C396.91 275.511 397.532 277.346 398.28 279.13C398.469 279.558 398.693 279.969 398.95 280.36C399.21 280.73 399.51 281.11 399.87 281.07C400.796 281.072 401.711 280.87 402.55 280.48C404.244 279.691 405.844 278.715 407.32 277.57C408.82 276.45 410.26 275.29 411.7 274.13C414.57 271.82 417.42 269.55 420.41 267.59C423.35 265.574 426.585 264.025 430 263C431.651 262.53 433.354 262.264 435.07 262.21C436.76 262.21 438.43 262.21 440.07 262.28C441.731 262.379 443.38 262.62 445 263C446.62 263.278 448.132 263.998 449.37 265.08L449.05 265.31C436.42 241.22 426.19 221.72 419.11 208.23L411 192.66C410.08 190.88 409.37 189.53 408.9 188.66C408.43 187.79 408.2 187.22 408.2 187.22Z" fill="#E0E0E0"/>
<path d="M388.59 142.08C387.805 142.233 386.991 142.128 386.27 141.78C384.504 141.162 382.778 140.437 381.1 139.61C379.1 138.61 377.37 137.76 376.1 137.12C375.396 136.825 374.726 136.457 374.1 136.02C374.863 136.173 375.603 136.425 376.3 136.77C377.63 137.32 379.42 138.17 381.39 139.12C383.36 140.07 385.14 140.88 386.46 141.42C387.151 141.699 387.863 141.919 388.59 142.08V142.08Z" fill="#263238"/>
<path d="M397.73 128.79C397.599 127.72 397.405 126.658 397.15 125.61C396.408 123.125 394.851 120.962 392.73 119.47C390.54 118.05 388.251 116.791 385.88 115.7C384.874 115.265 383.924 114.711 383.05 114.05C384.072 114.431 385.073 114.865 386.05 115.35C388.497 116.348 390.841 117.58 393.05 119.03C395.271 120.582 396.858 122.883 397.52 125.51C397.723 126.294 397.824 127.1 397.82 127.91C397.84 128.206 397.81 128.504 397.73 128.79V128.79Z" fill="#263238"/>
<path d="M398.76 177.55C398.721 176.028 398.902 174.509 399.3 173.04C399.525 171.537 399.977 170.077 400.64 168.71C400.5 170.214 400.229 171.703 399.83 173.16C399.614 174.654 399.256 176.124 398.76 177.55V177.55Z" fill="#263238"/>
<path d="M405.18 197.24C404.824 197.89 404.333 198.456 403.74 198.9C402.372 200.067 400.759 200.911 399.02 201.37C397.28 201.829 395.459 201.894 393.69 201.56C392.955 201.469 392.249 201.22 391.62 200.83C391.62 200.74 392.44 201.01 393.76 201.18C397.219 201.619 400.712 200.693 403.5 198.6C404.56 197.8 405.11 197.17 405.18 197.24Z" fill="#263238"/>
<path d="M435 251.38C434.543 251.507 434.074 251.584 433.6 251.61C433.15 251.67 432.6 251.72 431.95 251.75C431.3 251.78 430.57 251.83 429.76 251.81C427.85 251.814 425.941 251.68 424.05 251.41C419.409 250.752 414.909 249.333 410.73 247.21C409.026 246.347 407.385 245.365 405.82 244.27C405.14 243.82 404.58 243.35 404.06 242.96C403.54 242.57 403.13 242.21 402.79 241.9C402.424 241.601 402.089 241.266 401.79 240.9C401.85 240.82 403.36 242.15 406.05 243.9C407.626 244.938 409.266 245.877 410.96 246.71C415.115 248.759 419.56 250.158 424.14 250.86C426.005 251.145 427.885 251.319 429.77 251.38C433 251.51 435 251.28 435 251.38Z" fill="#263238"/>
<path d="M449.47 265.36C449.47 265.36 449.33 265.28 449.1 265.1C448.788 264.813 448.454 264.553 448.1 264.32C446.765 263.477 445.288 262.884 443.74 262.57C441.439 262.097 439.083 261.946 436.74 262.12C433.868 262.285 431.032 262.84 428.31 263.77C422.47 265.77 418.12 269.4 415.05 271.96L411.44 275.1C411.02 275.509 410.564 275.88 410.08 276.21C410.452 275.755 410.86 275.33 411.3 274.94C412.11 274.15 413.3 273.02 414.8 271.67C416.566 270.084 418.422 268.601 420.36 267.23C422.746 265.532 425.362 264.185 428.13 263.23C430.899 262.285 433.787 261.733 436.71 261.59C439.096 261.434 441.491 261.629 443.82 262.17C445.398 262.524 446.89 263.187 448.21 264.12C448.573 264.374 448.908 264.666 449.21 264.99C449.39 265.23 449.49 265.35 449.47 265.36Z" fill="#263238"/>
<path d="M411.52 215.86C411.52 215.86 411.52 215.97 411.39 216.16C411.236 216.432 411.062 216.693 410.87 216.94C410.142 217.857 409.237 218.618 408.21 219.18C406.682 220.015 404.947 220.397 403.21 220.28C401.069 220.068 399.058 219.154 397.49 217.68C395.925 216.247 394.693 214.489 393.88 212.53C393.223 210.947 392.727 209.302 392.4 207.62C392.12 206.19 391.96 205.03 391.86 204.23C391.784 203.814 391.751 203.392 391.76 202.97C391.908 203.364 392.012 203.773 392.07 204.19C392.23 204.98 392.45 206.14 392.78 207.54C393.152 209.181 393.675 210.784 394.34 212.33C395.146 214.21 396.343 215.897 397.85 217.28C399.335 218.671 401.228 219.548 403.25 219.78C404.907 219.919 406.57 219.589 408.05 218.83C409.405 218.099 410.589 217.086 411.52 215.86V215.86Z" fill="#263238"/>
<path d="M341.19 232.37L322.23 475.77L334.55 475.55L355.88 232.21L341.19 232.37Z" fill="#455A64"/>
<path d="M359.78 232.17L345.34 232.37L417.22 475.49H431.4L359.78 232.17Z" fill="#455A64"/>
<path d="M342.33 344.36H382.14L385.47 353.83H339.63L342.33 344.36Z" fill="#455A64"/>
<path d="M352.12 226.44L340.38 227.74L333.21 232.23C333.21 232.23 333.07 233.69 335.11 233.46L339.11 231.75L335.91 235.25C336.038 235.456 336.208 235.633 336.409 235.769C336.611 235.905 336.839 235.996 337.078 236.036C337.317 236.077 337.562 236.066 337.797 236.005C338.032 235.943 338.251 235.833 338.44 235.68C339.536 235.047 340.503 234.212 341.29 233.22L348.35 232.72C348.35 232.72 343.01 237.85 343.99 239.19C344.97 240.53 345.61 240.24 346.38 239.75C347.15 239.26 347.57 237.57 349.33 237.01C351.09 236.45 353.99 234.81 357.13 233.32C359.83 232.04 362.58 222.88 362.58 222.88L353.58 221.12L352.12 226.44Z" fill="#D38D6E"/>
<path d="M347.45 229.44C345.259 230.037 343.026 230.465 340.77 230.72H340.67L340.82 230.64C339.325 232.304 337.696 233.842 335.95 235.24C337.308 233.456 338.806 231.784 340.43 230.24L340.5 230.17H340.69C342.92 229.744 345.181 229.5 347.45 229.44V229.44Z" fill="#B26746"/>
<path d="M452.59 475.49C452.59 475.64 358.06 475.77 241.48 475.77C124.9 475.77 30.35 475.64 30.35 475.49C30.35 475.34 124.86 475.22 241.48 475.22C358.1 475.22 452.59 475.34 452.59 475.49Z" fill="#263238"/>
</svg>
