<svg width="500" height="500" viewBox="0 0 500 500" fill="none" xmlns="http://www.w3.org/2000/svg">
<path d="M250 427.56C357.082 427.56 443.89 422.492 443.89 416.24C443.89 409.988 357.082 404.92 250 404.92C142.918 404.92 56.11 409.988 56.11 416.24C56.11 422.492 142.918 427.56 250 427.56Z" fill="#F5F5F5"/>
<path d="M371.37 184.33C398.42 113.92 333.83 48.83 250.58 72.22C213.66 82.59 199.41 118.22 190.64 157.04C185.38 166.98 174.53 184.81 159.36 196.11C158.292 196.903 157.418 197.927 156.802 199.106C156.186 200.284 155.845 201.587 155.804 202.916C155.762 204.245 156.022 205.567 156.563 206.781C157.105 207.996 157.914 209.072 158.93 209.93C165.54 215.49 173.78 217.62 178.71 218.42C177.36 224.67 175.9 230.66 174.23 236.27C163.4 272.77 194.62 291.55 229.83 295.1C232.063 306.749 232.715 318.646 231.77 330.47C230.56 346.05 244.77 358.38 260.1 355.29L329.1 341.36C334.805 340.214 339.889 337.007 343.381 332.352C346.872 327.696 348.527 321.918 348.03 316.12C345.589 286.215 345.535 256.163 347.87 226.25C355.86 216.81 363.64 204.42 371.37 184.33Z" fill="#FFBF9D"/>
<path opacity="0.6" d="M371.37 184.33C398.42 113.92 333.83 48.83 250.58 72.22C213.66 82.59 199.41 118.22 190.64 157.04C185.38 166.98 174.53 184.81 159.36 196.11C158.292 196.903 157.418 197.927 156.802 199.106C156.186 200.284 155.845 201.587 155.804 202.916C155.762 204.245 156.022 205.567 156.563 206.781C157.105 207.996 157.914 209.072 158.93 209.93C165.54 215.49 173.78 217.62 178.71 218.42C177.36 224.67 175.9 230.66 174.23 236.27C163.4 272.77 194.62 291.55 229.83 295.1C232.063 306.749 232.715 318.646 231.77 330.47C230.56 346.05 244.77 358.38 260.1 355.29L329.1 341.36C334.805 340.214 339.889 337.007 343.381 332.352C346.872 327.696 348.527 321.918 348.03 316.12C345.589 286.215 345.535 256.163 347.87 226.25C355.86 216.81 363.64 204.42 371.37 184.33Z" fill="white"/>
<path d="M378.08 415H207.66C206.106 415 204.574 414.637 203.187 413.938C201.799 413.239 200.595 412.225 199.67 410.976C198.745 409.728 198.126 408.28 197.862 406.749C197.598 405.218 197.697 403.646 198.15 402.16L217.71 338.16C218.17 336.67 218.972 335.307 220.052 334.182C221.132 333.057 222.46 332.2 223.93 331.68L349.57 287.68C350.889 287.211 352.292 287.027 353.687 287.138C355.082 287.25 356.438 287.655 357.665 288.327C358.893 289 359.964 289.924 360.81 291.039C361.655 292.155 362.255 293.436 362.57 294.8L387.8 402.8C388.141 404.262 388.147 405.781 387.817 407.246C387.487 408.71 386.83 410.08 385.895 411.254C384.959 412.428 383.77 413.375 382.417 414.023C381.064 414.672 379.581 415.006 378.08 415Z" fill="#8CC0DE"/>
<path d="M268.68 91.87C266.674 90.0697 264.22 88.8432 261.576 88.3194C258.932 87.7955 256.196 87.9938 253.655 88.8932C251.115 89.7927 248.863 91.3601 247.138 93.4308C245.412 95.5014 244.276 97.9987 243.85 100.66C240.982 99.5296 237.794 99.5192 234.919 100.631C232.044 101.742 229.692 103.894 228.33 106.66L241.72 112.35C240.574 113.244 239.681 114.423 239.13 115.768C238.579 117.114 238.389 118.58 238.578 120.022C238.768 121.463 239.33 122.83 240.211 123.988C241.091 125.145 242.258 126.052 243.597 126.62C244.935 127.188 246.399 127.396 247.843 127.225C249.287 127.053 250.661 126.507 251.829 125.641C252.997 124.776 253.919 123.62 254.503 122.288C255.087 120.957 255.314 119.496 255.16 118.05L269.87 124.3L276.12 109.59C274.456 109.762 272.778 109.43 271.305 108.637C269.832 107.843 268.632 106.625 267.86 105.14C267.698 104.816 267.557 104.482 267.44 104.14C267.33 103.84 267.24 103.54 267.16 103.23C267.005 102.598 266.924 101.951 266.92 101.3C266.92 101.3 266.92 101.3 266.92 101.23C266.927 100.113 267.155 99.0086 267.59 97.98C268.157 96.6433 269.063 95.4776 270.218 94.5984C271.373 93.7192 272.738 93.1568 274.178 92.9669C275.617 92.777 277.081 92.9661 278.425 93.5157C279.769 94.0652 280.946 94.956 281.84 96.1L285.94 86.45C282.861 85.5096 279.57 85.5158 276.494 86.468C273.418 87.4201 270.699 89.2742 268.69 91.79L268.68 91.87Z" fill="white"/>
<path opacity="0.1" d="M261.23 155C262.654 155.607 264.221 155.801 265.75 155.56C267.827 155.236 269.705 154.138 271.006 152.487C272.308 150.836 272.937 148.753 272.767 146.658C272.598 144.563 271.642 142.609 270.092 141.188C268.542 139.768 266.512 138.986 264.41 139C264.15 138.985 263.89 138.985 263.63 139L269.87 124.29L255.16 118.04C255.313 119.446 255.103 120.868 254.55 122.17C254.054 123.345 253.295 124.391 252.332 125.227C251.369 126.064 250.227 126.668 248.994 126.995C247.761 127.321 246.47 127.361 245.219 127.11C243.968 126.86 242.792 126.326 241.779 125.551C240.767 124.775 239.945 123.778 239.378 122.635C238.811 121.493 238.513 120.235 238.507 118.96C238.502 117.684 238.788 116.425 239.345 115.277C239.902 114.129 240.714 113.125 241.72 112.34L228.33 106.65C227.2 108.922 226.802 111.488 227.19 113.995C227.579 116.502 228.735 118.827 230.5 120.65C228.163 121.247 226.004 122.399 224.207 124.008C222.41 125.617 221.027 127.635 220.176 129.893C219.325 132.15 219.031 134.579 219.319 136.974C219.607 139.369 220.468 141.659 221.83 143.65L222.05 143.94C223.463 145.881 225.317 147.458 227.46 148.54C233.73 152.35 243.73 155.54 255.46 158.12L257.9 152.39C258.764 153.535 259.912 154.434 261.23 155Z" fill="black"/>
<path d="M328.82 115C330.134 115.557 331.284 116.441 332.159 117.568C333.035 118.696 333.607 120.029 333.82 121.44C333.879 121.831 333.912 122.225 333.92 122.62V122.7C333.915 124.435 333.37 126.126 332.36 127.537C331.35 128.947 329.926 130.009 328.285 130.573C326.644 131.137 324.868 131.176 323.204 130.685C321.54 130.193 320.071 129.195 319 127.83L312.76 142.53L327.47 148.77C326.324 149.664 325.431 150.842 324.88 152.187C324.328 153.532 324.138 154.998 324.327 156.439C324.516 157.881 325.078 159.248 325.957 160.405C326.836 161.563 328.003 162.47 329.341 163.039C330.679 163.607 332.142 163.817 333.586 163.646C335.029 163.476 336.403 162.931 337.572 162.066C338.741 161.202 339.663 160.047 340.249 158.717C340.834 157.386 341.062 155.926 340.91 154.48L354.4 160.21C355.48 157.188 355.338 153.864 354.005 150.945C352.671 148.026 350.251 145.742 347.26 144.58C348.746 142.332 349.599 139.724 349.729 137.032C349.859 134.34 349.261 131.663 347.998 129.282C346.736 126.9 344.855 124.903 342.553 123.501C340.252 122.098 337.615 121.341 334.92 121.31C335.085 118.903 334.707 116.49 333.812 114.25C332.916 112.01 331.528 110 329.75 108.37C329.163 107.838 328.538 107.35 327.88 106.91L324.71 114.38C326.11 114.233 327.525 114.447 328.82 115Z" fill="white"/>
<path opacity="0.1" d="M278.52 93.64C276.483 92.7773 274.187 92.7581 272.136 93.5868C270.084 94.4155 268.446 96.0243 267.58 98.06C267.145 99.0886 266.917 100.193 266.91 101.31C266.91 101.31 266.91 101.31 266.91 101.38C266.914 102.031 266.995 102.678 267.15 103.31C267.23 103.62 267.32 103.92 267.43 104.22C267.547 104.562 267.688 104.896 267.85 105.22C268.622 106.705 269.822 107.923 271.295 108.717C272.768 109.51 274.446 109.842 276.11 109.67L269.86 124.38L284.56 130.63C284.485 129.965 284.485 129.295 284.56 128.63C284.555 128.607 284.555 128.583 284.56 128.56C284.56 128.56 284.56 128.47 284.56 128.43C284.734 127.343 285.123 126.302 285.703 125.366C286.283 124.43 287.043 123.619 287.938 122.979C288.834 122.339 289.848 121.883 290.921 121.638C291.994 121.393 293.105 121.363 294.19 121.55C294.83 121.653 295.455 121.834 296.05 122.09C297.063 122.51 297.984 123.125 298.759 123.9C299.535 124.675 300.15 125.596 300.57 126.609C300.989 127.622 301.205 128.708 301.206 129.804C301.206 130.901 300.99 131.987 300.57 133C300.153 133.984 299.548 134.877 298.79 135.63C298.549 135.87 298.295 136.097 298.03 136.31L312.74 142.55L318.98 127.85C320.051 129.215 321.52 130.213 323.184 130.705C324.848 131.196 326.624 131.157 328.265 130.593C329.906 130.029 331.33 128.967 332.34 127.557C333.35 126.146 333.895 124.455 333.9 122.72V122.64C333.892 122.245 333.859 121.851 333.8 121.46C333.475 119.345 332.347 117.436 330.65 116.132C328.952 114.828 326.818 114.229 324.69 114.46L327.86 106.99C325.543 105.416 322.853 104.478 320.06 104.27C319.419 101.634 318.184 99.1798 316.45 97.0945C314.715 95.0092 312.526 93.3482 310.051 92.2384C307.576 91.1287 304.88 90.5997 302.169 90.6918C299.458 90.784 296.804 91.4948 294.41 92.77C292.35 89.8257 289.365 87.654 285.93 86.6L281.83 96.25C280.968 95.1109 279.829 94.2122 278.52 93.64Z" fill="black"/>
<path opacity="0.1" d="M340.27 158.62C339.773 159.795 339.014 160.841 338.05 161.677C337.086 162.513 335.944 163.117 334.71 163.443C333.477 163.768 332.185 163.807 330.934 163.556C329.683 163.304 328.507 162.77 327.495 161.993C326.483 161.216 325.662 160.218 325.096 159.074C324.53 157.931 324.233 156.673 324.229 155.397C324.225 154.122 324.513 152.862 325.071 151.715C325.629 150.568 326.443 149.564 327.45 148.78L312.74 142.54L306.49 157.25C306.33 157.04 306.14 156.85 305.96 156.65C305.18 155.815 304.233 155.154 303.18 154.71C301.21 153.875 298.994 153.829 296.991 154.581C294.987 155.332 293.349 156.824 292.413 158.749C291.478 160.673 291.317 162.884 291.964 164.923C292.611 166.963 294.016 168.676 295.89 169.71C296.13 169.84 296.39 169.97 296.65 170.08C297.952 170.631 299.373 170.845 300.78 170.7L298.47 176.13C301.945 176.904 305.585 176.287 308.61 174.41C309.241 174.016 309.84 173.571 310.4 173.08C310.806 175.185 311.592 177.198 312.72 179.02C314.843 182.452 318.06 185.067 321.853 186.443C325.646 187.819 329.793 187.876 333.622 186.604C337.451 185.331 340.739 182.805 342.954 179.433C345.17 176.06 346.183 172.039 345.83 168.02C347.785 167.52 349.588 166.548 351.079 165.187C352.57 163.827 353.703 162.121 354.38 160.22L340.89 154.49C341.035 155.897 340.821 157.318 340.27 158.62Z" fill="black"/>
<path d="M88.13 308L88.3 305.52C88.3454 305.095 88.2832 304.665 88.1189 304.27C87.9546 303.875 87.6937 303.528 87.36 303.26L84.36 301.03C83.7245 300.589 82.9808 300.33 82.2089 300.281C81.4371 300.232 80.6665 300.394 79.98 300.75L78.98 301.19C78.44 305.34 80.59 309.77 80.59 309.77L81.07 311.13C81.1535 311.403 81.2996 311.653 81.4966 311.86C81.6935 312.068 81.9361 312.226 82.2049 312.323C82.4737 312.42 82.7614 312.453 83.0452 312.42C83.329 312.386 83.6011 312.287 83.84 312.13L86.48 310.67C86.9482 310.389 87.3423 310 87.6294 309.535C87.9164 309.071 88.0881 308.544 88.13 308Z" fill="#B55B52"/>
<path d="M83.71 299L85.25 300.25C82.7618 302.42 80.1544 304.45 77.44 306.33C76.8423 305.746 76.204 305.204 75.53 304.71L83.71 299Z" fill="#263238"/>
<path d="M89.58 258.38C89.01 259.11 88.3 260.09 87.68 260.98C87.06 261.87 86.4 262.81 85.78 263.73C84.55 265.59 83.36 267.47 82.27 269.35C81.202 271.183 80.2274 273.069 79.35 275C78.587 276.603 77.9841 278.278 77.55 280L77.64 278.28C77.6292 278.823 77.6931 279.365 77.83 279.89C78.0155 280.705 78.2459 281.51 78.52 282.3C79.1534 284.136 79.8811 285.939 80.7 287.7C81.54 289.54 82.48 291.39 83.46 293.23C84.44 295.07 85.46 296.95 86.46 298.62L74.26 306.67C72.85 304.67 71.63 302.76 70.39 300.75C69.15 298.74 67.98 296.75 66.84 294.63C65.6572 292.449 64.5859 290.21 63.63 287.92C63.14 286.71 62.63 285.45 62.25 284.05C61.7653 282.45 61.447 280.805 61.3 279.14L61.24 278.44L61.39 277.44C61.8521 274.455 62.6333 271.528 63.72 268.71C64.6865 266.169 65.7812 263.68 67 261.25C68.15 258.9 69.37 256.63 70.64 254.41C71.27 253.3 71.92 252.19 72.64 251.1C73.36 250.01 73.95 248.97 74.76 247.75L89.58 258.38Z" fill="#8CC0DE"/>
<path opacity="0.7" d="M89.58 258.38C89.01 259.11 88.3 260.09 87.68 260.98C87.06 261.87 86.4 262.81 85.78 263.73C84.55 265.59 83.36 267.47 82.27 269.35C81.202 271.183 80.2274 273.069 79.35 275C78.587 276.603 77.9841 278.278 77.55 280L77.64 278.28C77.6292 278.823 77.6931 279.365 77.83 279.89C78.0155 280.705 78.2459 281.51 78.52 282.3C79.1534 284.136 79.8811 285.939 80.7 287.7C81.54 289.54 82.48 291.39 83.46 293.23C84.44 295.07 85.46 296.95 86.46 298.62L74.26 306.67C72.85 304.67 71.63 302.76 70.39 300.75C69.15 298.74 67.98 296.75 66.84 294.63C65.6572 292.449 64.5859 290.21 63.63 287.92C63.14 286.71 62.63 285.45 62.25 284.05C61.7653 282.45 61.447 280.805 61.3 279.14L61.24 278.44L61.39 277.44C61.8521 274.455 62.6333 271.528 63.72 268.71C64.6865 266.169 65.7812 263.68 67 261.25C68.15 258.9 69.37 256.63 70.64 254.41C71.27 253.3 71.92 252.19 72.64 251.1C73.36 250.01 73.95 248.97 74.76 247.75L89.58 258.38Z" fill="white"/>
<path d="M138.39 397.53L127.76 399.72L133.12 411.75L142.01 409.93L138.39 397.53Z" fill="#FFBF9D"/>
<path opacity="0.2" d="M138.39 397.53L127.75 399.73L130.76 406.46L140.42 404.48L138.39 397.53Z" fill="black"/>
<path d="M113.58 359.73C108.28 343.26 95.58 326.73 96.58 310.47L131.99 310.38C131.99 310.38 134.3 343.18 135.5 358.38C136.75 374.14 140.7 401.78 140.7 401.78L128.7 405C128.7 405 112.66 377.37 113.58 359.73Z" fill="#263238"/>
<path d="M133.69 415.93L136.46 415.2L136.7 414.14L138.29 414.72C143.34 414.35 148.213 412.702 152.45 409.93C151.936 408.885 151.178 407.98 150.24 407.29C150.24 407.29 146.12 408.29 143.38 407.53C142.938 407.388 142.459 407.42 142.04 407.62C140.33 408.46 135.74 410.53 132.57 410.25C132.501 410.243 132.432 410.254 132.369 410.282C132.305 410.31 132.251 410.354 132.209 410.409C132.168 410.464 132.142 410.529 132.133 410.598C132.124 410.666 132.134 410.736 132.16 410.8C132.806 412.467 133.317 414.182 133.69 415.93Z" fill="#263238"/>
<path d="M96.42 399.02L85.54 399.13L86.06 411.96L95.15 411.89L96.42 399.02Z" fill="#FFBF9D"/>
<path opacity="0.2" d="M96.42 399.03L85.54 399.13L85.83 406.32L95.71 406.23L96.42 399.03Z" fill="black"/>
<path d="M84.59 355.6C83.71 339.12 74.51 321.71 78.94 311.14L112.83 310.38C112.83 310.38 112.51 342.21 108.99 357.38C105.33 373.21 96.73 404 96.73 404H84.97C84.97 404 80.17 374.39 84.59 355.6Z" fill="#263238"/>
<path d="M110.89 227.76C112.08 228.91 112.89 228.22 112.82 226.64C113.262 226.959 113.612 227.387 113.838 227.883C114.063 228.379 114.155 228.925 114.104 229.468C114.054 230.01 113.863 230.53 113.55 230.976C113.237 231.422 112.813 231.778 112.32 232.01C110.1 233.27 107.6 232.56 106.73 231.2L106.39 226.55C108.08 225.69 109.1 226.05 110.89 227.76Z" fill="#E0E0E0"/>
<path d="M105.93 222.72L107.7 227.27C108.721 227.125 109.652 226.604 110.31 225.81C109.152 224.408 107.639 223.341 105.93 222.72Z" fill="#FFAF84"/>
<path d="M106.24 221.83C106.45 222.37 106.91 222.69 107.24 222.54C107.57 222.39 107.71 221.85 107.49 221.31C107.27 220.77 106.82 220.45 106.49 220.59C106.16 220.73 106 221.29 106.24 221.83Z" fill="#263238"/>
<path d="M107.64 225.78C107.264 225.775 106.893 225.693 106.55 225.54C105.274 224.897 104.296 223.787 103.82 222.44C102.82 220.03 103.4 217.54 105.01 216.88C105.332 216.761 105.675 216.711 106.018 216.731C106.36 216.752 106.695 216.843 107 217C108.276 217.643 109.254 218.753 109.73 220.1C110.73 222.51 110.15 225 108.54 225.66C108.251 225.762 107.945 225.802 107.64 225.78ZM105.86 217.21C105.634 217.213 105.41 217.257 105.2 217.34C103.84 217.9 103.43 220.1 104.29 222.25C104.712 223.477 105.594 224.492 106.75 225.08C106.991 225.194 107.252 225.259 107.518 225.271C107.784 225.283 108.05 225.242 108.3 225.15C109.66 224.59 110.07 222.39 109.21 220.24C108.788 219.013 107.906 217.998 106.75 217.41C106.469 217.285 106.167 217.217 105.86 217.21Z" fill="#263238"/>
<path d="M106.3 219.42C106.253 219.446 106.199 219.46 106.145 219.46C106.091 219.46 106.037 219.446 105.99 219.42C105.65 219.161 105.253 218.987 104.832 218.912C104.411 218.838 103.979 218.864 103.57 218.99C103.486 219.023 103.393 219.021 103.311 218.986C103.228 218.95 103.163 218.883 103.13 218.8C103.097 218.715 103.098 218.62 103.134 218.536C103.169 218.452 103.236 218.385 103.32 218.35C103.834 218.186 104.381 218.147 104.913 218.238C105.446 218.328 105.949 218.545 106.38 218.87C106.417 218.895 106.448 218.927 106.472 218.965C106.497 219.002 106.513 219.044 106.52 219.088C106.528 219.132 106.526 219.177 106.516 219.22C106.506 219.263 106.487 219.304 106.46 219.34C106.417 219.383 106.361 219.412 106.3 219.42Z" fill="#263238"/>
<path d="M87 227C90 233.47 92.25 237.79 97.2 239.06C107.05 241.58 110.2 236.14 109.2 228.88C108.2 222.35 103.43 212.88 95.91 212.88C94.2399 212.872 92.5951 213.288 91.1306 214.091C89.6661 214.894 88.4299 216.056 87.5387 217.469C86.6474 218.881 86.1303 220.497 86.036 222.165C85.9418 223.832 86.2735 225.496 87 227Z" fill="#FFBF9D"/>
<path d="M108.68 243.56C108.019 242.28 106.944 241.261 105.63 240.67C105.132 239.389 105.096 237.974 105.53 236.67L90.63 232C91.83 236.92 92.77 240.82 90.94 243.21C93.87 244.99 99.24 248.21 105.09 248.04C110.94 247.87 109.63 245.62 108.68 243.56Z" fill="#FFBF9D"/>
<path d="M88.32 242.68C87.43 239.84 88.78 239.46 88.78 239.46C88.78 239.46 97.99 237.25 106.53 239.46C115.07 241.67 109.93 244.76 109.93 244.76L88.32 242.68Z" fill="#263238"/>
<path d="M103.44 226.1C104.38 223.91 104.44 219.5 102.6 217.3C102.606 217.589 102.544 217.875 102.419 218.136C102.294 218.397 102.109 218.624 101.88 218.8C101.41 218.1 98.49 216.15 94.38 216.24C94.7397 216.495 95.0259 216.84 95.21 217.24C95.21 217.24 88.77 216.17 85.29 218.8C85.29 218.8 86.03 219.8 85.49 220.46C84.22 221.18 83.7 222.07 84.21 225C84.72 227.93 88.21 233.06 91.6 236.26C97.94 236.62 101.33 234.03 101.33 234.03C101.33 234.03 105 230.2 103.44 226.1Z" fill="#E0E0E0"/>
<path d="M100.36 225.25H100.3C100.268 225.243 100.238 225.23 100.211 225.211C100.184 225.191 100.162 225.167 100.145 225.139C100.128 225.111 100.117 225.08 100.113 225.047C100.109 225.015 100.111 224.982 100.12 224.95C100.52 223.39 102.6 221.9 103.95 221.35C105.95 220.5 109.08 219.35 109.11 219.35C109.172 219.33 109.239 219.334 109.298 219.363C109.356 219.391 109.401 219.441 109.423 219.502C109.446 219.564 109.443 219.631 109.416 219.69C109.389 219.75 109.341 219.796 109.28 219.82C109.28 219.82 106.17 220.96 104.14 221.82C102.92 222.32 100.96 223.7 100.6 225.08C100.582 225.129 100.549 225.172 100.506 225.202C100.464 225.233 100.412 225.249 100.36 225.25Z" fill="#263238"/>
<path d="M99.5 226.29C100.018 227.846 101.084 229.162 102.5 229.99C104.28 230.92 105.27 228.99 104.87 226.83C104.51 224.83 103.16 221.95 101.33 221.96C99.5 221.97 98.76 224.24 99.5 226.29Z" fill="#FFBF9D"/>
<path d="M113.44 243.11C103.373 242.157 93.2317 242.318 83.2 243.59C81.8276 243.794 80.5113 244.276 79.3315 245.006C78.1517 245.736 77.1334 246.699 76.3386 247.837C75.5439 248.974 74.9896 250.262 74.7096 251.62C74.4295 252.979 74.4297 254.381 74.71 255.74C79.41 279.42 77.09 307.95 77.58 312.63C77.58 312.63 107.14 319.91 133.58 311.98C136.67 282.98 126.27 258.9 121.52 248.88C120.779 247.307 119.648 245.951 118.233 244.941C116.818 243.931 115.168 243.3 113.44 243.11Z" fill="#263238"/>
<path d="M84.72 415.93H87.08L87.68 414.93L88.96 415.93H104.17C104.209 414.793 103.95 413.666 103.42 412.66C103.42 412.66 98.21 412.27 96.48 410.15C96.4197 410.066 96.337 410.001 96.2416 409.963C96.1461 409.924 96.0416 409.912 95.94 409.93C94.54 410.23 88.94 411.3 85.78 410.18C85.7041 410.148 85.6213 410.136 85.5393 410.144C85.4573 410.153 85.3788 410.182 85.3111 410.228C85.2433 410.275 85.1884 410.338 85.1515 410.412C85.1146 410.486 85.0969 410.568 85.1 410.65C85.1083 412.417 84.9813 414.182 84.72 415.93Z" fill="#263238"/>
<path d="M119.34 244.16C107.07 237.7 82.89 240.43 77.55 244.33C67.36 251.78 76.65 275.93 76.73 298.98C76.81 322.03 75.64 348.05 75.64 376.69C100.51 395.69 143.42 375.34 143.42 375.34C143.42 375.34 144 257.16 119.34 244.16Z" fill="#8CC0DE"/>
<path opacity="0.8" d="M119.34 244.16C107.07 237.7 82.89 240.43 77.55 244.33C67.36 251.78 76.65 275.93 76.73 298.98C76.81 322.03 75.64 348.05 75.64 376.69C100.51 395.69 143.42 375.34 143.42 375.34C143.42 375.34 144 257.16 119.34 244.16Z" fill="white"/>
<path opacity="0.2" d="M128.72 256.77L119.17 258.48C122.945 261.011 127.073 262.972 131.42 264.3C130.647 261.746 129.745 259.233 128.72 256.77Z" fill="#EC9292"/>
<path d="M160.52 225.52L158.11 226.15C157.694 226.243 157.308 226.439 156.988 226.72C156.668 227.002 156.425 227.359 156.28 227.76L155.14 231.36C154.927 232.104 154.921 232.891 155.122 233.638C155.323 234.385 155.723 235.063 156.28 235.6L157 236.36C161.1 235.53 164.61 232.07 164.61 232.07L165.75 231.19C165.992 231.025 166.192 230.805 166.332 230.548C166.473 230.29 166.55 230.003 166.558 229.71C166.565 229.418 166.504 229.127 166.377 228.863C166.251 228.598 166.063 228.368 165.83 228.19L163.61 226.19C163.187 225.837 162.685 225.592 162.147 225.475C161.609 225.359 161.051 225.374 160.52 225.52Z" fill="#FFBF9D"/>
<path d="M152 232.17L153.8 230.23C156.983 232.216 160.051 234.379 162.99 236.71C162.518 237.548 162.11 238.42 161.77 239.32L152 232.17Z" fill="#263238"/>
<path d="M113.82 242.18C115.82 242.56 118.01 242.93 120.11 243.27C122.21 243.61 124.34 243.95 126.44 244.27C130.65 244.89 134.87 245.44 138.88 245.76L137.15 245.88C136.83 245.99 137.15 245.97 137.69 245.7C138.338 245.356 138.95 244.951 139.52 244.49C141.031 243.293 142.445 241.979 143.75 240.56C145.17 239.07 146.56 237.44 147.91 235.76C148.58 234.92 149.25 234.06 149.91 233.2C150.57 232.34 151.22 231.41 151.76 230.65L164.1 238.49C163.37 239.68 162.75 240.65 162.05 241.71C161.35 242.77 160.67 243.77 159.95 244.78C158.52 246.78 157.01 248.78 155.35 250.78C153.623 252.878 151.738 254.841 149.71 256.65C148.526 257.708 147.255 258.665 145.91 259.51C144.11 260.667 142.114 261.487 140.02 261.93L139.41 262.06H138.3C133.57 262.06 129.08 261.78 124.6 261.47C122.36 261.31 120.13 261.133 117.91 260.94C115.67 260.74 113.49 260.53 111.2 260.29L113.82 242.18Z" fill="#8CC0DE"/>
<path opacity="0.8" d="M113.82 242.18C115.82 242.56 118.01 242.93 120.11 243.27C122.21 243.61 124.34 243.95 126.44 244.27C130.65 244.89 134.87 245.44 138.88 245.76L137.15 245.88C136.83 245.99 137.15 245.97 137.69 245.7C138.338 245.356 138.95 244.951 139.52 244.49C141.031 243.293 142.445 241.979 143.75 240.56C145.17 239.07 146.56 237.44 147.91 235.76C148.58 234.92 149.25 234.06 149.91 233.2C150.57 232.34 151.22 231.41 151.76 230.65L164.1 238.49C163.37 239.68 162.75 240.65 162.05 241.71C161.35 242.77 160.67 243.77 159.95 244.78C158.52 246.78 157.01 248.78 155.35 250.78C153.623 252.878 151.738 254.841 149.71 256.65C148.526 257.708 147.255 258.665 145.91 259.51C144.11 260.667 142.114 261.487 140.02 261.93L139.41 262.06H138.3C133.57 262.06 129.08 261.78 124.6 261.47C122.36 261.31 120.13 261.133 117.91 260.94C115.67 260.74 113.49 260.53 111.2 260.29L113.82 242.18Z" fill="white"/>
<path opacity="0.2" d="M368 318L368.42 333.6H326.46L325.78 308.31H365.7L365.16 306.02H325.72L325.05 280.73H346.29C346.29 279.96 346.29 279.19 346.29 278.43H325L324.36 254.57H320.95L325.21 415H328.63L328 391.11H369.92L370.56 414.96H374L371.86 334.53L368 318ZM326.56 335.9H368.48L369.15 361.19H327.19L326.56 335.9ZM327.97 388.78L327.3 363.49H369.22L369.89 388.78H327.97Z" fill="black"/>
<path d="M396.22 422.8H399.64L370.42 254.6H367L371.34 279.6H329.43L325.09 254.6H321.67L350.89 422.8H354.3L349.96 397.8H391.88L396.22 422.8ZM381.83 339.91L386.43 366.43H344.51L339.91 339.91H381.83ZM339.49 337.49L334.88 311H376.8L381.41 337.52L339.49 337.49ZM371.77 282L376.38 308.53H334.46L329.85 282H371.77ZM349.54 395.37L344.93 368.84H386.85L391.46 395.37H349.54Z" fill="#263238"/>
<path d="M376.76 224.23L376.13 222.12C376.011 221.729 375.987 221.316 376.06 220.914C376.133 220.512 376.301 220.134 376.55 219.81L378.91 216.75C379.379 216.143 379.987 215.657 380.684 215.335C381.38 215.013 382.144 214.864 382.91 214.9H383.91C385.21 218.32 384.09 222.98 384.09 222.98L383.92 224.34C383.893 224.62 383.81 224.892 383.677 225.14C383.543 225.389 383.362 225.608 383.144 225.785C382.925 225.963 382.673 226.096 382.403 226.175C382.133 226.255 381.85 226.28 381.57 226.25L378.86 225.95C378.38 225.9 377.926 225.71 377.553 225.404C377.179 225.099 376.904 224.69 376.76 224.23Z" fill="#7F3E3B"/>
<path d="M380.12 214.82L379 216.49C382.061 217.944 385.203 219.223 388.41 220.32C388.838 219.573 389.319 218.858 389.85 218.18L380.12 214.82Z" fill="white"/>
<path d="M372.5 164.53C374.34 166.13 376.06 167.68 377.8 169.29C379.54 170.9 381.26 172.51 382.96 174.17C386.478 177.531 389.816 181.076 392.96 184.79L393.49 185.43L393.74 185.92C394.652 187.736 395.215 189.707 395.4 191.73C395.555 193.285 395.581 194.85 395.48 196.41C395.289 199.149 394.891 201.87 394.29 204.55C393.74 207.13 393.07 209.62 392.29 212.07C391.51 214.52 390.77 216.88 389.83 219.41L378.83 215.46C379.49 213.4 380.15 211.08 380.7 208.88C381.25 206.68 381.7 204.41 382.11 202.22C382.479 200.135 382.693 198.026 382.75 195.91C382.77 195.04 382.716 194.171 382.59 193.31C382.563 192.905 382.443 192.512 382.24 192.16L383.03 193.29C380.025 190.128 376.857 187.124 373.54 184.29C371.85 182.82 370.13 181.38 368.39 179.95C366.65 178.52 364.87 177.09 363.16 175.76L372.5 164.53Z" fill="#8CC0DE"/>
<path opacity="0.7" d="M372.5 164.53C374.34 166.13 376.06 167.68 377.8 169.29C379.54 170.9 381.26 172.51 382.96 174.17C386.478 177.531 389.816 181.076 392.96 184.79L393.49 185.43L393.74 185.92C394.652 187.736 395.215 189.707 395.4 191.73C395.555 193.285 395.581 194.85 395.48 196.41C395.289 199.149 394.891 201.87 394.29 204.55C393.74 207.13 393.07 209.62 392.29 212.07C391.51 214.52 390.77 216.88 389.83 219.41L378.83 215.46C379.49 213.4 380.15 211.08 380.7 208.88C381.25 206.68 381.7 204.41 382.11 202.22C382.479 200.135 382.693 198.026 382.75 195.91C382.77 195.04 382.716 194.171 382.59 193.31C382.563 192.905 382.443 192.512 382.24 192.16L383.03 193.29C380.025 190.128 376.857 187.124 373.54 184.29C371.85 182.82 370.13 181.38 368.39 179.95C366.65 178.52 364.87 177.09 363.16 175.76L372.5 164.53Z" fill="white"/>
<path d="M361.57 149.87C360.72 153.77 359.8 160.93 362.47 163.53C362.47 163.53 358.74 162.97 351.15 167.83C348.7 164.57 350.34 163.53 350.34 163.53C354.71 162.53 354.67 159.26 353.98 156.23L361.57 149.87Z" fill="#7F3E3B"/>
<path d="M347.23 143.34C347.13 143.86 346.78 144.24 346.44 144.19C346.1 144.14 345.9 143.66 346 143.13C346.1 142.6 346.45 142.23 346.79 142.29C347.13 142.35 347.33 142.82 347.23 143.34Z" fill="#263238"/>
<path d="M346.92 139.92C346.84 139.908 346.766 139.869 346.71 139.81C346.663 139.744 346.644 139.661 346.657 139.581C346.67 139.5 346.714 139.428 346.78 139.38C347.175 139.071 347.636 138.859 348.128 138.76C348.619 138.661 349.126 138.678 349.61 138.81C349.649 138.821 349.686 138.84 349.718 138.867C349.749 138.893 349.775 138.925 349.793 138.962C349.811 138.999 349.821 139.039 349.822 139.08C349.823 139.121 349.816 139.162 349.8 139.2C349.771 139.277 349.713 139.34 349.638 139.375C349.564 139.411 349.478 139.416 349.4 139.39C349.016 139.291 348.614 139.283 348.225 139.364C347.837 139.446 347.472 139.615 347.16 139.86C347.127 139.888 347.089 139.908 347.047 139.918C347.005 139.928 346.962 139.929 346.92 139.92Z" fill="#263238"/>
<path d="M346.83 144.31C346.14 145.416 345.306 146.425 344.35 147.31C344.581 147.546 344.861 147.727 345.171 147.841C345.48 147.955 345.811 147.999 346.14 147.97L346.83 144.31Z" fill="#630F0F"/>
<path d="M346.94 142.34L345.75 141.77C345.75 141.77 346.21 142.86 346.94 142.34Z" fill="#263238"/>
<path d="M364.82 144.29C363.38 150.46 362.91 153.1 359.19 155.78C353.59 159.78 346.25 156.72 345.8 150.26C345.39 144.44 347.8 135.34 354.4 133.86C355.838 133.52 357.339 133.553 358.761 133.957C360.182 134.36 361.477 135.121 362.521 136.167C363.566 137.212 364.325 138.507 364.728 139.929C365.13 141.351 365.162 142.852 364.82 144.29Z" fill="#7F3E3B"/>
<path d="M350.34 145.05C348.66 144.65 349.65 139.71 350.34 138.69C346.97 137.74 344.39 135.01 348.24 132.39C352.09 129.77 355.45 128.79 357.19 129.95C358.24 126.95 365.06 128.3 368.4 133.64C371.57 138.69 369.1 142.73 366.83 142.9C370.43 145.9 365.73 151.67 361.66 152.83C361.43 156.83 354.52 157.01 351.39 153.99C348.26 150.97 350.34 145.05 350.34 145.05Z" fill="#263238"/>
<path d="M353.08 146.08C352.913 146.656 352.623 147.189 352.229 147.641C351.835 148.094 351.347 148.455 350.8 148.7C349.41 149.24 348.51 147.64 348.73 145.92C348.93 144.37 349.88 142.22 351.36 142.43C352.84 142.64 353.57 144.53 353.08 146.08Z" fill="#7F3E3B"/>
<path d="M395.78 330.57C399.86 327.99 399.21 326.94 401.45 325.41C403.37 324.1 404.01 324.05 405.57 323.02C406.87 322.16 405.95 320.88 404.57 319.64C403.86 319.01 402.93 318.29 401.84 317.25L395.64 321.17C395.9 323.37 395.36 326.84 393.27 328.61C391.18 330.38 394.15 331.6 395.78 330.57Z" fill="#263238"/>
<path d="M344.07 337.49C351.01 337.49 350.56 337.28 353.29 337.23C355.29 337.23 354.74 337.49 358.46 337.49C360.03 337.49 360.17 335.72 359.59 334.39C358.971 333.23 358.453 332.018 358.04 330.77H351.33C350.14 332.9 346.85 334.47 343.16 334.77C340.53 334.93 342.12 337.49 344.07 337.49Z" fill="#263238"/>
<path d="M342.11 204.91C342.11 204.91 341.33 239.91 343.53 262.13C343.53 282.99 351.34 330.77 351.34 330.77C351.5 331.84 357.1 331.41 358.04 330.77C358.04 330.77 362.32 295.77 357.48 261.94C368.94 226.64 368.05 204.94 368.05 204.94L342.11 204.91Z" fill="#263238"/>
<path d="M349.09 204.91C349.09 204.91 362.53 244.41 368.16 263.81C374.06 284.18 388.61 309.22 395.62 321.17C396.95 321.17 400.34 319.05 401.82 317.25C394.21 303.74 394 284.81 382.41 264.71C382.52 216.46 374.64 204.91 374.64 204.91H349.09Z" fill="#263238"/>
<path d="M393.55 319.07C394.06 319.871 394.514 320.707 394.91 321.57C394.94 321.644 394.984 321.711 395.04 321.768C395.096 321.825 395.162 321.87 395.236 321.901C395.309 321.931 395.388 321.947 395.468 321.947C395.548 321.947 395.627 321.931 395.7 321.9C398.034 320.715 400.177 319.188 402.06 317.37C402.145 317.287 402.201 317.18 402.221 317.063C402.241 316.946 402.223 316.826 402.17 316.72L401 314.28C400.965 314.203 400.913 314.134 400.849 314.078C400.785 314.023 400.71 313.981 400.629 313.956C400.547 313.932 400.462 313.925 400.377 313.936C400.293 313.947 400.212 313.975 400.14 314.02L393.66 318.3C393.602 318.343 393.554 318.398 393.517 318.46C393.48 318.522 393.456 318.591 393.446 318.662C393.435 318.734 393.439 318.807 393.457 318.876C393.475 318.946 393.507 319.012 393.55 319.07Z" fill="#EC9292"/>
<path opacity="0.3" d="M393.55 319.07C394.06 319.871 394.514 320.707 394.91 321.57C394.94 321.644 394.984 321.711 395.04 321.768C395.096 321.825 395.162 321.87 395.236 321.901C395.309 321.931 395.388 321.947 395.468 321.947C395.548 321.947 395.627 321.931 395.7 321.9C398.034 320.715 400.177 319.188 402.06 317.37C402.145 317.287 402.201 317.18 402.221 317.063C402.241 316.946 402.223 316.826 402.17 316.72L401 314.28C400.965 314.203 400.913 314.134 400.849 314.078C400.785 314.023 400.71 313.981 400.629 313.956C400.547 313.932 400.462 313.925 400.377 313.936C400.293 313.947 400.212 313.975 400.14 314.02L393.66 318.3C393.602 318.343 393.554 318.398 393.517 318.46C393.48 318.522 393.456 318.591 393.446 318.662C393.435 318.734 393.439 318.807 393.457 318.876C393.475 318.946 393.507 319.012 393.55 319.07Z" fill="white"/>
<path d="M350.24 328.28C350.24 329.01 350.29 330.28 350.24 331.28C350.237 331.434 350.294 331.584 350.398 331.697C350.502 331.811 350.646 331.88 350.8 331.89C353.272 331.97 355.745 331.823 358.19 331.45C358.307 331.432 358.415 331.376 358.498 331.291C358.581 331.207 358.634 331.097 358.65 330.98L359.01 328.36C359.02 328.274 359.011 328.187 358.985 328.105C358.959 328.023 358.916 327.947 358.858 327.883C358.8 327.818 358.73 327.767 358.651 327.732C358.572 327.697 358.486 327.679 358.4 327.68L350.75 327.75C350.615 327.762 350.49 327.822 350.396 327.92C350.302 328.017 350.247 328.145 350.24 328.28Z" fill="#EC9292"/>
<path opacity="0.3" d="M350.24 328.28C350.24 329.01 350.29 330.28 350.24 331.28C350.237 331.434 350.294 331.584 350.398 331.697C350.502 331.811 350.646 331.88 350.8 331.89C353.272 331.97 355.745 331.823 358.19 331.45C358.307 331.432 358.415 331.376 358.498 331.291C358.581 331.207 358.634 331.097 358.65 330.98L359.01 328.36C359.02 328.274 359.011 328.187 358.985 328.105C358.959 328.023 358.916 327.947 358.858 327.883C358.8 327.818 358.73 327.767 358.651 327.732C358.572 327.697 358.486 327.679 358.4 327.68L350.75 327.75C350.615 327.762 350.49 327.822 350.396 327.92C350.302 328.017 350.247 328.145 350.24 328.28Z" fill="white"/>
<path d="M339 173.46C339.06 176.09 339.13 179.41 339.82 185.68C340.3 190.99 340.94 196.21 342.16 204.91H374.69C373.76 197.39 369.53 188.81 373.44 171.91C373.662 170.995 373.685 170.043 373.508 169.118C373.33 168.193 372.956 167.317 372.411 166.55C371.866 165.782 371.162 165.14 370.348 164.667C369.534 164.195 368.627 163.902 367.69 163.81C366.63 163.71 365.5 163.62 364.35 163.56C359.925 163.27 355.485 163.27 351.06 163.56C349.74 163.68 348.39 163.85 347.06 164.03C344.802 164.359 342.741 165.497 341.259 167.231C339.776 168.965 338.974 171.179 339 173.46Z" fill="#EC9292"/>
<path d="M285.11 195C286.059 196.085 287.177 197.011 288.42 197.74C290 198.67 291.752 199.269 293.571 199.503C295.389 199.737 297.236 199.6 299 199.1L298.52 193.22C297.344 194.003 295.988 194.474 294.58 194.59C294.297 194.605 294.013 194.605 293.73 194.59C292.526 194.568 291.34 194.286 290.256 193.762C289.171 193.238 288.212 192.486 287.446 191.556C286.68 190.627 286.124 189.542 285.817 188.378C285.51 187.213 285.459 185.995 285.667 184.809C285.876 183.623 286.338 182.495 287.024 181.505C287.71 180.514 288.601 179.684 289.638 179.071C290.676 178.459 291.833 178.078 293.031 177.955C294.23 177.832 295.44 177.97 296.58 178.36L297.32 178.64L296 162.73L280 164C280.14 163.69 280.263 163.373 280.37 163.05C280.681 162.027 280.796 160.955 280.71 159.89C280.527 157.685 279.476 155.644 277.788 154.213C276.101 152.783 273.915 152.08 271.71 152.26C271.064 152.321 270.427 152.452 269.81 152.65C268.761 152.987 267.79 153.529 266.954 154.245C266.117 154.961 265.431 155.837 264.936 156.82C264.44 157.804 264.146 158.877 264.07 159.975C263.993 161.074 264.136 162.177 264.49 163.22C264.486 163.263 264.486 163.307 264.49 163.35C264.486 163.37 264.486 163.39 264.49 163.41C264.715 164.042 265.017 164.643 265.39 165.2L249.46 166.51L250.77 182.44C250.99 182.29 251.22 182.17 251.45 182.04C252.699 181.369 254.098 181.027 255.516 181.048C256.934 181.068 258.323 181.449 259.552 182.155C260.781 182.862 261.81 183.87 262.542 185.084C263.273 186.299 263.683 187.68 263.732 189.097C263.782 190.514 263.469 191.92 262.823 193.182C262.178 194.445 261.222 195.522 260.044 196.312C258.867 197.102 257.508 197.579 256.095 197.697C254.682 197.816 253.263 197.573 251.97 196.99L252.48 203.19C258.25 201.62 264.33 199.74 270.55 197.64C272.974 198.647 275.637 198.934 278.219 198.466C280.802 197.998 283.194 196.794 285.11 195Z" fill="white"/>
<path d="M291.75 173.19L293.92 172.8C294.321 172.725 294.733 172.748 295.123 172.867C295.513 172.985 295.869 173.195 296.16 173.48L298.93 176.18C299.476 176.713 299.886 177.368 300.128 178.092C300.37 178.815 300.436 179.586 300.32 180.34L300.17 181.29C296.62 182.18 292.17 180.53 292.17 180.53L290.83 180.2C290.556 180.14 290.296 180.026 290.065 179.865C289.835 179.704 289.638 179.499 289.487 179.263C289.336 179.026 289.232 178.762 289.183 178.485C289.134 178.208 289.14 177.924 289.2 177.65L289.82 175C289.934 174.545 290.176 174.132 290.518 173.811C290.861 173.49 291.288 173.274 291.75 173.19Z" fill="#7F3E3B"/>
<path d="M300.71 177.61L299.18 176.26C297.387 179.137 295.754 182.112 294.29 185.17C294.994 185.68 295.662 186.238 296.29 186.84L300.71 177.61Z" fill="white"/>
<path d="M347.73 162.18C340.73 163.18 336.16 167.98 335.5 183.67C335.268 195.429 335.665 207.193 336.69 218.91C335.69 247.25 334.03 287.09 338.95 300.38C356.8 307 385.82 297.7 399.38 290.85C394.99 280.85 385.95 246.33 381.77 219.18C379.58 204.91 376.88 182.85 376.24 173.74C375.6 164.63 370.86 162.8 366.34 161.89C361.82 160.98 355.24 161.12 347.73 162.18Z" fill="#8CC0DE"/>
<path opacity="0.8" d="M347.73 162.18C340.73 163.18 336.16 167.98 335.5 183.67C335.268 195.429 335.665 207.193 336.69 218.91C335.69 247.25 334.03 287.09 338.95 300.38C356.8 307 385.82 297.7 399.38 290.85C394.99 280.85 385.95 246.33 381.77 219.18C379.58 204.91 376.88 182.85 376.24 173.74C375.6 164.63 370.86 162.8 366.34 161.89C361.82 160.98 355.24 161.12 347.73 162.18Z" fill="white"/>
<path opacity="0.2" d="M335.5 183.65C335.41 185.77 335.38 188.8 335.42 192.37C340.98 187.77 343.52 180.01 343.52 180.01L335.5 183.65Z" fill="#EC9292"/>
<path d="M350.76 176.15C349.02 177.79 347.36 179.29 345.64 180.82C343.92 182.35 342.18 183.82 340.41 185.31C336.795 188.37 333.005 191.218 329.06 193.84L328.35 194.29L327.84 194.48C325.921 195.187 323.885 195.526 321.84 195.48C320.276 195.456 318.717 195.299 317.18 195.01C314.464 194.51 311.789 193.805 309.18 192.9C306.68 192.05 304.29 191.1 301.93 190.08C299.57 189.06 297.33 188.02 294.93 186.79L300.12 176.36C302.12 177.25 304.32 178.18 306.44 178.98C308.56 179.78 310.76 180.53 312.9 181.15C314.926 181.761 316.995 182.219 319.09 182.52C319.951 182.64 320.821 182.687 321.69 182.66C322.097 182.671 322.502 182.6 322.88 182.45L321.66 183.1C324.99 180.578 328.171 177.867 331.19 174.98C332.76 173.52 334.31 171.98 335.84 170.49C337.37 169 338.91 167.39 340.32 165.89L350.76 176.15Z" fill="#8CC0DE"/>
<path opacity="0.8" d="M350.76 176.15C349.02 177.79 347.36 179.29 345.64 180.82C343.92 182.35 342.18 183.82 340.41 185.31C336.795 188.37 333.005 191.218 329.06 193.84L328.35 194.29L327.84 194.48C325.921 195.187 323.885 195.526 321.84 195.48C320.276 195.456 318.717 195.299 317.18 195.01C314.464 194.51 311.789 193.805 309.18 192.9C306.68 192.05 304.29 191.1 301.93 190.08C299.57 189.06 297.33 188.02 294.93 186.79L300.12 176.36C302.12 177.25 304.32 178.18 306.44 178.98C308.56 179.78 310.76 180.53 312.9 181.15C314.926 181.761 316.995 182.219 319.09 182.52C319.951 182.64 320.821 182.687 321.69 182.66C322.097 182.671 322.502 182.6 322.88 182.45L321.66 183.1C324.99 180.578 328.171 177.867 331.19 174.98C332.76 173.52 334.31 171.98 335.84 170.49C337.37 169 338.91 167.39 340.32 165.89L350.76 176.15Z" fill="white"/>
<path d="M363.94 129.93C361.72 129.28 358.85 131.62 360.02 135.11C361.19 138.6 364.66 140.25 367.39 139.11C370.12 137.97 368.85 131.35 363.94 129.93Z" fill="#EC9292"/>
<path d="M362.35 135.08C360.86 129.25 368.35 120.94 371.96 131.56C374.18 138.11 363.78 140.64 362.35 135.08Z" fill="#263238"/>
</svg>
