<svg width="500" height="500" viewBox="0 0 500 500" fill="none" xmlns="http://www.w3.org/2000/svg">
<path d="M351.48 138.48C348.41 123.63 333.28 75.37 268.03 78.12C235.62 79.48 217.72 94.82 208.4 107.45C202.335 115.606 198.04 124.938 195.79 134.85L195.72 135.26H159.57V134.76C159.57 134.61 159.57 119.96 161.15 112.61L162.15 112.81C160.78 119.3 160.61 131.63 160.59 134.26H194.91C197.241 124.373 201.555 115.061 207.59 106.89C217 94.07 235.16 78.5 268 77.12C294.75 76 316.16 83.3 331.6 98.83C345.55 112.83 350.66 129.57 352.46 138.28L351.48 138.48Z" fill="#EC9292"/>
<path d="M291.49 370.18H237.38V216.07L237.97 216.18C289.08 225.18 311.26 202.54 319.97 188.24C330.21 171.35 331.97 150.97 324.77 133.73C320.26 123.09 306.21 98.42 272 99C255.26 99.29 232.77 104.57 220.64 128.08C216.195 136.923 213.686 146.611 213.28 156.5V157H145.4V156.51C145.34 150.79 145.4 131.39 145.4 131.2V130.64L153.77 131.52V144L202.77 143.93C204.884 133.683 208.959 123.941 214.77 115.24C223.6 102.14 240.55 86.6 271 86.6H272C294.3 86.84 312.7 94.68 325.22 109.28C338.71 125.01 342.79 145.78 340.84 159.4C340.84 159.66 339.56 191 316.01 211.87C299.58 226.44 276.45 232.57 247.25 230.09V278H257.33V239.73L257.87 239.78C267.001 240.263 276.156 239.571 285.11 237.72C298.85 234.9 317.81 227.97 330.11 210.94C352.16 180.32 352.4 163.01 352.57 150.37C352.57 149.37 352.57 148.37 352.57 147.37L352.46 144.85H367.46V145.3C367.46 145.62 369.86 176.84 343.84 211.87C327.65 233.66 308.68 247.7 290.43 251.38L290.24 250.38C308.24 246.75 326.99 232.85 343.04 211.25C367.11 178.85 366.67 149.79 366.49 145.83H353.49L353.55 147.34C353.55 148.34 353.55 149.34 353.55 150.34C353.37 163.11 353.13 180.61 330.91 211.48C318.45 228.78 299.23 235.81 285.3 238.67C276.422 240.49 267.352 241.195 258.3 240.77V279H246.26V229L246.8 229.05C275.96 231.62 299.03 225.59 315.35 211.13C338.58 190.55 339.85 159.63 339.86 159.32C341.78 145.87 337.76 125.42 324.48 109.93C312.15 95.57 294 87.85 272 87.61C241.34 87.28 224.41 102.75 215.59 115.78C209.734 124.479 205.656 134.249 203.59 144.53L203.52 144.95L152.71 145.02V132.41L146.34 131.74C146.34 134.87 146.34 150.35 146.34 155.99H212.26C212.745 146.126 215.279 136.471 219.7 127.64C226.57 114.41 241.17 98.52 272 98H273.22C307.11 98 321.16 122.66 325.65 133.36C333.01 150.9 331.19 171.62 320.78 188.78C313.36 201.01 296.23 219.25 260.11 219.26C252.823 219.215 245.553 218.546 238.38 217.26V369.18H291.49V370.18Z" fill="#EC9292"/>
<path d="M305.49 369.68H304.49V279.68L304.86 279.58C305.1 279.52 328.59 273.29 351.76 254.52C373.13 237.2 398.6 205.37 398.6 152C398.6 110.07 381.6 76.4 349.6 54.6C323.11 36.6 291.27 30.21 272.06 30.21C243.71 30.21 175.35 37.43 152.86 104.26C151.056 110.363 149.682 116.585 148.75 122.88L147.75 122.74C148.684 116.405 150.06 110.143 151.87 104C174.57 36.51 243.46 29.22 272 29.22C291.35 29.22 323.42 35.66 350.11 53.78C382.47 75.78 399.58 109.78 399.58 152.01C399.58 205.78 373.89 237.87 352.34 255.31C338.447 266.574 322.542 275.098 305.47 280.43L305.49 369.68Z" fill="#EC9292"/>
<path d="M298.05 311.81H297.05L297.12 271.58L297.54 271.51C297.65 271.51 308.88 269.69 323.44 261.83C336.88 254.57 355.98 240.53 370.69 214.83C391.69 178.14 387.86 149.9 387.82 149.62C385.34 113.4 371.09 85.21 345.48 65.78C318.73 45.48 287.9 41.17 271.91 40.4C259.41 39.8 237.65 41.9 217.49 49.81C190.16 60.53 172.02 78.69 163.58 103.81L162.58 103.49C171.12 78.1 189.46 59.74 217.07 48.91C237.38 40.91 259.31 38.83 271.91 39.43C288.01 40.2 319.07 44.56 346.04 65.02C371.89 84.63 386.26 113.07 388.76 149.54C388.76 149.79 392.67 178.35 371.5 215.35C356.67 241.3 337.39 255.46 323.83 262.78C310.72 269.86 300.26 272.07 298.07 272.48L298.05 311.81Z" fill="#EC9292"/>
<path d="M297.97 361.09H257.84V360.09H296.97L297.02 329H298.02L297.97 361.09Z" fill="#EC9292"/>
<path d="M257.84 361.09H247.09V290.41H258.34V352.2H257.34V291.41H248.09V360.09H257.84V361.09Z" fill="#EC9292"/>
<path d="M188.41 123.32H170.48V122.8C171.06 103.97 178.82 91.63 185.23 84.6C189.017 80.3565 193.502 76.7918 198.49 74.06L189 65.84L189.65 65.09L200.34 74.3L199.63 74.62C199.37 74.75 172.86 87.3 171.54 122.32H188C188.79 118.82 195.11 93.55 212.28 86.9L206.68 81C204.59 81.64 190.59 86.81 182.82 112.61L181.82 112.32C190.42 84 206.07 80.14 206.73 80L207.01 79.94L214.08 87.33L213.35 87.59C195 94 189 122.63 188.9 122.92L188.82 123.32H188.41Z" fill="#EC9292"/>
<path d="M218.55 81.17L196.24 60.43L196.92 59.69L218.54 79.8C221.358 77.428 224.458 75.4128 227.77 73.8C236.994 69.3354 247.009 66.739 257.24 66.16C284.24 64.26 303.45 69.36 311.98 74.41L319.39 62C313.67 59.49 260.82 37.53 217.65 62.53L217.15 61.66C263.08 35.07 319.75 61.05 320.32 61.32L320.82 61.55L312.32 75.84L311.89 75.57C303.72 70.51 284.53 65.29 257.31 67.21C231.39 69 219 80.72 218.89 80.84L218.55 81.17Z" fill="#EC9292"/>
<path d="M288.12 347.81H287.12L288.64 262.6H289.13C317.81 262.39 357.88 221.42 369.35 189.28C385.35 144.43 372.35 113.02 358.61 94.57C349.571 82.5306 338.125 72.5046 325 65.13L317.72 78.34C322.63 80.42 359.81 97.53 360.12 137.68L375.9 137.8V138.8L359.13 138.67V138.17C359.13 95.74 317.26 79.22 316.84 79.05L316.3 78.85L324.6 63.85L325 64C338.444 71.4216 350.159 81.613 359.37 93.9C373.26 112.55 386.43 144.29 370.27 189.58C363.81 207.68 350.42 226.58 333.52 241.29C317.88 254.96 301.52 263.24 289.61 263.55L288.12 347.81Z" fill="#EC9292"/>
<path d="M279.73 348.3H266.08L266.09 347.79L267.68 259.79L267.64 253.93H279.96V337.2H278.96V254.93H268.64L268.68 259.8L267.1 347.3H279.73V348.3Z" fill="#EC9292"/>
<path d="M366.72 241C365.87 240 360.37 234.41 359 233L358.86 232.85L358.71 232.71C358.635 232.656 358.581 232.578 358.557 232.488C358.534 232.399 358.542 232.304 358.58 232.22L358.96 231.87C359.07 231.87 359.14 231.87 359.38 232.04L359.66 232.33C360.18 232.81 361.13 233.78 363.03 235.71C365.55 238.27 367.03 239.83 367.47 240.36L366.72 241Z" fill="#EC9292"/>
<path d="M334.983 46.1346L328.834 53.9317L329.619 54.5509L335.768 46.7538L334.983 46.1346Z" fill="#EC9292"/>
<path d="M331.74 152.5C330.94 152.5 330.17 152.5 329.5 152.5V151.5C331.09 151.56 333.14 151.5 335.13 151.5C337.12 151.5 339.2 151.45 340.81 151.5V152.5C339.22 152.45 337.16 152.5 335.17 152.5H331.74Z" fill="#EC9292"/>
<path d="M176.89 144.61H175.89V156.05H176.89V144.61Z" fill="#EC9292"/>
<path d="M269.49 87.87H268.49V97.71H269.49V87.87Z" fill="#EC9292"/>
<path d="M359.254 210.584L358.853 211.5L370.314 216.516L370.715 215.6L359.254 210.584Z" fill="#EC9292"/>
<path d="M311.925 228.019L311.131 228.626L318.428 238.178L319.223 237.57L311.925 228.019Z" fill="#EC9292"/>
<path d="M394.151 114.301L382.415 117.562L382.683 118.526L394.418 115.264L394.151 114.301Z" fill="#EC9292"/>
<path d="M306.3 448.17H237.2V395.6H238.2V447.17H305.3V384.56H237.7V383.56H306.3V448.17Z" fill="#EC9292"/>
<path d="M298.02 437.28H247.09V406.31H288.12V424.79H257.84V415.88H277.68V416.88H258.84V423.79H287.12V407.31H248.09V436.28H297.02V396.48H237.7V395.48H298.02V437.28Z" fill="#EC9292"/>
<path d="M259.92 436.78H258.92V447.66H259.92V436.78Z" fill="#EC9292"/>
<path d="M305.8 412.82H297.52V413.82H305.8V412.82Z" fill="#EC9292"/>
<path d="M267.09 406.81H266.09V415.87H267.09V406.81Z" fill="#EC9292"/>
<path d="M247.59 421.62H237.7V422.62H247.59V421.62Z" fill="#EC9292"/>
<path d="M188.61 138.06L185.11 138.93L183.66 140.22L185.59 140.71L189.84 139.49L188.61 138.06Z" fill="#455A64"/>
<path d="M201.3 139.69L196 133.23H190.6L187.18 137.23C187.202 137.456 187.274 137.675 187.39 137.87C186.763 137.693 186.092 137.768 185.52 138.08L188.63 146.32L194.55 152.25L202.04 150.16L201.3 139.69ZM193.14 142.69L190.37 141.38C189.96 140.214 189.274 139.164 188.37 138.32C188.463 138.33 188.557 138.33 188.65 138.32C189.018 138.259 189.372 138.138 189.7 137.96C192.07 136.78 192.7 136.52 192.7 136.52L194.21 139.28L193.14 142.69Z" fill="#7E3E3C"/>
<path d="M197.18 137.71C196.459 137.157 195.843 136.48 195.36 135.71C194.75 135.025 194.275 134.231 193.96 133.37C194.07 133.28 194.89 134.19 195.78 135.37C196.394 136.052 196.87 136.846 197.18 137.71Z" fill="#985856"/>
<path d="M193.14 142.71C192.108 142.551 191.1 142.262 190.14 141.85H190.03V141.72C189.869 141.166 189.651 140.63 189.38 140.12C189.146 139.624 188.816 139.18 188.41 138.812C188.003 138.445 187.527 138.162 187.01 137.98C186.551 137.936 186.089 137.966 185.64 138.07C185.64 138.07 185.72 137.93 185.96 137.81C186.3 137.64 186.682 137.571 187.06 137.61C187.663 137.754 188.226 138.033 188.707 138.424C189.188 138.815 189.575 139.309 189.84 139.87C190.134 140.415 190.356 140.997 190.5 141.6L190.35 141.43C191.326 141.749 192.262 142.179 193.14 142.71Z" fill="#985856"/>
<path d="M189.46 139.59L201.8 136.32C201.915 136.289 202.023 136.235 202.117 136.161C202.211 136.088 202.29 135.996 202.348 135.892C202.405 135.787 202.442 135.672 202.454 135.553C202.467 135.434 202.455 135.314 202.42 135.2C202.355 134.995 202.218 134.821 202.034 134.711C201.849 134.6 201.631 134.561 201.42 134.6L188.28 138.16C188.748 138.57 189.146 139.053 189.46 139.59Z" fill="#455A64"/>
<path d="M95 294.05L102.48 290L102.76 292.78L99 306.92C97.7913 304.926 96.8181 302.798 96.1 300.58C96.1 300.58 94.9 295.32 94.9 294.94C94.9043 294.64 94.9446 294.341 95.02 294.05" fill="#7E3E3C"/>
<path d="M156.24 441.2L157.51 471.3L173.76 470.94L172.55 440.78L156.24 441.2Z" fill="#455A64"/>
<path d="M165.49 470C165.63 470 165.38 463.4 164.93 455.28C164.48 447.16 164.01 440.58 163.88 440.59C163.75 440.6 163.99 447.18 164.44 455.31C164.89 463.44 165.36 470 165.49 470Z" fill="#263238"/>
<path d="M157.43 469.23L173.68 468.81L173.76 470.94L157.51 471.3L157.43 469.23Z" fill="#263238"/>
<path d="M173.38 461.3C173.266 461.064 173.114 460.848 172.93 460.66C171.778 459.314 170.335 458.247 168.71 457.54C167.502 457.021 166.193 456.782 164.88 456.84C163.692 456.892 162.527 457.19 161.46 457.715C160.393 458.24 159.446 458.981 158.68 459.89C158.225 460.441 157.851 461.053 157.57 461.71C157.447 461.942 157.372 462.198 157.35 462.46C157.81 461.635 158.342 460.852 158.94 460.12C160.493 458.435 162.651 457.435 164.94 457.34C167.218 457.305 169.438 458.053 171.23 459.46C172.61 460.5 173.31 461.36 173.38 461.3Z" fill="#263238"/>
<g opacity="0.3">
<path d="M156.63 453.36L156.87 456.04H173.16L173.06 453.36H156.63Z" fill="black"/>
</g>
<path d="M101.45 443.31L100.87 461.36C100.87 461.36 82.71 468.23 82.59 471.63L118.07 471.18L118.9 443L101.45 443.31Z" fill="#455A64"/>
<path d="M111.6 459.63C111.947 459.728 112.246 459.951 112.439 460.255C112.633 460.559 112.708 460.924 112.65 461.28C112.564 461.63 112.347 461.934 112.044 462.13C111.741 462.325 111.374 462.397 111.02 462.33C110.652 462.227 110.336 461.99 110.133 461.667C109.93 461.344 109.854 460.956 109.92 460.58C110.047 460.225 110.306 459.933 110.643 459.763C110.98 459.594 111.369 459.561 111.73 459.67" fill="#E0E0E0"/>
<path d="M118.07 471.18V468.9L83.6 470C83.2897 470.201 83.0239 470.464 82.8192 470.771C82.6145 471.079 82.4752 471.426 82.41 471.79L118.07 471.18Z" fill="#263238"/>
<path d="M100.55 461.48C100.55 461.66 101.44 461.72 102.31 462.26C103.18 462.8 103.66 463.52 103.82 463.45C103.98 463.38 103.69 462.37 102.62 461.74C101.55 461.11 100.51 461.32 100.55 461.48Z" fill="#263238"/>
<path d="M96.83 463.12C96.83 463.29 97.56 463.57 98.17 464.3C98.78 465.03 98.97 465.8 99.17 465.79C99.37 465.78 99.44 464.79 98.66 463.9C97.88 463.01 96.83 463 96.83 463.12Z" fill="#263238"/>
<path d="M94.8 467.67C94.96 467.67 95.18 466.82 94.71 465.88C94.24 464.94 93.41 464.57 93.34 464.71C93.27 464.85 93.79 465.36 94.17 466.15C94.55 466.94 94.63 467.66 94.8 467.67Z" fill="#263238"/>
<path d="M100.77 457.25C100.84 457.41 101.64 457.15 102.63 457.19C103.62 457.23 104.4 457.53 104.49 457.38C104.58 457.23 103.82 456.62 102.65 456.59C101.48 456.56 100.68 457.12 100.77 457.25Z" fill="#263238"/>
<path d="M100 453.32C100.59 453.468 101.209 453.451 101.79 453.27C102.433 453.141 103.058 452.933 103.65 452.65C103.996 452.482 104.33 452.292 104.65 452.08C104.851 451.965 105.03 451.816 105.18 451.64C105.292 451.514 105.358 451.354 105.369 451.185C105.38 451.017 105.335 450.85 105.24 450.71C105.148 450.593 105.031 450.499 104.898 450.433C104.765 450.367 104.619 450.332 104.47 450.33C104.239 450.336 104.011 450.373 103.79 450.44C103.411 450.542 103.043 450.679 102.69 450.85C102.088 451.131 101.538 451.509 101.06 451.97C100.25 452.76 99.98 453.42 100.06 453.45C100.14 453.48 100.53 452.95 101.36 452.3C101.844 451.919 102.375 451.603 102.94 451.36C103.262 451.215 103.597 451.101 103.94 451.02C104.32 450.91 104.64 450.9 104.74 451.02C104.84 451.14 104.74 451.11 104.74 451.23C104.623 451.349 104.492 451.453 104.35 451.54C104.048 451.748 103.734 451.938 103.41 452.11C102.861 452.398 102.285 452.633 101.69 452.81C101.116 452.941 100.551 453.112 100 453.32Z" fill="#263238"/>
<g opacity="0.3">
<path d="M118.59 453.58L118.47 457.74L100.98 458.01L101.14 454.24L118.59 453.58Z" fill="black"/>
</g>
<path d="M111.23 152.65L119.83 189.05L140.29 186.33L138.79 174.72C138.79 174.72 146.25 174.84 146.9 167.82C147.11 165.48 145.29 155.14 143.5 145.76C143.09 143.615 142.258 141.573 141.053 139.752C139.848 137.931 138.294 136.368 136.48 135.152C134.666 133.936 132.629 133.093 130.487 132.67C128.345 132.247 126.14 132.254 124 132.69C121.834 133.13 119.779 134.002 117.956 135.252C116.134 136.502 114.581 138.105 113.39 139.967C112.199 141.828 111.394 143.91 111.023 146.089C110.652 148.268 110.722 150.499 111.23 152.65Z" fill="#7E3E3C"/>
<path d="M130.11 131.39C131.87 132.03 131.42 132.9 131.79 133.69C132.16 134.48 133.7 134.42 135.22 135.02C136.74 135.62 140.22 138.41 141.15 140.15C142.08 141.89 141.52 142.1 141.35 143.08C141.18 144.06 142.58 148.97 142.78 149.84C143.16 151.49 143.89 156.35 143.89 156.35L142.42 157.12C142.42 157.12 141.65 151.8 139.92 151.83C138.19 151.86 137.76 153.67 137.68 154.16C137.166 154.908 136.787 155.741 136.56 156.62C136.18 158.94 136.35 162.33 136.18 164.46C135.91 167.75 132.3 172.62 132.3 172.62L116.3 174.1C116.3 174.1 109.05 157.7 108.58 153.42C108.11 149.14 109.75 143.42 112.15 139.56C113.322 137.904 114.754 136.449 116.39 135.25C117.553 134.446 118.769 133.721 120.03 133.08C122.793 131.718 125.867 131.11 128.94 131.32L130.11 131.39Z" fill="#263238"/>
<path d="M142.52 162.38C142.52 162.38 142.52 162.64 142.17 162.97C141.715 163.422 141.101 163.677 140.46 163.68C139.984 163.668 139.515 163.555 139.086 163.348C138.657 163.141 138.276 162.845 137.97 162.48C137.256 161.588 136.818 160.507 136.71 159.37C136.403 157.353 136.721 155.291 137.62 153.46C137.907 152.903 138.339 152.433 138.87 152.1C139.053 151.965 139.273 151.889 139.5 151.88C138.835 152.316 138.297 152.919 137.94 153.63C137.187 155.419 136.941 157.381 137.23 159.3C137.322 160.339 137.707 161.331 138.34 162.16C138.595 162.488 138.914 162.759 139.279 162.957C139.644 163.155 140.046 163.275 140.46 163.31C141.027 163.333 141.585 163.16 142.04 162.82C142.36 162.57 142.48 162.36 142.52 162.38Z" fill="#985856"/>
<path d="M140.6 160C140.65 160 140.26 160.3 139.71 160C139.412 159.775 139.172 159.481 139.012 159.143C138.852 158.805 138.776 158.434 138.79 158.06C138.78 157.333 139.024 156.626 139.48 156.06C139.83 155.63 140.15 155.5 140.19 155.55C139.685 156.292 139.385 157.155 139.32 158.05C139.304 158.35 139.349 158.65 139.452 158.931C139.555 159.213 139.714 159.471 139.92 159.69C140.26 159.94 140.59 159.89 140.6 160Z" fill="#985856"/>
<path d="M105.36 279.35L97.84 310.64V456.83L120.38 457.5L122.38 370.58L133.71 316.79L144.14 372.07L154.61 455.28L174.68 454.7C174.68 454.7 171.27 419.48 171.87 409.64C172.47 399.8 168.36 368.79 168.36 368.79C168.36 368.79 169 317.02 167.93 310.79C166.72 303.79 165.7 281.07 165.7 280.18L105.36 279.35Z" fill="#EFCDD0"/>
<path d="M133.68 317.1C132.479 317.433 131.26 317.7 130.03 317.9C127.78 318.36 124.68 319.07 121.31 320.05C117.94 321.03 114.93 322.05 112.78 322.91C110.63 323.77 109.3 324.26 109.27 324.19C109.542 323.99 109.837 323.826 110.15 323.7C110.72 323.41 111.58 323.02 112.64 322.57C115.42 321.406 118.264 320.405 121.16 319.57C124.057 318.738 126.998 318.07 129.97 317.57C131.11 317.38 132.04 317.26 132.68 317.19C133.007 317.109 133.344 317.079 133.68 317.1Z" fill="#455A64"/>
<path d="M156.21 314.34C155.956 314.507 155.68 314.638 155.39 314.73C154.86 314.95 154.06 315.23 153.07 315.55C147.896 317.154 142.479 317.831 137.07 317.55C136.07 317.5 135.2 317.42 134.62 317.34C134.316 317.327 134.016 317.266 133.73 317.16C134.849 317.102 135.971 317.102 137.09 317.16C139.764 317.181 142.436 317.028 145.09 316.7C147.755 316.357 150.394 315.836 152.99 315.14C154.049 314.818 155.124 314.551 156.21 314.34Z" fill="#455A64"/>
<path d="M154.56 338.25C154.46 338.35 149.71 333.77 143.94 328.02C138.17 322.27 133.58 317.52 133.69 317.42C133.8 317.32 138.54 321.9 144.31 327.65C150.08 333.4 154.67 338.15 154.56 338.25Z" fill="#455A64"/>
<path d="M104.01 284.94L113.64 284.6L114.82 279.48L105.36 279.35L104.01 284.94Z" fill="#455A64"/>
<path d="M117.88 279.52L116.99 284.94H150.81L150.9 279.97L117.88 279.52Z" fill="#455A64"/>
<path d="M153.8 280.01V284.94H165.89L165.68 280.18L153.8 280.01Z" fill="#455A64"/>
<path d="M112.42 392.82C112.28 392.82 110.54 387.47 108.54 380.82C106.54 374.17 105.01 368.67 105.15 368.63C105.29 368.59 107.03 373.98 109.04 380.63C111.05 387.28 112.56 392.78 112.42 392.82Z" fill="#455A64"/>
<path d="M159.25 387.87C157.48 385.636 155.844 383.298 154.35 380.87C152.713 378.526 151.221 376.085 149.88 373.56C151.659 375.791 153.298 378.128 154.79 380.56C156.422 382.905 157.911 385.346 159.25 387.87Z" fill="#455A64"/>
<path d="M108 193.64C108 193.64 94.94 199.09 93.28 204.86C91.45 211.26 89.57 225.34 89.57 225.34V262.42C89.57 262.42 86.76 274.92 87.29 280.18C87.82 285.44 93.51 294.77 93.51 294.77L102.72 290.3L105.6 277.25L106.14 237.44L105.14 217.71L108 193.64Z" fill="#9CB4CC"/>
<path d="M108 193.64L116.68 186.7L117.1 180.79L139.45 177L142 182L152 184.71L158.72 182.71L160.36 186.54L168.72 212.17L162.4 249.78C162.4 249.78 166.15 269.78 165.67 280.16L105.35 279.33C103.79 277.42 103.55 274.01 103.86 269.98L103.05 219.44L108 193.64Z" fill="#9CB4CC"/>
<path d="M157.89 191.1C157.728 191.173 157.556 191.22 157.38 191.24L155.88 191.56L150.38 192.65C145.73 193.58 139.38 194.92 132.3 196.57C125.22 198.22 118.93 199.88 114.36 201.12L109 202.59L107.52 202.97C107.353 203.032 107.178 203.066 107 203.07C107.156 202.987 107.32 202.92 107.49 202.87L108.94 202.39C110.2 201.98 112.04 201.39 114.31 200.76C118.86 199.43 125.18 197.76 132.23 196.06C139.28 194.36 145.69 193.12 150.36 192.29C152.69 191.87 154.58 191.55 155.9 191.36L157.41 191.14C157.568 191.108 157.729 191.095 157.89 191.1Z" fill="#263238"/>
<path d="M118.55 248.83C118.957 248.402 119.395 248.004 119.86 247.64L123.49 244.51C126.54 241.86 130.69 238.12 135.08 233.79C139.47 229.46 143.28 225.36 145.97 222.35L149.15 218.77C149.52 218.31 149.924 217.878 150.36 217.48C150.043 217.977 149.692 218.451 149.31 218.9C148.61 219.79 147.57 221.05 146.25 222.59C143.62 225.67 139.85 229.82 135.45 234.16C131.05 238.5 126.84 242.21 123.72 244.79C122.17 246.09 120.89 247.11 119.98 247.79C119.532 248.174 119.054 248.522 118.55 248.83Z" fill="#263238"/>
<path d="M158.83 235.15C158.74 235.296 158.636 235.433 158.52 235.56L157.58 236.66C156.75 237.66 155.51 238.97 153.95 240.6C145.774 249.078 136.67 256.608 126.81 263.05C124.92 264.28 123.36 265.24 122.27 265.88C121.76 266.16 121.35 266.4 121.01 266.6C120.869 266.697 120.714 266.772 120.55 266.82C120.55 266.82 120.68 266.7 120.95 266.51L122.16 265.7C123.22 265.02 124.74 264.01 126.6 262.75C130.33 260.22 135.38 256.57 140.68 252.19C145.98 247.81 150.5 243.53 153.68 240.34C155.27 238.74 156.55 237.44 157.42 236.53L158.42 235.53C158.68 235.26 158.81 235.14 158.83 235.15Z" fill="#263238"/>
<path d="M146.91 274.9C148.443 272.712 149.832 270.427 151.07 268.06C152.144 265.616 153.056 263.104 153.8 260.54C153.802 261.336 153.687 262.127 153.46 262.89C153.013 264.753 152.37 266.563 151.54 268.29C150.717 270.016 149.712 271.649 148.54 273.16C148.084 273.816 147.535 274.402 146.91 274.9Z" fill="#263238"/>
<path d="M159 184.44L181.58 183.52L192.58 178.26L193.81 162.81L192.81 151.88L202.31 149.06C202.31 149.06 210.2 169.31 209.94 176.68C209.85 179.16 209.7 181.6 209.55 183.76C209.384 185.987 208.654 188.136 207.43 190.004C206.205 191.873 204.526 193.399 202.55 194.44L168.68 212.19L159 184.44Z" fill="#9CB4CC"/>
<path d="M105 227.6C104.394 226.165 103.955 224.665 103.69 223.13C103.25 221.632 102.978 220.089 102.88 218.53C103.487 219.966 103.929 221.465 104.2 223C104.636 224.499 104.905 226.042 105 227.6Z" fill="#263238"/>
<path d="M104.81 220.18C104.856 220.377 104.88 220.578 104.88 220.78C104.88 221.24 104.93 221.78 104.97 222.52C105.03 224.1 105.1 226.26 105.2 228.91C105.34 234.37 105.54 241.79 105.76 250C105.976 253.878 105.879 257.767 105.47 261.63C105.24 263.42 104.73 265.07 104.47 266.63C104.353 267.377 104.299 268.134 104.31 268.89C104.31 269.62 104.21 270.33 104.16 271.01C103.934 273.118 103.992 275.247 104.33 277.34C104.444 277.899 104.661 278.431 104.97 278.91C105.21 279.21 105.37 279.35 105.36 279.37C105.35 279.39 105.36 279.37 105.23 279.28C105.104 279.192 104.989 279.088 104.89 278.97C104.528 278.504 104.273 277.965 104.14 277.39C103.706 275.286 103.588 273.129 103.79 270.99C103.79 270.31 103.87 269.61 103.9 268.87C103.884 268.097 103.931 267.325 104.04 266.56C104.3 264.96 104.78 263.35 104.99 261.56C105.37 257.719 105.454 253.854 105.24 250C105.08 241.79 104.94 234.37 104.83 228.91C104.83 226.26 104.83 224.09 104.77 222.52C104.77 221.81 104.77 221.23 104.77 220.78C104.764 220.579 104.778 220.378 104.81 220.18Z" fill="#263238"/>
<path d="M166.06 203.88C165.632 203.087 165.277 202.257 165 201.4C164.41 199.84 163.65 197.67 162.87 195.25C162.09 192.83 161.44 190.62 161.01 189.01C160.726 188.152 160.529 187.267 160.42 186.37C160.813 187.181 161.128 188.029 161.36 188.9C161.93 190.65 162.61 192.76 163.36 195.09C164.11 197.42 164.79 199.52 165.36 201.27C165.679 202.115 165.913 202.989 166.06 203.88Z" fill="#263238"/>
<path d="M98.22 269.28C96.7355 268.686 95.4252 267.727 94.4112 266.491C93.3971 265.254 92.7121 263.782 92.42 262.21C93.0972 263.611 93.897 264.95 94.81 266.21C95.8562 267.33 96.9971 268.357 98.22 269.28Z" fill="#263238"/>
<path d="M105.35 284.64C104.999 285.321 104.52 285.929 103.94 286.43C102.598 287.72 100.998 288.711 99.2447 289.339C97.4919 289.966 95.6261 290.215 93.77 290.07C93.0015 290.048 92.2444 289.878 91.54 289.57C91.54 289.49 92.41 289.67 93.79 289.7C97.4147 289.788 100.943 288.526 103.69 286.16C104.73 285.26 105.28 284.58 105.35 284.64Z" fill="#263238"/>
<path d="M204.29 154.9C204.29 155.05 201.81 155.42 198.88 156.41C195.95 157.4 193.74 158.59 193.66 158.41C196.789 156.231 200.479 154.999 204.29 154.86V154.9Z" fill="#263238"/>
<path d="M201.34 150.84C201.34 150.91 201.13 151 201.05 151.3C201.019 151.376 201.009 151.459 201.02 151.54C201.032 151.621 201.065 151.698 201.116 151.762C201.167 151.826 201.235 151.875 201.311 151.905C201.388 151.934 201.471 151.942 201.552 151.928C201.633 151.915 201.709 151.88 201.772 151.827C201.834 151.774 201.882 151.705 201.909 151.628C201.937 151.551 201.943 151.467 201.927 151.387C201.911 151.306 201.874 151.231 201.82 151.17C201.64 150.92 201.4 150.9 201.39 150.83C201.38 150.76 201.69 150.6 202.08 150.92C202.195 151.012 202.285 151.132 202.341 151.269C202.397 151.405 202.417 151.554 202.4 151.7C202.371 151.889 202.281 152.064 202.144 152.197C202.007 152.331 201.83 152.416 201.64 152.44C201.474 152.479 201.301 152.469 201.141 152.409C200.981 152.35 200.843 152.245 200.743 152.106C200.644 151.968 200.587 151.803 200.581 151.633C200.575 151.463 200.62 151.295 200.71 151.15C201 150.72 201.35 150.77 201.34 150.84Z" fill="#263238"/>
<path d="M142.06 182C141.741 182.134 141.404 182.222 141.06 182.26L138.35 182.77L129.41 184.4L120.47 186.09L117.76 186.58C117.433 186.66 117.097 186.701 116.76 186.7C117.076 186.546 117.413 186.438 117.76 186.38C118.39 186.21 119.3 185.99 120.44 185.73C122.71 185.2 125.86 184.54 129.35 183.89C132.84 183.24 136.02 182.73 138.35 182.41C139.5 182.25 140.44 182.13 141.09 182.06C141.41 182.003 141.735 181.983 142.06 182Z" fill="#263238"/>
<path d="M101.56 217.3C101.448 217.052 101.371 216.789 101.33 216.52C101.19 215.804 101.096 215.079 101.05 214.35C100.933 211.947 101.017 209.539 101.3 207.15C101.59 204.36 101.97 201.84 102.22 200.03C102.301 199.04 102.455 198.057 102.68 197.09C102.755 198.091 102.722 199.097 102.58 200.09C102.43 201.92 102.11 204.44 101.82 207.22C101.543 209.586 101.409 211.967 101.42 214.35C101.45 216.16 101.65 217.28 101.56 217.3Z" fill="#263238"/>
<path d="M126.2 235.9C126.07 235.83 129.28 229.49 133.36 221.72C137.44 213.95 140.86 207.72 140.99 207.79C141.12 207.86 137.91 214.2 133.82 221.97C129.73 229.74 126.33 236 126.2 235.9Z" fill="#263238"/>
<path d="M173.22 200.13C173.001 200.888 172.713 201.624 172.36 202.33C171.8 203.67 171.06 205.54 170.36 207.65C169.66 209.76 169.18 211.65 168.85 213.12C168.719 213.896 168.522 214.658 168.26 215.4C168.229 214.607 168.307 213.813 168.49 213.04C168.818 211.161 169.275 209.306 169.86 207.49C170.445 205.669 171.163 203.894 172.01 202.18C172.322 201.447 172.729 200.758 173.22 200.13Z" fill="#263238"/>
<path d="M99.75 212.21C99.3317 212.355 98.9041 212.472 98.47 212.56C97.68 212.76 96.59 213.04 95.39 213.4C94.19 213.76 93.13 214.11 92.39 214.4C91.9804 214.567 91.5593 214.704 91.13 214.81C91.5132 214.585 91.9187 214.401 92.34 214.26C93.1 213.96 94.17 213.57 95.34 213.26C96.51 212.95 97.64 212.64 98.45 212.48C98.8746 212.352 99.3096 212.262 99.75 212.21Z" fill="#E0E0E0"/>
<path d="M136.83 214.23C136.83 214.28 129.74 216.38 120.96 218.91C112.18 221.44 105 223.45 105 223.4C105 223.35 112.09 221.24 120.88 218.71C129.67 216.18 136.81 214.17 136.83 214.23Z" fill="#E0E0E0"/>
<path d="M165.78 205.79C165.78 205.84 159.44 208.19 151.59 211.03C143.74 213.87 137.35 216.13 137.33 216.08C137.31 216.03 143.66 213.68 151.52 210.83C159.38 207.98 165.76 205.73 165.78 205.79Z" fill="#E0E0E0"/>
<path d="M163.13 195.54L162.51 195.72L160.72 196.2L154.12 197.94C148.55 199.4 140.84 201.4 132.3 203.51C123.76 205.62 116.01 207.44 110.39 208.69L103.72 210.13L101.9 210.5C101.48 210.59 101.26 210.62 101.26 210.62L101.89 210.46L103.7 210.05L110.35 208.54C115.97 207.26 123.72 205.42 132.25 203.31L154.08 197.8L160.7 196.12L162.5 195.68L163.13 195.54Z" fill="#E0E0E0"/>
<path d="M150.63 184C150.63 184.06 141.14 186.47 129.41 189.38C117.68 192.29 108.15 194.61 108.14 194.55C108.13 194.49 117.62 192.09 129.36 189.18C141.1 186.27 150.62 183.94 150.63 184Z" fill="#E0E0E0"/>
<path d="M172.05 184.4C172.059 184.463 172.059 184.527 172.05 184.59L172.12 185.13C172.17 185.59 172.23 186.27 172.28 187.13C172.41 189.318 172.41 191.512 172.28 193.7C172.134 195.888 171.853 198.066 171.44 200.22C171.28 201.05 171.14 201.71 171.02 202.22C171.02 202.4 170.93 202.58 170.89 202.75C170.85 202.92 170.83 202.93 170.83 202.92C170.83 202.91 170.83 202.86 170.83 202.74L170.92 202.2C171.027 201.62 171.147 200.97 171.28 200.25C171.56 198.59 171.88 196.25 172.05 193.74C172.187 191.559 172.214 189.373 172.13 187.19C172.13 186.45 172.06 185.8 172.03 185.19V184.65C172.025 184.566 172.032 184.482 172.05 184.4Z" fill="#E0E0E0"/>
<path d="M187.53 201.7C187.53 201.7 187.53 201.64 187.53 201.51L187.45 200.97C187.39 200.49 187.3 199.81 187.16 198.97C186.815 196.775 186.331 194.604 185.71 192.47C185.074 190.339 184.309 188.248 183.42 186.21C183.07 185.43 182.78 184.8 182.57 184.37L182.34 183.87C182.313 183.812 182.289 183.752 182.27 183.69C182.27 183.69 182.32 183.69 182.38 183.85C182.44 184.01 182.55 184.17 182.65 184.33C182.88 184.75 183.19 185.33 183.55 186.15C184.491 188.175 185.28 190.268 185.91 192.41C186.533 194.554 187.001 196.739 187.31 198.95C187.43 199.8 187.5 200.49 187.53 200.95C187.53 201.14 187.53 201.32 187.53 201.5C187.537 201.566 187.537 201.634 187.53 201.7Z" fill="#E0E0E0"/>
<path d="M200.36 194C200.261 193.788 200.174 193.571 200.1 193.35L199.44 191.56C198.86 190.05 198.01 188 196.91 185.79C195.81 183.58 194.68 181.67 193.82 180.31C193.45 179.72 193.1 179.18 192.82 178.7C192.687 178.508 192.567 178.308 192.46 178.1C192.615 178.274 192.759 178.458 192.89 178.65C193.16 179.01 193.53 179.55 193.98 180.23C195.136 181.99 196.188 183.817 197.13 185.7C198.071 187.586 198.899 189.526 199.61 191.51C199.88 192.27 200.08 192.89 200.21 193.32C200.28 193.542 200.331 193.769 200.36 194Z" fill="#E0E0E0"/>
<path d="M209 173.48C208.791 173.478 208.583 173.451 208.38 173.4L206.71 173.1C205.3 172.85 203.35 172.53 201.19 172.23C199.03 171.93 197.06 171.73 195.64 171.59L193.95 171.43C193.742 171.417 193.535 171.39 193.33 171.35C193.536 171.324 193.744 171.324 193.95 171.35C194.35 171.35 194.95 171.35 195.65 171.44C197.08 171.54 199.05 171.73 201.22 172.03C203.39 172.33 205.34 172.67 206.74 172.96C207.44 173.1 208.01 173.22 208.4 173.32C208.604 173.359 208.804 173.412 209 173.48Z" fill="#E0E0E0"/>
<path d="M206.6 159.84H206.1C205.78 159.84 205.32 159.84 204.75 159.84C203.262 159.846 201.777 159.973 200.31 160.22C198.848 160.468 197.407 160.829 196 161.3L194.73 161.74C194.577 161.812 194.416 161.866 194.25 161.9C194.39 161.805 194.541 161.727 194.7 161.67C194.99 161.53 195.42 161.36 195.96 161.16C197.364 160.643 198.814 160.258 200.29 160.01C201.767 159.769 203.263 159.662 204.76 159.69C205.214 159.694 205.668 159.721 206.12 159.77C206.282 159.771 206.444 159.795 206.6 159.84Z" fill="#E0E0E0"/>
<path d="M127.57 231C127.57 231.06 122.64 232.21 116.57 233.58C110.5 234.95 105.47 236 105.46 236C105.45 236 110.39 234.79 116.46 233.42C122.53 232.05 127.56 231 127.57 231Z" fill="#E0E0E0"/>
<path d="M134.57 233.52C133.402 233.555 132.233 233.515 131.07 233.4C129.901 233.365 128.735 233.254 127.58 233.07C128.748 233.047 129.916 233.087 131.08 233.19C132.248 233.239 133.413 233.349 134.57 233.52Z" fill="#E0E0E0"/>
<path d="M166.8 221.21C166.8 221.21 161.09 222.79 154.02 224.62C146.95 226.45 141.2 227.89 141.19 227.83C141.18 227.77 146.89 226.25 153.97 224.42C161.05 222.59 166.78 221.15 166.8 221.21Z" fill="#E0E0E0"/>
<path d="M118.89 247.68C118.89 247.74 116.03 248.3 112.47 248.93C108.91 249.56 106 250 106 250C106 250 108.87 249.39 112.43 248.76C115.99 248.13 118.88 247.63 118.89 247.68Z" fill="#E0E0E0"/>
<path d="M153 240C153 240.05 146.49 241.14 138.44 242.42C130.39 243.7 123.85 244.7 123.85 244.64C123.85 244.58 130.36 243.5 138.41 242.22C146.46 240.94 153 240 153 240Z" fill="#E0E0E0"/>
<path d="M164.23 241C164.084 241.045 163.933 241.069 163.78 241.07L162.57 241.18C161.57 241.27 160.14 241.4 158.57 241.6C157 241.8 155.57 242.01 154.57 242.17L153.37 242.37C153.224 242.392 153.076 242.392 152.93 242.37L153.36 242.25C153.64 242.18 154.04 242.09 154.55 241.99C155.55 241.79 156.96 241.55 158.55 241.35C160.14 241.15 161.55 241.04 162.55 240.99C163.07 240.99 163.48 240.99 163.77 240.99C163.923 240.976 164.078 240.979 164.23 241Z" fill="#E0E0E0"/>
<path d="M130 260.15C129.923 260.194 129.843 260.231 129.76 260.26L129.06 260.56C128.45 260.81 127.55 261.15 126.44 261.56C120.61 263.587 114.537 264.831 108.38 265.26C107.2 265.34 106.25 265.38 105.58 265.39H104.58H104.84H105.6C106.26 265.39 107.21 265.29 108.39 265.2C111.452 264.937 114.497 264.5 117.51 263.89C120.521 263.267 123.492 262.469 126.41 261.5C127.53 261.13 128.41 260.81 129.05 260.58L129.76 260.32L130 260.15Z" fill="#E0E0E0"/>
<path d="M164.19 254.48C164.073 254.534 163.953 254.581 163.83 254.62L162.78 254.98C161.86 255.3 160.53 255.73 158.88 256.24C155.57 257.24 150.97 258.55 145.88 259.75C140.79 260.95 136.03 261.8 132.62 262.34C130.91 262.62 129.52 262.82 128.56 262.94L127.46 263.08C127.33 263.087 127.2 263.087 127.07 263.08L127.45 263.01L128.55 262.83L132.55 262.17C135.96 261.59 140.65 260.71 145.79 259.51C150.93 258.31 155.53 257.05 158.85 256.06L162.76 254.88L163.83 254.55L164.19 254.48Z" fill="#E0E0E0"/>
<path d="M148.76 271.42L148.32 271.51L147.05 271.73C145.94 271.91 144.33 272.16 142.34 272.42C138.34 272.96 132.84 273.56 126.72 273.89C120.6 274.22 115.04 274.23 111.03 274.12C109.03 274.07 107.4 274 106.28 273.93L104.98 273.86H104.54H105H106.29C107.41 273.86 109.03 273.95 111.04 273.98C115.04 274.05 120.6 273.98 126.72 273.69C132.84 273.4 138.35 272.79 142.33 272.29C144.33 272.04 145.93 271.82 147.04 271.66L148.33 271.48L148.76 271.42Z" fill="#E0E0E0"/>
<path d="M164.78 269.09C164.597 269.111 164.413 269.111 164.23 269.09H162.73C161.46 269.09 159.73 269.09 157.78 269.09C155.83 269.09 154.1 269.19 152.83 269.26L151.33 269.33C151.147 269.349 150.963 269.349 150.78 269.33C150.961 269.289 151.145 269.262 151.33 269.25L152.82 269.11C154.09 269.01 155.82 268.91 157.82 268.88C159.82 268.85 161.51 268.88 162.82 268.93L164.32 269.02L164.78 269.09Z" fill="#E0E0E0"/>
<path d="M105.1 229.16C105.1 229.21 101.53 229.9 97.1 230.69C92.67 231.48 89.1 232.08 89.1 232.02C89.1 231.96 92.67 231.28 97.1 230.49C101.53 229.7 105.09 229.1 105.1 229.16Z" fill="#E0E0E0"/>
<path d="M104.56 244.85C104.56 244.9 101.23 245.28 97.11 245.68C92.99 246.08 89.63 246.36 89.63 246.3C89.63 246.24 92.96 245.87 97.09 245.47C101.22 245.07 104.56 244.79 104.56 244.85Z" fill="#E0E0E0"/>
<path d="M105.91 257.46C105.91 257.52 102.45 257.67 98.17 257.8C93.89 257.93 90.43 257.99 90.43 257.93C90.43 257.87 93.89 257.72 98.17 257.59C102.45 257.46 105.91 257.4 105.91 257.46Z" fill="#E0E0E0"/>
<path d="M103 273C102.81 273.017 102.62 273.017 102.43 273C102.07 273 101.54 273 100.89 272.9C97.4819 272.595 94.1438 271.751 91 270.4C90.4 270.14 89.92 269.92 89.6 269.75C89.4243 269.68 89.2593 269.586 89.11 269.47C89.2891 269.525 89.4631 269.595 89.63 269.68C89.97 269.82 90.45 270.03 91.06 270.27C92.6316 270.895 94.2416 271.42 95.88 271.84C97.5257 272.252 99.1956 272.559 100.88 272.76L102.41 272.92C102.609 272.929 102.806 272.956 103 273Z" fill="#E0E0E0"/>
<path d="M103.81 277.32C103.651 277.47 103.48 277.607 103.3 277.73C102.96 277.99 102.46 278.34 101.83 278.73C100.188 279.817 98.47 280.787 96.69 281.63C94.9071 282.475 93.0657 283.19 91.18 283.77C90.45 283.98 89.86 284.15 89.45 284.24C89.2396 284.299 89.0259 284.346 88.81 284.38C89.0098 284.289 89.2173 284.215 89.43 284.16C89.84 284.04 90.43 283.86 91.13 283.62C94.8621 282.396 98.429 280.717 101.75 278.62C102.39 278.22 102.9 277.88 103.25 277.62C103.427 277.503 103.615 277.403 103.81 277.32Z" fill="#E0E0E0"/>
<path d="M114.37 280.36C114.37 280.36 114.37 280.09 114.37 279.57C114.37 279.05 114.42 278.23 114.45 277.28C114.52 275.28 114.61 272.38 114.72 268.87C114.92 261.77 115.09 251.96 115.01 241.12C114.93 230.28 114.63 220.47 114.33 213.37C114.17 209.86 114.03 207.01 113.94 204.97C113.94 204.02 113.86 203.26 113.83 202.68C113.8 202.1 113.83 201.89 113.83 201.89C113.83 201.89 113.83 202.16 113.89 202.68C113.95 203.2 114 204 114 205C114.13 207 114.29 209.86 114.45 213.41C114.79 220.5 115.12 230.32 115.2 241.16C115.28 252 115.08 261.82 114.85 268.92C114.73 272.47 114.61 275.34 114.51 277.32L114.39 279.61C114.4 280.09 114.37 280.36 114.37 280.36Z" fill="#E0E0E0"/>
<path d="M132.06 224.46C132 224.46 131.22 218.61 130.32 211.39C129.42 204.17 128.74 198.31 128.8 198.3C128.86 198.29 129.63 204.14 130.53 211.37C131.43 218.6 132.11 224.45 132.06 224.46Z" fill="#E0E0E0"/>
<path d="M130.45 236.3C130.153 235.006 129.926 233.698 129.77 232.38C129.46 230.21 129.25 228.44 129.3 228.43C129.596 229.724 129.823 231.032 129.98 232.35C130.209 233.657 130.366 234.976 130.45 236.3Z" fill="#E0E0E0"/>
<path d="M134.54 257.8C134.48 257.8 134.39 252.75 134.34 246.52C134.29 240.29 134.29 235.23 134.34 235.23C134.39 235.23 134.49 240.28 134.55 246.52C134.61 252.76 134.6 257.8 134.54 257.8Z" fill="#E0E0E0"/>
<path d="M134.22 280.05C134.17 280.05 133.5 275.48 132.73 269.84C131.96 264.2 131.38 259.62 131.44 259.61C131.5 259.6 132.17 264.17 132.94 269.81C133.71 275.45 134.28 280 134.22 280.05Z" fill="#E0E0E0"/>
<path d="M154 237C153.94 237 152.41 227.63 150.57 216.07C148.73 204.51 147.28 195.07 147.34 195.07C147.4 195.07 148.93 204.43 150.77 216C152.61 227.57 154 237 154 237Z" fill="#E0E0E0"/>
<path d="M151.5 264.26C151.45 264.26 150.93 260.1 150.34 254.96C149.75 249.82 149.34 245.63 149.34 245.63C149.34 245.63 149.92 249.79 150.51 254.93C151.1 260.07 151.56 264.26 151.5 264.26Z" fill="#E0E0E0"/>
<path d="M195.69 182.92C194.432 184.072 193.096 185.134 191.69 186.1C190.153 187.163 188.554 188.131 186.9 189C184.883 190.059 182.798 190.984 180.66 191.77C178.512 192.526 176.317 193.144 174.09 193.62C172.268 194 170.425 194.267 168.57 194.42C166.861 194.578 165.144 194.621 163.43 194.55H163.79H164.79C165.67 194.55 166.96 194.48 168.53 194.33C170.378 194.152 172.214 193.872 174.03 193.49C176.246 193.002 178.431 192.378 180.57 191.62C182.699 190.838 184.776 189.923 186.79 188.88C188.432 188.016 190.024 187.061 191.56 186.02C192.87 185.13 193.9 184.36 194.56 183.8L195.36 183.17L195.69 182.92Z" fill="#E0E0E0"/>
<path d="M195.78 182.94C195.765 182.854 195.765 182.766 195.78 182.68C195.78 182.45 195.83 182.2 195.85 181.93C195.93 181.16 196.03 180.23 196.14 179.16C196.36 176.82 196.63 173.59 196.79 170.01C196.95 166.43 196.98 163.19 196.96 160.84C196.96 159.76 196.96 158.84 196.96 158.06C196.96 157.79 196.96 157.54 196.96 157.31C196.96 157.08 196.96 157.04 196.96 157.04C196.973 157.126 196.973 157.214 196.96 157.3C196.96 157.54 196.96 157.78 197.01 158.06C197.01 158.72 197.08 159.67 197.11 160.84C197.11 163.19 197.11 166.44 197 170.02C196.89 173.6 196.55 176.84 196.28 179.17C196.15 180.34 196.03 181.28 195.93 181.94C195.93 182.21 195.85 182.45 195.82 182.68C195.79 182.91 195.78 182.94 195.78 182.94Z" fill="#E0E0E0"/>
<path d="M204.17 156.34C204.17 156.34 204.23 156.58 204.32 157.04C204.41 157.5 204.56 158.18 204.77 159.04C205.18 160.78 205.9 163.25 206.72 166.34C207.788 169.942 208.241 173.698 208.06 177.45C207.949 179.764 207.318 182.023 206.214 184.059C205.109 186.095 203.559 187.856 201.68 189.21C199.766 190.641 197.762 191.947 195.68 193.12C193.68 194.3 191.8 195.42 189.97 196.47C186.31 198.58 182.97 200.41 180.15 201.91C177.33 203.41 175.03 204.58 173.44 205.38L171.6 206.3L170.95 206.6L171.58 206.26L173.4 205.26C174.99 204.44 177.28 203.26 180.08 201.73C182.88 200.2 186.22 198.37 189.87 196.26C191.7 195.2 193.61 194.08 195.58 192.89C197.636 191.714 199.616 190.412 201.51 188.99C203.365 187.654 204.895 185.918 205.988 183.909C207.08 181.901 207.706 179.673 207.82 177.39C208.003 173.657 207.567 169.92 206.53 166.33C205.73 163.24 205.03 160.75 204.64 159.01C204.25 157.27 204.17 156.34 204.17 156.34Z" fill="#E0E0E0"/>
<path d="M93.44 262.33C93.44 262.33 93.44 262.11 93.44 261.71C93.44 261.31 93.52 260.71 93.58 259.94L94.11 253.44C94.54 247.95 95.11 240.36 95.57 231.97C96.03 223.58 96.34 215.97 96.57 210.46C96.66 207.76 96.73 205.55 96.78 203.94C96.78 203.22 96.8 202.63 96.84 202.17C96.84 201.76 96.84 201.55 96.84 201.55C96.84 201.55 96.84 201.76 96.84 202.17C96.84 202.58 96.84 203.22 96.84 203.94C96.84 205.55 96.76 207.76 96.7 210.47C96.56 215.97 96.27 223.58 95.8 231.98C95.33 240.38 94.8 247.98 94.28 253.45C94.04 256.14 93.83 258.35 93.69 259.95C93.61 260.67 93.55 261.26 93.51 261.71C93.47 262.16 93.44 262.33 93.44 262.33Z" fill="#E0E0E0"/>
<path d="M96.07 291C96.07 291 96.07 290.92 95.97 290.76C95.87 290.6 95.83 290.31 95.75 290.05C95.56 289.43 95.3 288.53 95.02 287.41C94.2881 284.48 93.7371 281.508 93.37 278.51C93.0116 275.524 92.8446 272.518 92.87 269.51C92.87 268.35 92.87 267.41 92.95 266.76C92.95 266.49 92.95 266.25 92.95 266.02V265.76C92.9613 265.846 92.9613 265.934 92.95 266.02V266.77C92.95 267.41 92.95 268.35 92.95 269.51C92.9771 272.518 93.1674 275.523 93.52 278.51C93.8835 281.497 94.411 284.461 95.1 287.39C95.37 288.52 95.6 289.39 95.77 290.05C95.8433 290.31 95.9033 290.55 95.95 290.77L96.07 291Z" fill="#E0E0E0"/>
<path d="M102.46 288C102.46 288 102.46 287.76 102.46 287.3C102.46 286.84 102.46 286.12 102.46 285.3C102.46 283.49 102.46 280.98 102.53 277.9C102.53 271.66 102.61 263.03 102.53 253.5C102.45 243.97 102.31 235.33 102.17 229.09C102.09 226.01 102.04 223.5 101.99 221.69C101.99 220.86 101.99 220.19 101.99 219.69C101.99 219.19 101.99 218.99 101.99 218.99C101.99 218.99 101.99 219.23 101.99 219.69C101.99 220.15 101.99 220.87 102.08 221.69C102.08 223.5 102.21 226.01 102.31 229.09C102.49 235.33 102.67 243.96 102.74 253.5C102.81 263.04 102.74 271.66 102.66 277.91C102.66 280.98 102.57 283.5 102.53 285.3C102.53 286.13 102.53 286.8 102.48 287.3C102.43 287.8 102.46 288 102.46 288Z" fill="#E0E0E0"/>
<path d="M114.83 201.27C114.77 201.27 114.58 198.45 114.4 194.97C114.22 191.49 114.13 188.67 114.19 188.66C114.25 188.65 114.44 191.48 114.61 194.96C114.78 198.44 114.89 201.26 114.83 201.27Z" fill="#E0E0E0"/>
<path d="M129.64 197.11C129.58 197.11 129.3 194.24 129.01 190.69C128.72 187.14 128.54 184.25 128.59 184.25C128.64 184.25 128.93 187.12 129.22 190.67C129.51 194.22 129.69 197.1 129.64 197.11Z" fill="#E0E0E0"/>
<path d="M145.75 193.44C145.69 193.44 144.88 190.83 143.94 187.58C143 184.33 142.28 181.68 142.33 181.66C142.38 181.64 143.2 184.27 144.14 187.52C145.08 190.77 145.8 193.42 145.75 193.44Z" fill="#E0E0E0"/>
<path d="M140.42 178.83C140.344 178.862 140.263 178.882 140.18 178.89L139.48 179.02L136.9 179.47C134.73 179.85 131.73 180.41 128.44 181.1C125.15 181.79 122.17 182.48 120.03 183L117.49 183.62L116.8 183.78C116.717 183.795 116.633 183.795 116.55 183.78L116.79 183.7L117.47 183.5L119.99 182.82C122.13 182.26 125.1 181.54 128.4 180.82C131.7 180.1 134.7 179.6 136.88 179.25L139.46 178.87L140.17 178.78C140.255 178.785 140.339 178.802 140.42 178.83Z" fill="#E0E0E0"/>
<path d="M120.79 186.06C120.702 185.109 120.682 184.154 120.73 183.2C120.712 182.248 120.759 181.296 120.87 180.35C120.965 181.3 120.988 182.256 120.94 183.21C120.959 184.162 120.909 185.115 120.79 186.06Z" fill="#E0E0E0"/>
<path d="M135.46 183.47C135.207 182.628 135.013 181.769 134.88 180.9C134.681 180.042 134.554 179.169 134.5 178.29C134.967 179.988 135.301 181.72 135.5 183.47H135.46Z" fill="#E0E0E0"/>
<path d="M473.39 471.32C473.39 471.46 374.71 471.58 253.01 471.58C131.31 471.58 32.61 471.46 32.61 471.32C32.61 471.18 131.27 471.06 253.01 471.06C374.75 471.06 473.39 471.17 473.39 471.32Z" fill="#263238"/>
<path d="M67.4 104.22C67.2502 104.209 67.0998 104.209 66.95 104.22H65.61C64.8789 104.232 64.15 104.303 63.43 104.43C63.01 104.5 62.54 104.54 62.06 104.64L60.51 105.02C54.2946 106.649 48.9318 110.582 45.51 116.02C43.1094 119.741 41.7299 124.028 41.51 128.45C41.2089 133.537 42.4384 138.598 45.04 142.98C47.903 147.841 52.2693 151.638 57.48 153.8C60.2219 154.938 63.1437 155.581 66.11 155.7C69.1536 155.891 72.206 155.511 75.11 154.58L75.37 154.5H75.16L90.25 159.73L90.86 159.94L90.67 159.32C89.32 154.98 88.01 150.78 86.75 146.76L86.69 147.06C89.3584 144.059 91.2901 140.478 92.3317 136.599C93.3732 132.721 93.4959 128.654 92.69 124.72C92.0298 121.391 90.7069 118.228 88.8 115.42C87.1619 113.023 85.1338 110.917 82.8 109.19C81.8005 108.457 80.755 107.789 79.67 107.19C78.6978 106.678 77.6961 106.223 76.67 105.83C75.8315 105.5 74.9732 105.223 74.1 105C73.3364 104.782 72.5576 104.621 71.77 104.52C71.06 104.42 70.44 104.32 69.9 104.27H68.53H67.69C67.5936 104.259 67.4964 104.259 67.4 104.27C67.4959 104.287 67.594 104.287 67.69 104.27L68.52 104.34L69.88 104.44C70.42 104.5 71.04 104.62 71.73 104.73C72.5078 104.854 73.2763 105.031 74.03 105.26C74.9396 105.498 75.8317 105.799 76.7 106.16C77.725 106.563 78.7266 107.024 79.7 107.54C80.761 108.142 81.7831 108.81 82.76 109.54C85.0246 111.268 86.9907 113.356 88.58 115.72C90.4291 118.486 91.7074 121.593 92.34 124.86C93.1007 128.713 92.9547 132.691 91.9133 136.478C90.872 140.265 88.9639 143.757 86.34 146.68L86.22 146.81V146.98C87.4733 150.98 88.77 155.173 90.11 159.56L90.53 159.15L75.45 153.91H75.35H75.24L75 154C72.1596 154.906 69.1755 155.275 66.2 155.09C63.3109 154.971 60.4649 154.348 57.79 153.25C52.7068 151.144 48.4411 147.45 45.63 142.72C43.2629 138.712 42.0394 134.132 42.0923 129.478C42.1452 124.824 43.4725 120.273 45.93 116.32C49.274 110.949 54.5075 107.025 60.6 105.32L62.12 104.92C62.6 104.8 63.06 104.75 63.49 104.68C64.1979 104.529 64.9169 104.435 65.64 104.4L66.97 104.3C67.1153 104.285 67.2591 104.259 67.4 104.22Z" fill="#263238"/>
<path d="M76.77 129.67C76.748 128.106 76.3062 126.577 75.4909 125.242C74.6755 123.907 73.5165 122.816 72.135 122.082C70.7536 121.349 69.2004 121 67.6379 121.072C66.0755 121.144 64.5611 121.635 63.2532 122.493C61.9452 123.35 60.8918 124.544 60.203 125.948C59.5141 127.352 59.2153 128.916 59.3376 130.475C59.4599 132.035 59.9989 133.533 60.8983 134.812C61.7976 136.092 63.0243 137.107 64.45 137.75C64.45 138.75 64.45 139.95 64.45 139.95L72.1 139.84C72.1 139.84 72.1 138.6 72.1 137.5C73.5243 136.752 74.7142 135.625 75.5383 134.243C76.3624 132.861 76.7886 131.279 76.77 129.67Z" fill="#FAFAFA"/>
<path d="M76.77 129.67C76.8016 129.889 76.8016 130.111 76.77 130.33C76.7492 130.971 76.6587 131.608 76.5 132.23C76.2509 133.22 75.8276 134.158 75.25 135C74.4685 136.114 73.4423 137.034 72.25 137.69L72.35 137.52C72.35 138.26 72.35 139.04 72.35 139.86V140.06H72.14L64.5 140.22H64.25V140C64.25 139.3 64.25 138.56 64.25 137.8L64.39 138.02C63.1705 137.47 62.0889 136.655 61.224 135.634C60.359 134.614 59.7325 133.413 59.39 132.12C58.8625 130.12 59.0463 127.999 59.91 126.12C60.6974 124.388 62.0092 122.946 63.66 122C64.4413 121.583 65.2755 121.273 66.14 121.08C66.9557 120.915 67.7895 120.858 68.62 120.91C70.1109 121.016 71.5515 121.494 72.81 122.3C74.6356 123.473 75.9584 125.284 76.52 127.38C76.7388 128.133 76.8234 128.918 76.77 129.7C76.6756 128.937 76.5285 128.182 76.33 127.44C75.8154 125.756 74.7983 124.269 73.415 123.178C72.0316 122.088 70.3481 121.447 68.59 121.34C67.7984 121.3 67.005 121.364 66.23 121.53C65.4175 121.723 64.634 122.022 63.9 122.42C62.3288 123.318 61.0825 124.69 60.34 126.34C59.5299 128.107 59.3602 130.101 59.86 131.98C60.181 133.198 60.7681 134.329 61.5792 135.292C62.3902 136.255 63.4049 137.026 64.55 137.55L64.7 137.62V137.78C64.7 138.54 64.7 139.29 64.7 139.98L64.45 139.74L72.1 139.66L71.89 139.86C71.89 139.05 71.89 138.26 71.89 137.53V137.41H71.99C74.034 136.318 75.5648 134.464 76.25 132.25C76.5051 131.409 76.6792 130.545 76.77 129.67Z" fill="#263238"/>
<path d="M69.36 139.84C69.358 139.803 69.358 139.767 69.36 139.73V139.42C69.36 139.14 69.43 138.73 69.5 138.21C69.57 137.69 69.67 137.04 69.82 136.31C69.9906 135.473 70.2453 134.656 70.58 133.87C70.7641 133.408 70.9953 132.965 71.27 132.55C71.4206 132.323 71.6227 132.134 71.86 132C71.9882 131.933 72.1305 131.899 72.275 131.899C72.4195 131.899 72.5618 131.933 72.69 132C72.7572 132.035 72.8167 132.083 72.8648 132.141C72.913 132.2 72.9487 132.267 72.97 132.34C73.0294 132.484 73.0294 132.646 72.97 132.79C72.8308 133.062 72.5956 133.272 72.31 133.38C72.0076 133.486 71.687 133.53 71.3672 133.509C71.0474 133.489 70.7351 133.404 70.4487 133.261C70.1623 133.117 69.9077 132.917 69.7 132.673C69.4924 132.429 69.336 132.146 69.24 131.84C69.1219 131.52 69.0976 131.173 69.17 130.84C69.2073 130.662 69.3057 130.502 69.4481 130.389C69.5905 130.276 69.7681 130.216 69.95 130.22C70.0448 130.226 70.1363 130.257 70.2153 130.31C70.2943 130.362 70.358 130.435 70.4 130.52C70.491 130.681 70.5195 130.87 70.48 131.05C70.3794 131.4 70.1691 131.709 69.88 131.93C69.6081 132.167 69.2898 132.344 68.9454 132.451C68.6011 132.558 68.2382 132.592 67.88 132.55C67.5162 132.5 67.1702 132.362 66.8722 132.147C66.5741 131.933 66.333 131.649 66.17 131.32C66.0856 131.158 66.035 130.98 66.0213 130.798C66.0075 130.616 66.0309 130.433 66.09 130.26C66.1607 130.085 66.2972 129.945 66.47 129.87C66.5552 129.833 66.6471 129.814 66.74 129.814C66.8329 129.814 66.9248 129.833 67.01 129.87C67.1687 129.957 67.2976 130.089 67.38 130.25C67.4645 130.404 67.5124 130.575 67.52 130.75C67.5631 131.247 67.4614 131.745 67.2272 132.185C66.9929 132.626 66.6361 132.988 66.2 133.23C65.6516 133.532 65.0143 133.631 64.4 133.51C64.095 133.466 63.8134 133.322 63.6 133.1C63.4987 132.986 63.4378 132.842 63.427 132.69C63.4161 132.538 63.4559 132.387 63.54 132.26C63.6417 132.15 63.7808 132.082 63.93 132.07C64.0738 132.052 64.2197 132.077 64.35 132.14C64.5884 132.274 64.7776 132.481 64.89 132.73C65.12 133.2 65.3 133.66 65.49 134.1C66.21 135.84 66.73 137.29 67.08 138.29C67.25 138.78 67.38 139.17 67.47 139.44L67.56 139.74V139.85V139.75L67.45 139.45C67.36 139.18 67.22 138.79 67.05 138.3C66.69 137.3 66.16 135.87 65.43 134.13C65.24 133.69 65.05 133.23 64.83 132.77C64.7243 132.536 64.5453 132.343 64.32 132.22C64.2082 132.159 64.0795 132.135 63.9534 132.154C63.8272 132.172 63.7102 132.23 63.62 132.32C63.5496 132.432 63.5174 132.563 63.5282 132.695C63.5391 132.827 63.5923 132.951 63.68 133.05C63.8853 133.248 64.1475 133.378 64.43 133.42C65.0205 133.534 65.6324 133.439 66.16 133.15C66.7113 132.834 67.1249 132.325 67.32 131.72C67.4278 131.398 67.4653 131.057 67.43 130.72C67.4189 130.575 67.3744 130.434 67.2997 130.309C67.2251 130.184 67.1225 130.079 67 130C66.93 129.966 66.853 129.948 66.775 129.948C66.697 129.948 66.62 129.966 66.55 130C66.476 130.029 66.4091 130.073 66.3539 130.13C66.2986 130.187 66.2564 130.255 66.23 130.33C66.169 130.492 66.1446 130.666 66.1584 130.839C66.1723 131.012 66.224 131.179 66.31 131.33C66.4639 131.643 66.6918 131.915 66.9741 132.12C67.2563 132.326 67.5844 132.46 67.93 132.51C68.2774 132.553 68.6299 132.521 68.9642 132.418C69.2986 132.314 69.6073 132.141 69.87 131.91C70.1426 131.704 70.3424 131.417 70.44 131.09C70.4715 130.933 70.4467 130.77 70.37 130.63C70.3354 130.56 70.2831 130.5 70.2182 130.456C70.1533 130.412 70.0781 130.386 70 130.38C69.843 130.375 69.6896 130.428 69.57 130.53C69.4518 130.632 69.368 130.768 69.33 130.92C69.2555 131.252 69.2763 131.599 69.39 131.92C69.4876 132.219 69.6441 132.494 69.8503 132.732C70.0564 132.969 70.3079 133.162 70.59 133.3C71.1344 133.56 71.7593 133.596 72.33 133.4C72.5947 133.3 72.8147 133.109 72.95 132.86C73.0075 132.743 73.0177 132.608 72.9786 132.483C72.9396 132.358 72.8542 132.254 72.74 132.19C72.6238 132.131 72.4953 132.1 72.365 132.1C72.2347 132.1 72.1062 132.131 71.99 132.19C71.7629 132.314 71.5703 132.493 71.43 132.71C71.1594 133.121 70.9284 133.556 70.74 134.01C70.4026 134.789 70.1446 135.599 69.97 136.43C69.81 137.16 69.71 137.8 69.63 138.32C69.55 138.84 69.51 139.25 69.47 139.53C69.43 139.81 69.47 139.77 69.47 139.85C69.4331 139.85 69.3963 139.846 69.36 139.84Z" fill="#263238"/>
<path d="M71.56 141.26L65 141.36C64.9353 141.363 64.8707 141.352 64.8102 141.329C64.7496 141.306 64.6943 141.272 64.6476 141.227C64.6009 141.182 64.5637 141.128 64.5383 141.068C64.513 141.009 64.4999 140.945 64.5 140.88C64.4973 140.815 64.5077 140.751 64.5306 140.69C64.5535 140.63 64.5885 140.574 64.6333 140.528C64.6781 140.481 64.732 140.444 64.7916 140.418C64.8511 140.393 64.9152 140.38 64.98 140.38L71.55 140.28C71.6143 140.279 71.6783 140.29 71.7383 140.313C71.7982 140.337 71.853 140.372 71.8994 140.416C71.9459 140.461 71.9831 140.514 72.0089 140.573C72.0347 140.632 72.0487 140.696 72.05 140.76C72.0513 140.825 72.0396 140.89 72.0156 140.951C71.9916 141.011 71.9557 141.066 71.9101 141.113C71.8644 141.16 71.81 141.197 71.7498 141.222C71.6897 141.247 71.6252 141.26 71.56 141.26Z" fill="#263238"/>
<path d="M71.57 141.69L65 141.79C64.9356 141.791 64.8722 141.805 64.8132 141.831C64.7543 141.857 64.701 141.894 64.6564 141.941C64.6118 141.987 64.5768 142.042 64.5534 142.102C64.53 142.162 64.5187 142.226 64.52 142.29C64.5226 142.421 64.5764 142.545 64.6699 142.637C64.7634 142.729 64.8891 142.78 65.02 142.78H65.74L66.74 144.58C66.7944 144.683 66.8767 144.769 66.9775 144.827C67.0784 144.885 67.1936 144.914 67.31 144.91H69.66C69.7759 144.906 69.8886 144.871 69.9857 144.807C70.0827 144.744 70.1603 144.655 70.21 144.55L71.11 142.72H71.61C71.7426 142.72 71.8698 142.667 71.9635 142.574C72.0573 142.48 72.11 142.353 72.11 142.22C72.11 142.087 72.0573 141.96 71.9635 141.866C71.8698 141.773 71.7426 141.72 71.61 141.72L71.57 141.69Z" fill="#263238"/>
<g opacity="0.2">
<path d="M62.35 124.32C62.8564 123.832 63.4413 123.434 64.08 123.14C64.5037 122.935 64.9552 122.794 65.42 122.72C65.75 122.72 65.94 122.72 65.96 122.78C65.98 122.84 65.34 123.19 64.46 123.78C63.3185 124.547 62.4089 125.612 61.83 126.86C61.2956 128.121 61.1092 129.502 61.29 130.86C61.43 131.93 61.69 132.58 61.55 132.65C61.41 132.72 61.33 132.57 61.14 132.3C60.8817 131.908 60.6828 131.48 60.55 131.03C60.3519 130.352 60.2608 129.646 60.28 128.94C60.3091 128.068 60.5025 127.21 60.85 126.41" fill="white"/>
</g>
<g opacity="0.2">
<path d="M68.06 123.13C67.51 123.13 67.06 122.99 66.96 122.7C66.86 122.41 67.03 122.39 67.23 122.27C67.4799 122.129 67.7629 122.056 68.05 122.06C68.3389 122.046 68.6261 122.111 68.88 122.25C69.08 122.37 69.18 122.53 69.16 122.67" fill="white"/>
</g>
<path d="M70.07 144.67C70.07 144.67 69.9 144.61 69.62 144.54C69.2552 144.442 68.8773 144.401 68.5 144.42C68.1244 144.438 67.7535 144.512 67.4 144.64C67.13 144.74 66.97 144.82 66.96 144.81C67.0825 144.708 67.2211 144.627 67.37 144.57C67.7276 144.415 68.1106 144.327 68.5 144.31C68.8866 144.292 69.2733 144.346 69.64 144.47C69.7953 144.507 69.9415 144.575 70.07 144.67Z" fill="#455A64"/>
<path d="M71.11 142.71C71.11 142.71 69.92 142.78 68.46 142.8C67 142.82 65.81 142.8 65.81 142.8C65.81 142.8 66.99 142.73 68.46 142.7C69.93 142.67 71.11 142.68 71.11 142.71Z" fill="#455A64"/>
<path d="M70.71 143.49C70.497 143.541 70.279 143.568 70.06 143.57C69.66 143.57 69.06 143.63 68.5 143.65C67.94 143.67 67.33 143.65 66.93 143.65C66.7139 143.672 66.4961 143.672 66.28 143.65H66.93H68.5H70.06C70.2732 143.584 70.4903 143.53 70.71 143.49Z" fill="#455A64"/>
<path d="M61.22 121.13C61.1 121.22 60.63 120.8 60.15 120.2C59.67 119.6 59.39 119 59.5 119C59.61 119 60.09 119.32 60.56 119.93C61.03 120.54 61.33 121 61.22 121.13Z" fill="#263238"/>
<path d="M67.35 118.66C67.0219 117.85 66.8522 116.984 66.85 116.11C66.682 115.248 66.682 114.362 66.85 113.5C67.1882 114.311 67.3583 115.182 67.35 116.06C67.5299 116.917 67.5299 117.803 67.35 118.66Z" fill="#263238"/>
<path d="M73.92 117.94C74.04 118.02 73.85 118.52 73.5 119.04C73.15 119.56 72.77 119.93 72.65 119.85C72.53 119.77 72.72 119.28 73.07 118.75C73.42 118.22 73.8 117.86 73.92 117.94Z" fill="#263238"/>
<path d="M370.88 142.64C370.228 142.091 369.47 141.683 368.652 141.442C367.834 141.201 366.976 141.132 366.13 141.24L353.72 141.06C351.791 141.156 349.882 140.634 348.27 139.57C346.687 138.518 345.487 136.981 344.85 135.19L344.35 133.58C343.35 130.34 342.29 126.99 341.03 123.81C340.311 121.956 339.483 120.146 338.55 118.39C338.1 117.52 337.55 116.69 337.05 115.84C336.55 114.99 335.98 114.15 335.45 113.38C327.005 100.997 314.906 91.5581 300.84 86.38C288.302 81.9186 274.882 80.5063 261.69 82.26C255.79 83.0241 249.979 84.3638 244.34 86.26L240.34 87.69C239.5 88.02 238.67 88.36 237.86 88.69L236.52 89.24C234.067 90.2917 231.691 91.5147 229.41 92.9C225.176 95.4619 221.339 98.6287 218.02 102.3C216.502 103.982 215.105 105.77 213.84 107.65C212.78 109.24 211.74 110.96 210.57 113.07C209.08 115.75 207.77 118.28 206.51 120.73L205.31 123.05L204.46 124.67C203.352 126.92 202.085 129.089 200.67 131.16C196.76 136.62 192.57 138.46 190.93 139C190.49 139.166 190.039 139.3 189.58 139.4L189.15 139.5L188.57 139.6C188.316 139.649 188.058 139.682 187.8 139.7L186.66 139.79C186.564 139.798 186.474 139.843 186.41 139.916C186.347 139.989 186.314 140.083 186.32 140.18C186.323 140.276 186.363 140.368 186.432 140.435C186.501 140.502 186.594 140.54 186.69 140.54H187.84C188.132 140.518 188.422 140.481 188.71 140.43L189.3 140.34L189.74 140.24C190.236 140.141 190.725 140.004 191.2 139.83C192.91 139.29 197.31 137.41 201.4 131.75C202.86 129.645 204.164 127.436 205.3 125.14C205.58 124.62 205.86 124.08 206.15 123.53C206.56 122.76 206.97 121.97 207.39 121.17C208.65 118.74 209.95 116.24 211.39 113.6C212.56 111.52 213.59 109.82 214.63 108.26C215.875 106.425 217.249 104.681 218.74 103.04C222.014 99.4072 225.809 96.2799 230 93.76C232.246 92.4023 234.585 91.2059 237 90.18L238.33 89.63C239.14 89.29 239.95 88.95 240.77 88.63L244.71 87.22C250.284 85.3733 256.024 84.0739 261.85 83.34C274.861 81.6324 288.091 83.0411 300.45 87.45C314.274 92.5702 326.158 101.871 334.45 114.06C334.94 114.78 335.5 115.61 336.01 116.48C336.52 117.35 337.01 118.12 337.48 118.96C338.386 120.678 339.19 122.448 339.89 124.26C341.13 127.39 342.12 130.57 343.17 133.94L343.69 135.58C344.411 137.624 345.776 139.379 347.58 140.58C349.397 141.787 351.551 142.386 353.73 142.29L366.21 142.47C366.886 142.382 367.573 142.431 368.229 142.615C368.886 142.799 369.498 143.114 370.03 143.54C370.487 144.054 370.828 144.66 371.03 145.318C371.232 145.975 371.29 146.668 371.2 147.35L371.14 149C371.14 150 371.07 151 371.01 152C370.96 152.56 370.92 153.13 370.87 153.69C370.79 154.69 370.71 155.69 370.6 156.69C369.884 163.027 368.649 169.295 366.91 175.43C363.277 188.138 357.806 200.246 350.67 211.37C346.535 217.941 341.765 224.09 336.43 229.73C333.807 232.496 330.997 235.079 328.02 237.46C325.062 239.794 321.952 241.929 318.71 243.85C312.266 247.538 305.461 250.554 298.4 252.85L296.96 253.32C295.72 253.73 294.44 254.15 293.17 254.52L290.55 255.31C289.62 255.576 288.732 255.97 287.91 256.48C286.262 257.519 284.971 259.037 284.21 260.83C283.832 261.721 283.596 262.666 283.51 263.63C283.46 264.3 283.46 264.94 283.51 265.56V266.37C283.51 286.81 283.04 306.09 282.58 324.74C282.4 332.08 282.22 339.25 282.08 346.21C282.055 347.776 282.213 349.34 282.55 350.87C282.834 352.483 283.634 353.961 284.83 355.08C285.506 355.598 286.314 355.914 287.161 355.992C288.009 356.07 288.861 355.906 289.62 355.52C290.352 355.16 290.994 354.64 291.5 354C291.992 353.382 292.378 352.685 292.64 351.94C293.394 349.496 293.748 346.947 293.69 344.39V343.3C293.75 340.6 293.69 337.93 293.69 335.3V334.16C293.69 331.66 293.69 329.29 293.69 326.92V326.55C293.675 324.12 293.876 321.694 294.29 319.3C294.39 318.758 294.59 318.239 294.88 317.77C295.246 317.366 295.697 317.049 296.2 316.84C296.66 316.597 297.171 316.464 297.692 316.451C298.212 316.439 298.729 316.548 299.2 316.77C299.606 317.107 299.932 317.531 300.154 318.01C300.375 318.489 300.487 319.012 300.48 319.54C300.525 320.356 300.525 321.174 300.48 321.99C300.48 322.34 300.48 322.7 300.48 323.05L299.9 369.57C299.776 370.67 299.776 371.78 299.9 372.88C299.969 373.991 300.374 375.054 301.06 375.93C301.465 376.371 302.008 376.66 302.6 376.75C303.11 376.81 303.6 376.87 304.02 376.88C304.92 376.93 305.79 376.95 306.69 376.95H307.3C310.23 376.95 312.76 376.87 314.82 376.8L320.49 376.56C321.67 376.5 322.28 376.45 322.28 376.45C322.376 376.442 322.466 376.397 322.53 376.324C322.593 376.251 322.626 376.157 322.62 376.06C322.609 375.965 322.564 375.877 322.495 375.811C322.426 375.746 322.335 375.706 322.24 375.7C322.24 375.7 321.64 375.7 320.46 375.76L314.59 375.94C312.44 376 309.77 376.07 306.69 376.04C305.78 376.04 304.95 376.04 304.09 375.96H303.67C303.328 375.99 302.983 375.95 302.657 375.844C302.33 375.737 302.029 375.566 301.77 375.34C301.205 374.611 300.883 373.722 300.85 372.8C300.743 371.748 300.76 370.688 300.9 369.64L301.61 323.09C301.61 322.74 301.61 322.39 301.61 322.04C301.66 321.181 301.66 320.319 301.61 319.46C301.553 318.805 301.402 318.161 301.16 317.55C300.911 316.863 300.444 316.276 299.83 315.88C299.209 315.483 298.476 315.297 297.74 315.35C297.049 315.403 296.372 315.576 295.74 315.86C295.069 316.137 294.473 316.569 294 317.12C293.593 317.723 293.317 318.404 293.19 319.12C292.762 321.557 292.548 324.026 292.55 326.5V327C292.5 329.43 292.55 331.83 292.55 334.38V335.38C292.55 337.96 292.55 340.63 292.55 343.3V344.3C292.605 346.754 292.267 349.202 291.55 351.55C291.356 352.176 291.036 352.755 290.61 353.252C290.183 353.749 289.659 354.153 289.07 354.44C288.511 354.732 287.881 354.859 287.253 354.808C286.625 354.756 286.024 354.528 285.52 354.15C284.541 353.183 283.887 351.935 283.65 350.58C283.337 349.145 283.193 347.678 283.22 346.21C283.36 339.4 283.54 332.4 283.72 325.21C284.2 306.41 284.72 286.97 284.72 266.33V265.52C284.72 264.91 284.72 264.28 284.72 263.7C284.795 262.866 285.001 262.05 285.33 261.28C285.989 259.719 287.114 258.399 288.55 257.5C289.274 257.055 290.059 256.719 290.88 256.5L293.5 255.71C294.78 255.33 296.08 254.91 297.33 254.5L298.76 254.03C305.91 251.731 312.806 248.705 319.34 245C322.632 243.042 325.792 240.871 328.8 238.5C331.82 236.082 334.673 233.462 337.34 230.66C342.731 224.962 347.551 218.749 351.73 212.11C358.931 200.876 364.452 188.65 368.12 175.82C369.879 169.619 371.126 163.285 371.85 156.88C371.96 155.88 372.04 154.88 372.12 153.88C372.12 153.32 372.21 152.76 372.26 152.19C372.32 151.19 372.36 150.19 372.39 149.19L372.45 147.53C372.567 146.65 372.486 145.754 372.215 144.909C371.943 144.063 371.487 143.288 370.88 142.64Z" fill="#455A64"/>
</svg>
