<svg width="56" height="59" viewBox="0 0 56 59" fill="none" xmlns="http://www.w3.org/2000/svg">
<g clip-path="url(#clip0_129_65)">
<path d="M23.5993 39.6578C22.4414 39.6578 21.5027 40.6648 21.5027 41.9069V29.4333C21.5027 28.2812 20.632 27.3472 19.558 27.3472C18.484 27.3472 17.6132 28.2813 17.6132 29.4333V26.8062C17.6132 25.6541 16.7424 24.72 15.6684 24.72C14.5944 24.72 13.7237 25.6541 13.7237 26.8062V30.0591C13.7237 28.907 12.8529 27.9729 11.7789 27.9729C10.7049 27.9729 9.83412 28.9068 9.83412 30.0591V34.2838C9.83412 33.1316 8.96336 32.1975 7.88935 32.1975C6.81534 32.1975 5.94458 33.1316 5.94458 34.2838V45.6459V48.4952C5.94458 51.4854 6.90257 54.3845 8.65806 56.707L20.0315 56.6861C23.333 55.9368 25.6951 52.8109 25.6951 49.191V41.9066C25.6959 40.6648 24.7572 39.6578 23.5993 39.6578Z" fill="#FAF0D7"/>
<path d="M32.4068 39.6578C33.5647 39.6578 34.5034 40.6648 34.5034 41.9069V29.4333C34.5034 28.2812 35.3742 27.3472 36.4482 27.3472C37.5222 27.3472 38.3929 28.2813 38.3929 29.4333V26.8062C38.3929 25.6541 39.2637 24.72 40.3377 24.72C41.4117 24.72 42.2825 25.6541 42.2825 26.8062V30.0591C42.2825 28.907 43.1532 27.9729 44.2272 27.9729C45.3013 27.9729 46.172 28.9068 46.172 30.0591V34.2838C46.172 33.1316 47.0428 32.1975 48.1168 32.1975C49.1908 32.1975 50.0616 33.1316 50.0616 34.2838V45.6459V48.4952C50.0616 51.4854 49.1036 54.3845 47.3481 56.707L35.9746 56.6861C32.6731 55.9368 30.311 52.8109 30.311 49.191V41.9066C30.3103 40.6648 31.2489 39.6578 32.4068 39.6578Z" fill="#FAF0D7"/>
<path d="M7.23506 51.4211C7.10852 50.8799 6.59719 50.5513 6.0923 50.6869C5.58774 50.8227 5.28137 51.3715 5.40792 51.9128C5.86919 53.8857 6.74425 55.7636 7.93835 57.3436C8.12441 57.5898 8.39629 57.7176 8.67043 57.7176C8.87883 57.7176 9.08863 57.6438 9.26297 57.492C9.66699 57.1405 9.72897 56.5043 9.40133 56.071C8.37921 54.7181 7.63005 53.1102 7.23506 51.4211Z" fill="black"/>
<path d="M23.6105 38.6473C23.2019 38.6473 22.812 38.7349 22.4557 38.8926V29.4332C22.4557 27.7257 21.1608 26.3367 19.5692 26.3367C19.2122 26.3367 18.8704 26.407 18.5546 26.5347C18.426 24.9539 17.1861 23.7096 15.6798 23.7096C14.0882 23.7096 12.7934 25.0986 12.7934 26.8059V27.1557C12.4808 27.0311 12.143 26.9627 11.7904 26.9627C10.1987 26.9627 8.90397 28.3517 8.90397 30.059V31.3803C8.59137 31.2557 8.25364 31.1873 7.90119 31.1873C6.30951 31.1873 5.01465 32.5763 5.01465 34.2838L5.32368 51.625C5.32368 52.2282 5.74531 52.6352 6.26545 52.6352C6.78559 52.6352 7.20722 52.1829 7.20722 51.625L6.89819 34.2838C6.89819 33.6905 7.34807 33.2078 7.90119 33.2078C8.4542 33.2078 8.90397 33.6904 8.90397 34.2838V43.4141C8.90397 43.9721 9.3256 44.4244 9.84574 44.4244C10.3659 44.4244 10.7875 43.9721 10.7875 43.4141V30.059C10.7875 29.4658 11.2374 28.9833 11.7905 28.9833C12.3435 28.9833 12.7933 29.4659 12.7933 30.059V42.5409C12.7933 43.0989 13.2149 43.5511 13.7351 43.5511C14.2552 43.5511 14.6768 43.0989 14.6768 42.5409V26.8061C14.6768 26.2128 15.1267 25.7303 15.6798 25.7303C16.233 25.7303 16.6826 26.2129 16.6826 26.8061V29.4332V43.2201C16.6826 43.778 17.1043 44.2303 17.6244 44.2303C18.1445 44.2303 18.5662 43.778 18.5662 43.2201V29.4332C18.5662 28.84 19.016 28.3572 19.5689 28.3572C20.1218 28.3572 20.5719 28.8398 20.5719 29.4332V47.69C20.5719 48.248 20.9936 48.7003 21.5137 48.7003C22.0339 48.7003 22.4555 48.248 22.4555 47.69V41.9068C22.4555 41.2236 22.9735 40.668 23.6103 40.668C24.2471 40.668 24.7651 41.2236 24.7651 41.9068V49.1911C24.7651 52.3147 22.6973 55.0511 19.8483 55.6977C19.3395 55.8131 19.0142 56.3492 19.122 56.8952C19.2157 57.3705 19.6068 57.6967 20.0424 57.6965C20.1069 57.6965 20.1724 57.6894 20.2383 57.6744C23.9527 56.8316 26.6488 53.2638 26.6488 49.191V41.9066C26.6489 40.1094 25.2858 38.6473 23.6105 38.6473Z" fill="black"/>
<path d="M48.1272 31.1873C47.7747 31.1873 47.4369 31.2557 47.1244 31.3803V30.059C47.1244 28.3516 45.8295 26.9627 44.2378 26.9627C43.8854 26.9627 43.5475 27.0311 43.235 27.1557V26.8059C43.235 25.0985 41.9402 23.7096 40.3485 23.7096C38.8421 23.7096 37.6024 24.954 37.4738 26.5348C37.158 26.4071 36.816 26.3368 36.4592 26.3368C34.8675 26.3368 33.5728 27.7259 33.5728 29.4333V38.8927C33.2165 38.735 32.8266 38.6475 32.418 38.6475C30.7426 38.6475 29.3796 40.1096 29.3796 41.9068V49.1911C29.3796 53.2637 32.0757 56.8317 35.7902 57.6745C35.8558 57.6895 35.9214 57.6967 35.9861 57.6967C36.4217 57.6967 36.8128 57.3707 36.9065 56.8953C37.0141 56.3493 36.6889 55.8133 36.1801 55.6978C33.3312 55.0513 31.2634 52.315 31.2634 49.1912V41.9069C31.2634 41.2238 31.7814 40.6681 32.4182 40.6681C33.055 40.6681 33.573 41.2238 33.573 41.9069V47.6901C33.573 48.2481 33.9946 48.7004 34.5147 48.7004C35.0349 48.7004 35.4565 48.2481 35.4565 47.6901V29.4332C35.4565 28.84 35.9064 28.3572 36.4593 28.3572C37.0122 28.3572 37.4623 28.8398 37.4623 29.4332V43.2201C37.4623 43.778 37.8839 44.2303 38.4041 44.2303C38.9242 44.2303 39.3458 43.778 39.3458 43.2201V29.4332V26.8061C39.3458 26.2128 39.7957 25.7303 40.3486 25.7303C40.9015 25.7303 41.3516 26.2129 41.3516 26.8061L41.3515 40.6681C41.3515 41.2261 41.7731 41.6784 42.2933 41.6784C42.8134 41.6784 43.235 41.2261 43.235 40.6681L43.2352 30.059C43.2352 29.4658 43.685 28.9833 44.2379 28.9833C44.7908 28.9833 45.2409 29.4659 45.2409 30.059V43.4143C45.2409 43.9722 45.6626 44.4245 46.1827 44.4245C46.7028 44.4245 47.1245 43.9722 47.1245 43.4143V34.2839C47.1245 33.6906 47.5744 33.2079 48.1273 33.2079C48.6802 33.2079 49.1303 33.6905 49.1303 34.2839V48.4953C49.1303 51.2448 48.2412 53.9352 46.627 56.0709C46.2994 56.5044 46.3615 57.1405 46.7654 57.4919C46.9399 57.6435 47.1496 57.7175 47.3579 57.7174C47.632 57.7174 47.9039 57.5896 48.09 57.3435C49.9755 54.8489 51.0138 51.7066 51.0138 48.4952V34.2838C51.0137 32.5763 49.7188 31.1873 48.1272 31.1873Z" fill="black"/>
<path d="M28.0636 1.28247C27.5435 1.28247 27.1218 1.73477 27.1218 2.29273V14.8197C27.1218 15.3776 27.5435 15.8299 28.0636 15.8299C28.5837 15.8299 29.0054 15.3776 29.0054 14.8197V2.29273C29.0054 1.73477 28.5836 1.28247 28.0636 1.28247Z" fill="black"/>
<path d="M17.6745 11.9819C17.8125 12.3943 18.1746 12.651 18.561 12.651C18.6666 12.651 18.7741 12.6318 18.8792 12.5913C19.3687 12.4029 19.6231 11.8242 19.4475 11.2991L18.3453 8.0057C18.1697 7.48057 17.6305 7.20758 17.1407 7.3961C16.6512 7.58451 16.3968 8.16322 16.5724 8.68835L17.6745 11.9819Z" fill="black"/>
<path d="M7.9044 16.1369C8.09024 16.3892 8.36567 16.5207 8.64379 16.5207C8.84832 16.5207 9.05446 16.4496 9.2272 16.3029C9.6353 15.9568 9.70448 15.3215 9.38189 14.8838L6.00293 10.2988C5.68045 9.86104 5.08812 9.78683 4.68002 10.1329C4.27193 10.4789 4.20275 11.1142 4.52534 11.552L7.9044 16.1369Z" fill="black"/>
<path d="M9.57072 18.3983L10.3732 19.4871C10.559 19.7393 10.8344 19.8709 11.1125 19.8709C11.3171 19.8709 11.5232 19.7998 11.696 19.6531C12.1041 19.307 12.1732 18.6717 11.8506 18.2339L11.0482 17.1451C10.7257 16.7074 10.1334 16.6331 9.7253 16.9792C9.31742 17.3253 9.24813 17.9605 9.57072 18.3983Z" fill="black"/>
<path d="M37.248 12.5914C37.353 12.6319 37.4605 12.6511 37.566 12.6511C37.9523 12.6511 38.3145 12.3943 38.4526 11.982L39.5546 8.68856C39.7303 8.16343 39.476 7.58495 38.9864 7.39631C38.4969 7.20791 37.9576 7.48067 37.7818 8.00591L36.6797 11.2993C36.5039 11.8244 36.7583 12.4028 37.248 12.5914Z" fill="black"/>
<path d="M55.3278 20.4294C55.028 19.9734 54.4404 19.8648 54.0154 20.1862L51.3497 22.2031C50.9246 22.5247 50.8232 23.1551 51.1229 23.6111C51.3064 23.89 51.5976 24.0392 51.8933 24.0392C52.0809 24.0392 52.2704 23.9792 52.4353 23.8543L55.101 21.8374C55.5261 21.5157 55.6275 20.8854 55.3278 20.4294Z" fill="black"/>
<path d="M4.61448 22.0835L2.00864 19.9787C1.59313 19.6432 1.00263 19.7325 0.689709 20.1781C0.376895 20.6238 0.46004 21.2573 0.875549 21.5929L3.48139 23.6977C3.65112 23.8347 3.84996 23.901 4.04708 23.901C4.33271 23.901 4.61502 23.762 4.80021 23.4983C5.11314 23.0525 5.02999 22.419 4.61448 22.0835Z" fill="black"/>
<path d="M49.285 13.0661C49.458 13.2127 49.6639 13.2838 49.8684 13.2838C50.1464 13.2838 50.422 13.1522 50.6078 12.9001L51.6015 11.5519C51.9241 11.1141 51.8549 10.4788 51.4468 10.1328C51.0387 9.78671 50.4466 9.86092 50.1239 10.2987L49.1302 11.6469C48.8077 12.0847 48.8769 12.72 49.285 13.0661Z" fill="black"/>
<path d="M44.4308 19.6531C44.6037 19.7998 44.8098 19.8709 45.0142 19.8709C45.2923 19.8709 45.5677 19.7393 45.7536 19.4871L49.0991 14.9475C49.4217 14.5097 49.3524 13.8744 48.9444 13.5283C48.5365 13.1823 47.9441 13.2566 47.6215 13.6943L44.276 18.234C43.9534 18.6718 44.0228 19.307 44.4308 19.6531Z" fill="black"/>
</g>
<defs>
<clipPath id="clip0_129_65">
<rect width="55" height="59" fill="white" transform="translate(0.5)"/>
</clipPath>
</defs>
</svg>
