<svg width="500" height="500" viewBox="0 0 500 500" fill="none" xmlns="http://www.w3.org/2000/svg">
<g clip-path="url(#clip0_2_677)">
<path d="M477.56 478.22C477.56 478.36 375.67 478.48 250.01 478.48C124.35 478.48 22.44 478.36 22.44 478.22C22.44 478.08 124.31 478 250 478C375.69 478 477.56 478.07 477.56 478.22Z" fill="#263238"/>
<path d="M340.13 435.8L338.93 433.98L193.24 429.02L174.61 478.17L349 477.96L340.13 435.8Z" fill="#F5CD69"/>
<path opacity="0.3" d="M340.13 435.8L338.93 433.98L193.24 429.02L174.61 478.17L349 477.96L340.13 435.8Z" fill="black"/>
<path d="M410 301.43C409.931 300.375 409.611 299.352 409.066 298.446C408.522 297.54 407.769 296.777 406.87 296.22C378.98 277.77 357.97 236.87 355.87 202.22C355.817 200.22 355.757 198.22 355.69 196.22C354.08 146.72 346.79 86.68 340.24 70.67C328.15 41.11 287.24 38.33 287.24 38.33C232.89 34.44 223.24 76.21 217.7 114.25C214.29 137.9 201.14 222.4 201.14 222.4L211.14 226.26C222.91 261.14 249.41 289.34 283.86 302.26C293.86 306.04 302.36 307.55 306.34 304.31C322.233 320.441 341.885 332.372 363.53 339.03C372.31 341.7 381.53 343.48 390.65 342.63C396.58 342.07 402.83 340.11 406.37 335.32C407.902 333.24 408.811 330.768 408.993 328.191C409.175 325.615 408.621 323.039 407.397 320.765C406.172 318.491 404.327 316.611 402.075 315.344C399.824 314.078 397.26 313.476 394.68 313.61C396.69 307 410.24 309 410 301.43Z" fill="#F5CD69"/>
<g opacity="0.3">
<path d="M410 301.43C409.931 300.375 409.611 299.352 409.066 298.446C408.522 297.54 407.769 296.777 406.87 296.22C378.98 277.77 357.97 236.87 355.87 202.22C355.817 200.22 355.757 198.22 355.69 196.22C354.08 146.72 346.79 86.68 340.24 70.67C328.15 41.11 287.24 38.33 287.24 38.33C232.89 34.44 223.24 76.21 217.7 114.25C214.29 137.9 201.14 222.4 201.14 222.4L211.14 226.26C222.91 261.14 249.41 289.34 283.86 302.26C293.86 306.04 302.36 307.55 306.34 304.31C322.233 320.441 341.885 332.372 363.53 339.03C372.31 341.7 381.53 343.48 390.65 342.63C396.58 342.07 402.83 340.11 406.37 335.32C407.902 333.24 408.811 330.768 408.993 328.191C409.175 325.615 408.621 323.039 407.397 320.765C406.172 318.491 404.327 316.611 402.075 315.344C399.824 314.078 397.26 313.476 394.68 313.61C396.69 307 410.24 309 410 301.43Z" fill="black"/>
</g>
<path d="M294.44 53.72L291 50.47L254.29 65.28C251.726 65.4238 249.308 66.5231 247.515 68.3613C245.721 70.1994 244.681 72.643 244.6 75.21L244.93 194.94C244.88 203.06 246.51 210.09 251.41 216.56L256.57 223.37C268.34 238.91 292.57 237.63 301.86 220.51C302.423 219.54 302.86 218.501 303.16 217.42C303.387 216.537 303.567 215.642 303.7 214.74C304.8 205.11 304.86 196.74 304.86 196.74C305.51 186.17 305.73 181.83 305.73 181.93C305.73 182.03 328.24 179.34 334.32 150.45C337.32 136.08 336.78 116.32 335.93 96.87C334.75 70 316.08 53.69 294.44 53.72Z" fill="#F5CD69"/>
<g opacity="0.3">
<path d="M286.9 113C286.864 113.975 286.446 114.897 285.738 115.569C285.029 116.24 284.086 116.606 283.11 116.59C282.633 116.605 282.158 116.524 281.712 116.351C281.267 116.179 280.861 115.919 280.518 115.588C280.175 115.256 279.902 114.858 279.715 114.419C279.528 113.98 279.431 113.507 279.43 113.03C279.472 112.056 279.89 111.137 280.598 110.467C281.305 109.797 282.246 109.429 283.22 109.44C283.697 109.427 284.171 109.509 284.616 109.681C285.061 109.854 285.466 110.114 285.809 110.446C286.152 110.777 286.425 111.174 286.612 111.613C286.8 112.051 286.898 112.523 286.9 113V113Z" fill="black"/>
</g>
<g opacity="0.3">
<path d="M324.89 114C324.848 114.973 324.429 115.891 323.722 116.559C323.014 117.228 322.073 117.594 321.1 117.58C320.623 117.595 320.148 117.514 319.702 117.341C319.257 117.169 318.851 116.909 318.508 116.578C318.165 116.246 317.892 115.848 317.705 115.409C317.518 114.97 317.421 114.497 317.42 114.02C317.456 113.046 317.872 112.126 318.579 111.455C319.285 110.784 320.226 110.416 321.2 110.43C321.678 110.417 322.154 110.499 322.6 110.672C323.046 110.845 323.453 111.106 323.796 111.438C324.14 111.771 324.414 112.169 324.602 112.609C324.789 113.049 324.888 113.522 324.89 114V114Z" fill="black"/>
</g>
<g opacity="0.3">
<path d="M332.08 104.57C331.6 105.03 328.87 102.8 324.85 102.57C320.83 102.34 317.79 104.24 317.38 103.72C317.17 103.5 317.69 102.64 319.02 101.72C320.815 100.605 322.91 100.071 325.02 100.19C327.112 100.287 329.119 101.047 330.75 102.36C332 103.46 332.32 104.36 332.08 104.57Z" fill="black"/>
</g>
<g opacity="0.3">
<path d="M291.3 105C290.77 105.41 288.3 102.9 284.3 102.3C280.3 101.7 277.1 103.24 276.74 102.68C276.56 102.44 277.16 101.68 278.58 100.91C280.483 99.9794 282.628 99.6614 284.72 100C286.788 100.316 288.703 101.278 290.19 102.75C291.27 103.87 291.56 104.81 291.3 105Z" fill="black"/>
</g>
<g opacity="0.3">
<path d="M305.34 134.24C305.34 134.01 307.85 133.71 311.93 133.39C312.93 133.39 313.93 133.18 314.15 132.49C314.37 131.8 314.05 130.63 313.61 129.41L310.97 121.41C307.31 110.07 304.72 100.77 305.18 100.63C305.64 100.49 308.97 109.56 312.63 120.89C313.51 123.69 314.35 126.35 315.14 128.89C315.47 130.07 316.08 131.43 315.47 132.94C315.305 133.296 315.06 133.609 314.755 133.855C314.45 134.101 314.093 134.274 313.71 134.36C313.136 134.488 312.547 134.538 311.96 134.51C307.87 134.58 305.34 134.47 305.34 134.24Z" fill="black"/>
</g>
<g opacity="0.2">
<path d="M305.73 181.94C292.007 181.46 278.686 177.181 267.25 169.58C267.25 169.58 276.05 190.23 305.33 188.97L305.73 181.94Z" fill="black"/>
</g>
<path d="M303.15 143.84C302.434 142.842 301.475 142.042 300.364 141.517C299.253 140.992 298.026 140.759 296.8 140.84C295.909 140.874 295.034 141.088 294.228 141.47C293.422 141.851 292.701 142.392 292.11 143.06C291.54 143.702 291.181 144.504 291.081 145.357C290.981 146.21 291.144 147.073 291.55 147.83C292.55 149.41 294.81 149.88 296.75 149.43C298.682 148.853 300.481 147.898 302.04 146.62C302.507 146.318 302.917 145.936 303.25 145.49C303.406 145.274 303.496 145.017 303.509 144.75C303.521 144.484 303.456 144.22 303.32 143.99" fill="#F5CD69"/>
<g opacity="0.2">
<path d="M303.15 143.84C302.434 142.842 301.475 142.042 300.364 141.517C299.253 140.992 298.026 140.759 296.8 140.84C295.909 140.874 295.034 141.088 294.228 141.47C293.422 141.851 292.701 142.392 292.11 143.06C291.54 143.702 291.181 144.504 291.081 145.357C290.981 146.21 291.144 147.073 291.55 147.83C292.55 149.41 294.81 149.88 296.75 149.43C298.682 148.853 300.481 147.898 302.04 146.62C302.507 146.318 302.917 145.936 303.25 145.49C303.406 145.274 303.496 145.017 303.509 144.75C303.521 144.484 303.456 144.22 303.32 143.99" fill="black"/>
</g>
<g opacity="0.3">
<path d="M294.45 90.46C293.66 91.32 290.16 89.28 285.59 87.97C281.02 86.66 277 86.36 276.81 85.21C276.73 84.67 277.74 83.98 279.57 83.6C281.968 83.2009 284.426 83.3538 286.757 84.0469C289.087 84.74 291.229 85.9551 293.02 87.6C294.34 88.92 294.81 90.05 294.45 90.46Z" fill="black"/>
</g>
<g opacity="0.3">
<path d="M329.45 95C328.82 96 325.98 95.24 322.65 95.46C319.32 95.68 316.56 96.55 315.84 95.65C315.52 95.21 315.89 94.27 317.05 93.31C318.621 92.1346 320.508 91.4552 322.467 91.359C324.427 91.2628 326.371 91.7541 328.05 92.77C329.27 93.61 329.73 94.52 329.45 95Z" fill="black"/>
</g>
<path d="M245.34 126.31C245.34 126.31 265.92 132.71 277.57 81.91C281.57 64.54 297.66 50.47 297.66 50.47L291.12 48.47C291.12 48.47 250.53 59.91 249.85 60.47C249.17 61.03 239.61 81.47 239.61 81.47L245.34 126.31Z" fill="#F5CD69"/>
<path d="M250.41 124.42C250.51 122.25 248.26 117.01 246.14 116.57C240.46 115.39 230.14 115.33 229.31 129.85C228.18 149.7 248.31 146.74 248.41 146.17C248.51 145.6 250.05 131.91 250.41 124.42Z" fill="#F5CD69"/>
<g opacity="0.3">
<path d="M242.77 138.31C242.69 138.24 242.41 138.53 241.77 138.76C240.931 139.069 240.005 139.037 239.19 138.67C237.13 137.78 235.56 134.35 235.66 130.77C235.706 129.064 236.133 127.39 236.91 125.87C237.132 125.262 237.498 124.717 237.977 124.281C238.456 123.846 239.034 123.533 239.66 123.37C240.065 123.283 240.487 123.342 240.853 123.536C241.219 123.73 241.505 124.046 241.66 124.43C241.89 125 241.74 125.43 241.85 125.43C241.96 125.43 242.29 125.12 242.18 124.29C242.095 123.792 241.845 123.338 241.47 123C240.948 122.558 240.272 122.339 239.59 122.39C238.05 122.39 236.59 123.74 235.8 125.26C234.853 126.931 234.334 128.81 234.29 130.73C234.19 134.73 236.02 138.59 238.84 139.58C239.365 139.766 239.925 139.833 240.479 139.774C241.033 139.715 241.566 139.533 242.04 139.24C242.71 138.78 242.84 138.34 242.77 138.31Z" fill="black"/>
</g>
<g opacity="0.3">
<path d="M245.34 126.31C245.34 126.31 265.92 132.71 277.57 81.91C281.57 64.54 297.66 50.47 297.66 50.47L291.12 48.47C291.12 48.47 250.53 59.91 249.85 60.47C249.17 61.03 239.61 81.47 239.61 81.47L245.34 126.31Z" fill="black"/>
</g>
<path d="M293.37 136.43C294.03 136.43 293.82 140.79 297.37 144.07C300.92 147.35 305.61 147.07 305.62 147.72C305.62 147.99 304.54 148.51 302.62 148.47C300.062 148.378 297.619 147.387 295.72 145.67C293.901 144.021 292.794 141.73 292.63 139.28C292.54 137.44 293.08 136.39 293.37 136.43Z" fill="#F5CD69"/>
<g opacity="0.3">
<path d="M293.37 136.43C294.03 136.43 293.82 140.79 297.37 144.07C300.92 147.35 305.61 147.07 305.62 147.72C305.62 147.99 304.54 148.51 302.62 148.47C300.062 148.378 297.619 147.387 295.72 145.67C293.901 144.021 292.794 141.73 292.63 139.28C292.54 137.44 293.08 136.39 293.37 136.43Z" fill="black"/>
</g>
<path d="M449.29 137.71C449.29 137.71 475.82 191.09 480.29 202.31C484.19 212.02 505.75 257.51 499.08 270.13C492.41 282.75 486.5 282.13 477.21 282.6C467.92 283.07 407.49 280.6 391.82 279.97C371.89 279.14 349.96 273.48 349.96 273.48L360.24 218.79L440.13 233.65L426.63 146.86L449.29 137.71Z" fill="#F5CD69"/>
<path d="M449.44 138.11C449.44 138.11 444.84 129.93 441.99 127.97C439.14 126.01 415.99 105.71 415.99 105.71C415.99 105.71 406.91 96.09 404.41 96.63C401.91 97.17 378.22 113 378 115.51C377.78 118.02 379.07 119.42 380.5 119.78C381.93 120.14 379.78 121.78 383.5 125.48C383.5 125.48 379.94 125.3 380.12 128.69C380.3 132.08 380.12 136.69 382.44 136.88C384.76 137.07 392.05 139.2 392.44 135.28L393.15 133.67C396.898 136.313 400.897 138.581 405.09 140.44C410.79 142.76 419.87 142.58 419.87 142.58C421.477 144.84 423.909 146.378 426.64 146.86C430.94 147.39 449.44 138.11 449.44 138.11Z" fill="#F5CD69"/>
<g opacity="0.3">
<path d="M413.94 123.48C413.86 123.42 413.08 124.32 412.7 126.16C412.29 128.547 412.662 131.002 413.76 133.16C414.852 135.275 416.296 137.189 418.03 138.82C419.32 140.07 420.19 140.76 420.28 140.67C420.37 140.58 419.66 139.73 418.5 138.38C416.968 136.676 415.655 134.788 414.59 132.76C413.577 130.741 413.144 128.48 413.34 126.23C413.53 124.53 414.08 123.55 413.94 123.48Z" fill="black"/>
</g>
<g opacity="0.3">
<path d="M403 128.18C402.95 128.18 403 128.38 403.19 128.57C403.506 128.805 403.899 128.912 404.29 128.87C404.885 128.794 405.458 128.597 405.974 128.291C406.49 127.985 406.938 127.576 407.29 127.09C408.023 126.152 408.412 124.99 408.39 123.8C408.34 122.9 408.04 122.4 407.94 122.44C407.84 122.48 407.85 122.99 407.74 123.77C407.581 124.773 407.176 125.722 406.56 126.53C405.964 127.332 405.132 127.927 404.18 128.23C403.52 128.43 403.14 128.11 403 128.18Z" fill="black"/>
</g>
<g opacity="0.3">
<path d="M411.92 105.52C411.552 105.379 411.157 105.323 410.765 105.354C410.372 105.385 409.991 105.503 409.65 105.7C408.819 106.092 408.093 106.675 407.53 107.4C406.85 108.22 406.26 109.24 405.53 110.31C403.869 112.838 402.073 115.275 400.15 117.61C399.07 118.93 397.89 120.28 396.62 121.61C395.889 122.305 395.292 123.128 394.86 124.04C394.658 124.562 394.584 125.125 394.643 125.681C394.702 126.238 394.893 126.772 395.2 127.24C395.755 128.094 396.429 128.865 397.2 129.53C397.92 130.18 398.64 130.81 399.37 131.4C400.77 132.57 402.262 133.627 403.83 134.56C404.619 135.013 405.51 135.257 406.42 135.27C407.278 135.243 408.115 134.995 408.85 134.55C410.138 133.809 411.21 132.743 411.96 131.46C412.278 130.915 412.469 130.306 412.517 129.677C412.566 129.048 412.471 128.417 412.24 127.83C412.065 127.382 411.774 126.989 411.396 126.691C411.018 126.394 410.567 126.204 410.09 126.14C409.499 126.05 408.897 126.194 408.41 126.54C408.09 126.79 408.01 126.99 408.02 127C408.296 126.774 408.618 126.611 408.963 126.523C409.309 126.435 409.67 126.424 410.02 126.49C410.418 126.572 410.788 126.757 411.092 127.028C411.396 127.298 411.623 127.644 411.75 128.03C411.922 128.543 411.978 129.089 411.914 129.627C411.85 130.164 411.668 130.681 411.38 131.14C410.649 132.285 409.641 133.227 408.45 133.88C407.826 134.251 407.116 134.451 406.39 134.46C405.621 134.431 404.872 134.211 404.21 133.82C402.703 132.89 401.269 131.847 399.92 130.7C399.21 130.12 398.5 129.5 397.79 128.85C397.104 128.251 396.501 127.561 396 126.8C395.764 126.452 395.616 126.052 395.567 125.634C395.518 125.216 395.571 124.793 395.72 124.4C396.111 123.595 396.643 122.867 397.29 122.25C398.557 120.87 399.733 119.503 400.82 118.15C402.733 115.767 404.493 113.265 406.09 110.66C406.78 109.55 407.33 108.52 407.93 107.72C408.423 107.025 409.061 106.445 409.8 106.02C410.458 105.691 411.184 105.519 411.92 105.52V105.52Z" fill="black"/>
</g>
<g opacity="0.3">
<path d="M407.73 122.54C407.62 122.6 407.73 123.02 408.12 123.54C408.666 124.251 409.406 124.789 410.25 125.09C411.091 125.401 412.003 125.467 412.88 125.28C413.55 125.11 413.88 124.84 413.88 124.74C413.88 124.64 412.29 124.87 410.6 124.23C408.91 123.59 408 122.4 407.73 122.54Z" fill="black"/>
</g>
<g opacity="0.3">
<path d="M402.59 102.31C402.083 102.725 401.626 103.198 401.23 103.72C400.4 104.66 399.23 106.04 397.79 107.72L392.79 113.8L389.85 117.41C388.724 118.684 387.72 120.06 386.85 121.52C386.367 122.29 386.081 123.167 386.016 124.074C385.952 124.981 386.111 125.889 386.48 126.72C387.332 128.101 388.484 129.273 389.85 130.15C392.24 131.93 394.25 133.64 396.23 134.86C397.135 135.43 398.164 135.774 399.23 135.86C400.039 135.89 400.841 135.7 401.55 135.31C402.71 134.62 402.85 133.77 402.81 133.79C402.425 134.288 401.938 134.698 401.38 134.99C400.717 135.294 399.986 135.418 399.26 135.35C398.301 135.23 397.383 134.888 396.58 134.35C394.77 133.14 392.73 131.35 390.39 129.53C389.149 128.706 388.096 127.629 387.3 126.37C387.003 125.665 386.883 124.898 386.951 124.136C387.019 123.375 387.273 122.641 387.69 122C388.528 120.585 389.488 119.247 390.56 118L393.46 114.36L398.32 108.15C399.7 106.38 400.8 104.93 401.54 103.92C401.957 103.43 402.31 102.889 402.59 102.31V102.31Z" fill="black"/>
</g>
<g opacity="0.3">
<path d="M394.87 104.14C394.64 103.98 391.73 108.47 386.87 112.78C385.672 113.788 384.559 114.892 383.54 116.08C382.701 117.091 382.081 118.266 381.72 119.53C381.14 121.76 381.89 123.13 381.97 123.06C381.9 121.933 382.029 120.802 382.35 119.72C382.759 118.576 383.388 117.523 384.2 116.62C385.224 115.497 386.323 114.444 387.49 113.47C389.603 111.589 391.502 109.479 393.15 107.18C393.89 106.271 394.472 105.243 394.87 104.14V104.14Z" fill="black"/>
</g>
<g opacity="0.3">
<path d="M383.68 129.53C383.68 129.85 386.3 129.53 389.11 130.48C390.299 130.902 391.362 131.618 392.2 132.56C392.84 133.29 393.09 133.88 393.2 133.83C393.31 133.78 393.28 133.11 392.71 132.17C391.921 130.98 390.761 130.083 389.41 129.62C388.097 129.166 386.703 128.999 385.32 129.13C384.29 129.22 383.67 129.41 383.68 129.53Z" fill="black"/>
</g>
<path opacity="0.3" d="M440.38 233.1C440.607 234.181 441.023 235.214 441.61 236.15C442.834 238.496 444.31 240.702 446.01 242.73C447.709 244.763 449.62 246.61 451.71 248.24C452.53 248.978 453.47 249.57 454.49 249.99C454.66 249.76 450.61 246.83 446.72 242.14C442.83 237.45 440.63 233 440.38 233.1Z" fill="black"/>
<path opacity="0.2" d="M381.61 279.17L390.66 224.44L396.85 225.59L389.71 279.86L381.61 279.17Z" fill="black"/>
<path d="M78.7 116.4C78.7 116.4 52.17 169.79 47.7 181C43.8 190.71 22.24 236.2 28.91 248.82C35.58 261.44 41.5 260.82 50.78 261.29C60.06 261.76 120.5 259.29 136.17 258.66C156.11 257.83 178.03 252.17 178.03 252.17L167.75 197.48L87.83 212.34L101.32 125.55L78.7 116.4Z" fill="#F5CD69"/>
<path d="M78.55 116.8C78.55 116.8 83.16 108.63 86.01 106.67C88.86 104.71 112 84.4 112 84.4C112 84.4 121.08 74.78 123.58 75.32C126.08 75.86 149.77 91.7 150 94.2C150.23 96.7 148.93 98.12 147.51 98.47C146.09 98.82 148.22 100.47 144.51 104.17C144.51 104.17 147.02 104.1 147.89 107.38C148.76 110.66 148.89 113.7 145.58 115.57C143.06 116.99 137.06 118.41 134.96 112.57L134.89 112.42C131.145 115.059 127.149 117.324 122.96 119.18C117.26 121.5 108.17 121.32 108.17 121.32C106.563 123.58 104.131 125.118 101.4 125.6C97.05 126.08 78.55 116.8 78.55 116.8Z" fill="#F5CD69"/>
<g opacity="0.3">
<path d="M114.05 102.17C114.13 102.11 114.92 103.01 115.3 104.85C115.701 107.238 115.326 109.691 114.23 111.85C113.153 113.973 111.722 115.897 110 117.54C109.36 118.282 108.599 118.911 107.75 119.4C107.66 119.3 108.37 118.4 109.53 117.1C111.062 115.396 112.375 113.508 113.44 111.48C114.436 109.474 114.855 107.23 114.65 105C114.47 103.22 113.91 102.24 114.05 102.17Z" fill="black"/>
</g>
<g opacity="0.3">
<path d="M125 106.87C125 106.87 125 107.07 124.8 107.26C124.484 107.494 124.092 107.605 123.7 107.57C123.106 107.491 122.534 107.292 122.018 106.986C121.503 106.68 121.054 106.273 120.7 105.79C119.961 104.851 119.569 103.685 119.59 102.49C119.65 101.59 119.94 101.1 120.05 101.13C120.16 101.16 120.13 101.68 120.24 102.46C120.399 103.463 120.804 104.412 121.42 105.22C122.016 106.022 122.848 106.617 123.8 106.92C124.47 107.13 124.85 106.8 125 106.87Z" fill="black"/>
</g>
<g opacity="0.3">
<path d="M116.08 84.21C116.446 84.0688 116.839 84.0117 117.23 84.0429C117.622 84.074 118.001 84.1927 118.34 84.39C119.172 84.7795 119.899 85.3624 120.46 86.09C121.14 86.91 121.74 87.94 122.46 89.01C124.126 91.535 125.921 93.9716 127.84 96.31C128.92 97.63 130.11 98.97 131.37 100.31C132.105 101.002 132.702 101.826 133.13 102.74C133.332 103.264 133.406 103.828 133.347 104.386C133.288 104.944 133.097 105.48 132.79 105.95C132.235 106.801 131.562 107.569 130.79 108.23C130.07 108.88 129.34 109.51 128.61 110.1C127.21 111.27 125.718 112.327 124.15 113.26C123.364 113.711 122.476 113.956 121.57 113.97C120.712 113.943 119.875 113.695 119.14 113.25C117.847 112.512 116.771 111.446 116.02 110.16C115.702 109.617 115.512 109.009 115.463 108.382C115.415 107.755 115.509 107.125 115.74 106.54C115.914 106.091 116.205 105.696 116.583 105.397C116.961 105.098 117.413 104.906 117.89 104.84C118.481 104.75 119.083 104.894 119.57 105.24C119.89 105.49 119.98 105.69 119.96 105.7C119.682 105.478 119.36 105.319 119.014 105.232C118.669 105.146 118.31 105.135 117.96 105.2C117.561 105.277 117.19 105.459 116.886 105.729C116.582 105.998 116.355 106.344 116.23 106.73C116.053 107.243 115.994 107.789 116.058 108.327C116.122 108.866 116.307 109.383 116.6 109.84C117.322 110.989 118.328 111.932 119.52 112.58C120.145 112.949 120.854 113.152 121.58 113.17C122.349 113.134 123.097 112.911 123.76 112.52C125.265 111.591 126.699 110.551 128.05 109.41C128.757 108.817 129.467 108.197 130.18 107.55C130.877 106.953 131.49 106.263 132 105.5C132.238 105.151 132.388 104.749 132.437 104.33C132.486 103.91 132.432 103.484 132.28 103.09C131.889 102.285 131.357 101.557 130.71 100.94C129.443 99.56 128.267 98.1933 127.18 96.84C125.277 94.4533 123.517 91.9556 121.91 89.36C121.22 88.24 120.67 87.21 120.07 86.36C119.582 85.6605 118.943 85.0796 118.2 84.66C117.538 84.3479 116.812 84.1939 116.08 84.21Z" fill="black"/>
</g>
<g opacity="0.3">
<path d="M120.27 101.23C120.37 101.29 120.27 101.71 119.88 102.23C119.323 102.932 118.582 103.465 117.74 103.77C116.898 104.076 115.987 104.141 115.11 103.96C114.44 103.79 114.11 103.53 114.11 103.42C114.11 103.31 115.71 103.55 117.39 102.91C119.07 102.27 120 101.1 120.27 101.23Z" fill="black"/>
</g>
<g opacity="0.3">
<path d="M125.4 81C125.91 81.4114 126.367 81.8851 126.76 82.41C127.59 83.35 128.76 84.74 130.21 86.41L135.21 92.49L138.15 96.1C139.273 97.3756 140.277 98.7514 141.15 100.21C141.633 100.98 141.919 101.857 141.984 102.764C142.048 103.671 141.889 104.579 141.52 105.41C140.668 106.791 139.516 107.963 138.15 108.84C135.76 110.62 133.75 112.33 131.77 113.55C130.865 114.12 129.836 114.464 128.77 114.55C127.964 114.584 127.164 114.394 126.46 114C125.29 113.31 125.15 112.47 125.19 112.49C125.578 112.985 126.065 113.394 126.62 113.69C127.285 113.986 128.015 114.106 128.74 114.04C129.699 113.92 130.617 113.578 131.42 113.04C133.23 111.84 135.27 110.04 137.61 108.23C138.852 107.403 139.905 106.322 140.7 105.06C140.999 104.356 141.12 103.59 141.054 102.828C140.987 102.066 140.736 101.332 140.32 100.69C139.478 99.2755 138.514 97.9371 137.44 96.69L134.54 93.04L129.68 86.84C128.3 85.06 127.2 83.61 126.46 82.6C126.044 82.1111 125.688 81.5739 125.4 81Z" fill="black"/>
</g>
<g opacity="0.3">
<path d="M133.12 82.83C133.35 82.67 136.26 87.16 141.12 91.47C142.315 92.4806 143.429 93.584 144.45 94.77C145.293 95.7789 145.913 96.9546 146.27 98.22C146.85 100.45 146.1 101.82 146.03 101.75C146.087 100.623 145.959 99.4949 145.65 98.41C145.235 97.272 144.607 96.2233 143.8 95.32C142.774 94.1956 141.675 93.14 140.51 92.16C138.391 90.2816 136.489 88.1717 134.84 85.87C134.098 84.9621 133.516 83.9339 133.12 82.83V82.83Z" fill="black"/>
</g>
<g opacity="0.3">
<path d="M144.83 108.58C144.83 108.91 142.22 108.58 139.4 109.58C138.214 110.002 137.151 110.713 136.31 111.65C135.67 112.38 135.43 112.97 135.31 112.93C135.19 112.89 135.23 112.2 135.81 111.27C136.601 110.079 137.76 109.18 139.11 108.71C140.425 108.265 141.817 108.098 143.2 108.22C144.22 108.27 144.84 108.46 144.83 108.58Z" fill="black"/>
</g>
<path opacity="0.3" d="M87.62 211.79C87.3875 212.87 86.9715 213.901 86.39 214.84C83.9152 219.541 80.469 223.662 76.28 226.93C75.46 227.668 74.5198 228.26 73.5 228.68C73.33 228.45 77.38 225.53 81.27 220.83C85.16 216.13 87.36 211.67 87.62 211.79Z" fill="black"/>
<path opacity="0.2" d="M152.56 257.22L142.22 202.22L136.32 203.32L143.38 258.17L152.56 257.22Z" fill="black"/>
<path d="M190.94 396.55C190.94 396.55 177.94 308.35 177.99 295.55C177.99 290.55 175.31 257.39 175.31 257.39L152.94 259.39L141.6 199.15C141.6 199.15 186.06 191.15 198.01 190.54C209.96 189.93 250.17 196.07 250.17 196.07L321.7 207.36C321.7 207.36 341.51 210.53 341.31 210.36L390.87 223.18L381.54 279.59L352 278.43L352.19 314.1C351.8 316.8 354.12 330.29 336.38 351.88L333.38 389.45L346.68 457.8H182.49L190.94 396.55Z" fill="#F5CD69"/>
<g opacity="0.3">
<path d="M304.94 204.72C305.09 204.81 304.7 205.83 303.52 207.37C301.814 209.514 299.762 211.359 297.45 212.83C294.016 215.043 290.191 216.581 286.18 217.36C285.05 217.53 283.89 217.77 282.7 217.9C281.51 218.03 280.28 218.12 279.04 218.16C277.8 218.2 276.53 218.16 275.24 218.16L271.34 217.77C266.366 217.071 261.595 215.33 257.34 212.66C253.903 210.465 250.896 207.658 248.47 204.38C246.828 202.204 245.483 199.82 244.47 197.29C243.78 195.49 243.63 194.42 243.8 194.37C243.97 194.32 244.44 195.24 245.39 196.85C246.694 199.111 248.2 201.25 249.89 203.24C252.369 206.157 255.308 208.65 258.59 210.62C262.615 212.987 267.066 214.54 271.69 215.19C276.336 215.863 281.059 215.812 285.69 215.04C289.466 214.413 293.108 213.149 296.46 211.3C298.729 210.039 300.835 208.504 302.73 206.73C304.12 205.42 304.79 204.63 304.94 204.72Z" fill="black"/>
</g>
<g opacity="0.3">
<path d="M304.92 298.71C305.2 298.62 306.57 302.06 306.87 307.97C307.03 311.43 306.758 314.897 306.06 318.29C304.377 326.7 300.195 334.406 294.06 340.4C291.592 342.836 288.831 344.956 285.84 346.71C280.72 349.71 277.09 350.39 277.01 350.11C276.93 349.83 280.19 348.39 284.85 345.16C290.924 341.017 295.921 335.484 299.425 329.02C302.93 322.557 304.841 315.351 305 308C305.21 302.31 304.5 298.79 304.92 298.71Z" fill="black"/>
</g>
<path d="M76 381.87C76.061 380.958 76.3387 380.074 76.81 379.292C77.2814 378.509 77.9327 377.85 78.71 377.37C102.77 361.45 120.9 326.15 122.71 296.27C122.71 294.57 122.81 292.84 122.87 291.1C124.26 248.38 130.55 196.56 136.2 182.75C146.64 157.22 182 154.82 182 154.82C228.91 151.47 237.28 187.51 242 220.34C244.94 240.75 256.29 313.67 256.29 313.67L247.65 317C237.5 347.09 214.65 371.43 184.9 382.63C176.26 385.88 168.9 387.19 165.5 384.39C151.786 398.325 134.825 408.634 116.14 414.39C108.57 416.7 100.63 418.24 92.74 417.5C87.63 417.02 82.23 415.33 79.17 411.19C77.8449 409.396 77.0573 407.262 76.8991 405.038C76.7408 402.813 77.2184 400.589 78.2761 398.626C79.3339 396.662 80.9282 395.04 82.873 393.948C84.8178 392.857 87.0329 392.34 89.26 392.46C87.49 386.67 75.79 388.36 76 381.87Z" fill="#263238"/>
<path d="M175.73 168.09L178.67 165.29L210.38 178.07C212.592 178.196 214.677 179.146 216.224 180.732C217.771 182.318 218.669 184.425 218.74 186.64L218.46 290C218.46 297 217.09 303.08 212.86 308.66L208.41 314.54C198.25 327.95 177.41 326.85 169.33 312.07C168.834 311.236 168.457 310.338 168.21 309.4C168.006 308.64 167.846 307.868 167.73 307.09C166.79 298.78 166.73 291.57 166.73 291.57C166.16 282.44 165.97 278.7 165.97 278.78C165.97 278.86 146.55 276.55 141.3 251.62C138.69 239.22 139.18 222.16 139.92 205.38C140.94 182.1 157.06 168.07 175.73 168.09Z" fill="#D28D71"/>
<path d="M182.23 219.26C182.264 220.1 182.625 220.893 183.236 221.471C183.847 222.048 184.659 222.364 185.5 222.35C185.912 222.363 186.322 222.294 186.707 222.146C187.092 221.998 187.443 221.774 187.739 221.487C188.036 221.201 188.272 220.858 188.433 220.479C188.595 220.1 188.679 219.692 188.68 219.28C188.646 218.439 188.286 217.645 187.675 217.066C187.064 216.487 186.251 216.169 185.41 216.18C184.998 216.169 184.588 216.241 184.204 216.391C183.82 216.541 183.469 216.765 183.173 217.052C182.877 217.339 182.641 217.682 182.479 218.061C182.317 218.44 182.233 218.848 182.23 219.26V219.26Z" fill="#263238"/>
<path d="M149.45 220.14C149.484 220.98 149.845 221.773 150.456 222.351C151.067 222.928 151.879 223.244 152.72 223.23C153.132 223.243 153.542 223.174 153.927 223.026C154.312 222.878 154.663 222.654 154.959 222.368C155.256 222.081 155.492 221.738 155.653 221.359C155.815 220.98 155.899 220.572 155.9 220.16C155.864 219.32 155.502 218.527 154.892 217.948C154.282 217.37 153.471 217.051 152.63 217.06C152.218 217.049 151.808 217.121 151.424 217.271C151.04 217.421 150.689 217.645 150.393 217.932C150.097 218.219 149.861 218.562 149.699 218.941C149.537 219.32 149.453 219.728 149.45 220.14V220.14Z" fill="#263238"/>
<path d="M143.24 212C143.66 212.4 146.01 210.47 149.48 210.3C152.95 210.13 155.58 211.75 155.93 211.3C156.11 211.1 155.66 210.37 154.52 209.61C152.965 208.652 151.153 208.195 149.33 208.3C147.506 208.372 145.754 209.028 144.33 210.17C143.36 211 143 211.8 143.24 212Z" fill="#263238"/>
<path d="M178.44 212.34C178.9 212.69 181.04 210.53 184.44 210.01C187.84 209.49 190.66 210.82 190.96 210.34C191.12 210.13 190.6 209.44 189.38 208.81C187.737 208.007 185.885 207.735 184.08 208.03C182.295 208.299 180.642 209.129 179.36 210.4C178.46 211.37 178.22 212.18 178.44 212.34Z" fill="#263238"/>
<path d="M166.32 237.58C166.32 237.39 164.15 237.12 160.64 236.85C159.75 236.85 158.9 236.67 158.72 236.07C158.598 235.16 158.759 234.235 159.18 233.42C159.91 231.23 160.66 228.94 161.46 226.54C164.62 216.76 166.85 208.73 166.46 208.61C166.07 208.49 163.18 216.31 160.03 226.1C159.27 228.507 158.547 230.81 157.86 233.01C157.36 234.108 157.26 235.347 157.58 236.51C157.724 236.816 157.936 237.084 158.199 237.296C158.462 237.507 158.771 237.656 159.1 237.73C159.596 237.837 160.103 237.881 160.61 237.86C164.14 237.87 166.32 237.78 166.32 237.58Z" fill="#263238"/>
<path d="M166 278.74C177.843 278.33 189.34 274.639 199.21 268.08C199.21 268.08 191.62 285.9 166.35 284.81L166 278.74Z" fill="#E19C80"/>
<path d="M168.21 245.87C168.826 245.006 169.653 244.313 170.612 243.858C171.571 243.403 172.631 243.201 173.69 243.27C174.459 243.297 175.215 243.481 175.911 243.809C176.607 244.137 177.23 244.604 177.74 245.18C178.233 245.735 178.543 246.428 178.629 247.164C178.714 247.901 178.572 248.647 178.22 249.3C177.35 250.67 175.41 251.07 173.73 250.68C172.066 250.181 170.516 249.359 169.17 248.26C168.781 247.987 168.443 247.649 168.17 247.26C168.035 247.075 167.957 246.853 167.946 246.624C167.935 246.395 167.992 246.167 168.11 245.97" fill="#E19C80"/>
<path d="M176.65 239.47C176.08 239.47 176.26 243.23 173.18 246.06C170.1 248.89 166.06 248.68 166.06 249.21C166.06 249.45 166.99 249.9 168.68 249.86C170.902 249.79 173.027 248.936 174.68 247.45C176.25 246.025 177.207 244.046 177.35 241.93C177.37 240.35 176.9 239.44 176.65 239.47Z" fill="#263238"/>
<path d="M175.12 198.82C175.6 199.7 178.96 198.73 183.06 198.6C187.16 198.47 190.59 199.06 190.99 198.15C191.17 197.71 190.47 196.92 188.99 196.21C187.067 195.37 184.977 194.98 182.88 195.071C180.783 195.161 178.734 195.728 176.89 196.73C175.54 197.55 174.9 198.4 175.12 198.82Z" fill="#263238"/>
<path d="M143.74 197.08C144.39 197.83 146.74 196.9 149.61 196.71C152.48 196.52 154.94 196.98 155.46 196.12C155.69 195.71 155.26 194.94 154.16 194.25C152.687 193.429 151.004 193.063 149.323 193.2C147.642 193.337 146.04 193.971 144.72 195.02C143.74 195.88 143.45 196.7 143.74 197.08Z" fill="#263238"/>
<path d="M218.1 230.74C218.1 230.74 200.34 236.27 190.29 192.42C186.85 177.42 172.95 165.29 172.95 165.29L178.59 163.6C178.59 163.6 213.59 173.47 214.21 173.91C214.83 174.35 223 192 223 192L218.1 230.74Z" fill="#263238"/>
<path d="M213.72 229.1C213.64 227.23 215.58 222.71 217.41 222.33C222.31 221.33 231.22 221.26 231.94 233.79C232.94 250.92 215.51 248.37 215.45 247.88C215.39 247.39 214 235.57 213.72 229.1Z" fill="#D28D71"/>
<path d="M220.32 241.09C220.39 241.03 220.63 241.28 221.14 241.48C221.869 241.744 222.672 241.715 223.38 241.4C225.15 240.64 226.51 237.68 226.38 234.59C226.336 233.118 225.967 231.673 225.3 230.36C225.117 229.843 224.812 229.377 224.412 229.001C224.012 228.625 223.528 228.35 223 228.2C222.652 228.127 222.29 228.177 221.975 228.344C221.661 228.51 221.415 228.781 221.28 229.11C221.08 229.61 221.21 229.94 221.12 229.98C221.03 230.02 220.73 229.71 220.83 228.98C220.901 228.549 221.116 228.154 221.44 227.86C221.896 227.482 222.479 227.292 223.07 227.33C223.781 227.432 224.454 227.713 225.026 228.147C225.598 228.581 226.05 229.153 226.34 229.81C227.148 231.255 227.594 232.875 227.64 234.53C227.73 237.99 226.15 241.32 223.71 242.17C223.257 242.333 222.774 242.39 222.295 242.338C221.817 242.286 221.357 242.126 220.95 241.87C220.37 241.5 220.26 241.12 220.32 241.09Z" fill="#E19C80"/>
<path d="M206.05 222.35C205.187 222.226 204.333 222.053 203.49 221.83C201.21 221.137 199.122 219.926 197.39 218.29C196.188 217.179 195.12 215.931 194.21 214.57C193.183 212.993 192.315 211.318 191.62 209.57C190.137 205.496 188.905 201.335 187.93 197.11C186.73 192.65 185.42 188.43 183.99 184.68C182.748 181.345 181.253 178.109 179.52 175C178.356 172.91 177.046 170.905 175.6 169C175.1 168.32 174.66 167.83 174.37 167.48C174.237 167.299 174.086 167.132 173.92 166.98C174.032 167.176 174.159 167.364 174.3 167.54C174.56 167.9 174.98 168.41 175.46 169.11C176.843 171.051 178.105 173.074 179.24 175.17C180.916 178.288 182.373 181.519 183.6 184.84C185 188.59 186.29 192.79 187.49 197.25C188.47 201.492 189.719 205.667 191.23 209.75C191.948 211.52 192.839 213.215 193.89 214.81C194.831 216.185 195.932 217.444 197.17 218.56C198.955 220.201 201.104 221.393 203.44 222.04C204.291 222.267 205.17 222.371 206.05 222.35Z" fill="#263238"/>
<path d="M229.47 295.44C229.548 295.168 229.608 294.89 229.65 294.61C229.76 294.01 229.9 293.2 230.08 292.18C230.45 289.98 230.97 286.85 231.62 282.88L231.21 282.82C231.12 283.44 231.03 284.13 230.93 284.82V284.76C230.82 284.99 230.69 285.25 230.57 285.53L231 285.68C233.612 276.663 235.448 267.44 236.49 258.11C237.155 252.186 237.505 246.231 237.54 240.27C237.48 234.01 237.54 227.36 235.85 220.72C235.164 217.998 234.114 215.382 232.73 212.94C231.368 210.594 229.781 208.387 227.99 206.35C224.51 202.35 220.76 198.86 217.33 195.43L199 177.35L186.51 165.2L183.1 161.93L182.2 161.09C182.107 160.985 181.999 160.894 181.88 160.82C181.955 160.941 182.046 161.052 182.15 161.15L182.99 162.04C183.79 162.85 184.9 163.98 186.3 165.42L198.57 177.75C203.79 182.94 209.97 189.11 216.84 195.96C220.26 199.41 224 202.89 227.43 206.86C231.081 210.867 233.715 215.692 235.11 220.93C236.75 227.43 236.73 234.05 236.8 240.29C236.776 246.223 236.442 252.151 235.8 258.05C234.802 267.353 233.049 276.56 230.56 285.58L230.99 285.74C231.11 285.46 231.23 285.2 231.33 284.96C231.42 284.25 231.51 283.56 231.58 282.96L231.17 282.9C230.6 286.9 230.17 290.03 229.82 292.23C229.69 293.23 229.58 294.08 229.5 294.68C229.467 294.932 229.457 295.186 229.47 295.44V295.44Z" fill="#455A64"/>
<path d="M243 216.25C242.935 215.994 242.834 215.748 242.7 215.52C242.43 214.99 242.1 214.32 241.7 213.52C240.83 211.78 239.46 209.31 237.7 206.32C235.94 203.33 233.62 199.85 230.92 196.11C228.22 192.37 225.03 188.42 221.48 184.45C217.93 180.48 214.29 176.93 210.88 173.82C207.47 170.71 204.24 168.09 201.45 165.99C198.66 163.89 196.36 162.26 194.72 161.22L192.82 160.01C192.609 159.852 192.376 159.724 192.13 159.63C192.308 159.825 192.509 159.996 192.73 160.14C193.22 160.5 193.82 160.93 194.54 161.47C196.13 162.59 198.38 164.28 201.11 166.47C203.84 168.66 207 171.29 210.39 174.39C213.78 177.49 217.26 181 220.82 185C224.38 189 227.51 192.89 230.26 196.57C233.01 200.25 235.31 203.69 237.15 206.64C238.99 209.59 240.44 212 241.38 213.7L242.51 215.64C242.65 215.861 242.814 216.066 243 216.25V216.25Z" fill="#455A64"/>
<path d="M220.12 354.32C220.568 353.79 220.963 353.217 221.3 352.61C222.02 351.49 223.05 349.86 224.37 347.88C227.767 342.71 231.439 337.726 235.37 332.95C239.261 328.149 243.667 323.789 248.51 319.95C250.584 318.446 252.737 317.054 254.96 315.78C254.292 315.975 253.646 316.236 253.03 316.56C252.291 316.901 251.576 317.292 250.89 317.73C249.957 318.269 249.056 318.86 248.19 319.5C243.198 323.264 238.691 327.63 234.77 332.5C230.798 337.293 227.153 342.347 223.86 347.63C222.6 349.63 221.64 351.33 221 352.5C220.651 353.078 220.356 353.687 220.12 354.32V354.32Z" fill="#263238"/>
<path d="M234.31 439.36L262.7 312.94L233.7 297.45C233.1 296.58 218.43 289.96 218.43 289.96C214.553 296.211 209.45 301.613 203.43 305.84C185.87 316.44 168.25 307.78 166.75 291.53L150.67 296.05L119.67 301.4C119.67 301.4 94.38 367.3 97.73 393.08C101.08 418.86 96.41 463.47 96.41 463.47L93.8 478.22L120.19 478.76H124.53L183.39 478.43L234.76 478.22C228.68 460.8 234.31 439.36 234.31 439.36Z" fill="#455A64"/>
<path d="M76.34 450.06C71.3357 450.301 66.3621 449.155 61.9669 446.75C57.5717 444.346 53.9256 440.774 51.43 436.43C49.762 433.563 48.8565 430.316 48.8 427C48.8 413.27 57.35 393.58 60.19 386.49C64.28 376.27 103.27 305.49 107.96 306.49C112.65 307.49 115.2 307.86 115.2 307.86L93 408.56L163.61 420.14L155.86 447.14L76.34 450.06Z" fill="#D28D71"/>
<path d="M74.51 343.49L110.39 362.49L122.25 301.36C122.25 301.36 107.05 302.73 102.03 309.11C97.01 315.49 74.51 343.49 74.51 343.49Z" fill="#455A64"/>
<path d="M118 412.66L108.33 391.66L104.11 376.14L91.26 366.14C91.26 366.14 87 366.64 88.32 369.95C89.64 373.26 96.1 379.21 96.1 379.21L99.9 389.82L93.72 379.04L84.72 374.58L75.79 375.24C75.79 375.24 74.14 379.24 78.28 379.37H82.74L89.52 384.83L93.76 395.08L87.37 385.16L77.94 381.81L71.94 383.34C71.94 383.34 70.29 385.99 73.26 386.34C76.23 386.69 78.26 386.67 78.26 386.67L83.71 389.84L88.51 399.9L80.07 393L69.16 391.7C69.16 391.7 67.34 394.33 70.16 395.32C73.0398 396.508 75.8569 397.843 78.6 399.32L84.67 407.71L118 412.66Z" fill="#D28D71"/>
<path d="M118 412.66L84.62 407.82H84.55V407.76L78.45 399.38L78.52 399.43C76.61 398.43 74.62 397.43 72.52 396.49C71.99 396.26 71.46 396.02 70.92 395.81C70.3452 395.623 69.7921 395.375 69.27 395.07C68.9943 394.884 68.7695 394.632 68.6158 394.337C68.4622 394.041 68.3845 393.713 68.39 393.38C68.4229 392.729 68.6339 392.099 69 391.56L69.06 391.46H69.2L80.11 392.75H80.18L88.62 399.69L88.26 399.97L83.45 389.97L83.55 390.07L78.09 386.9H78.22C76.77 386.9 75.28 386.78 73.75 386.62C73.3272 386.644 72.9044 386.573 72.5119 386.414C72.1195 386.255 71.7671 386.011 71.48 385.7C71.2374 385.309 71.1583 384.839 71.26 384.39C71.3497 383.975 71.505 383.576 71.72 383.21V383.12H71.82L77.82 381.58H77.9H77.97L87.44 385H87.52V385.07L94 395L93.55 395.24L91.27 389.75C90.62 388.15 89.96 386.57 89.27 384.99L89.35 385.09L82.57 379.63L82.73 379.69H80.09C79.209 379.729 78.3263 379.699 77.45 379.6C76.9727 379.544 76.5207 379.355 76.1458 379.055C75.7709 378.754 75.4882 378.354 75.33 377.9C75.1067 377.001 75.1803 376.054 75.54 375.2V375.06H75.71L84.64 374.4H84.71H84.77L93.77 378.87H93.83V378.94L100.01 389.72L99.57 389.92L95.9 379.32L95.96 379.42C93.695 377.331 91.6016 375.064 89.7 372.64C89.2475 372.042 88.8366 371.414 88.47 370.76C88.0694 370.094 87.8714 369.326 87.9 368.55C87.9502 368.161 88.0924 367.789 88.315 367.465C88.5376 367.142 88.8342 366.876 89.18 366.69C89.8195 366.318 90.5265 366.077 91.26 365.98H91.34H91.41L104.24 375.98H104.29V376.04L108.48 391.57L118 412.66L108.2 391.73L104 376.19L104.07 376.29L91.21 366.35H91.36C90.6878 366.443 90.0396 366.664 89.45 367C89.1594 367.153 88.9097 367.374 88.7219 367.644C88.534 367.914 88.4133 368.224 88.37 368.55C88.3 369.89 89.27 371.17 90.1 372.34C91.9912 374.736 94.0712 376.976 96.32 379.04V379.04V379.09L100.13 389.7L99.7 389.9L93.51 379.13L93.62 379.22L84.62 374.76H84.75L75.82 375.42L76.04 375.27C75.7299 376.01 75.6634 376.83 75.85 377.61C75.9747 377.978 76.2038 378.301 76.5092 378.541C76.8146 378.781 77.1832 378.926 77.57 378.96C78.4203 379.048 79.2759 379.074 80.13 379.04H82.84L82.91 379.1L89.69 384.56H89.75V384.62L91.75 389.38C92.52 391.26 93.3 393.13 94.02 394.87L93.56 395.11L87.17 385.19L87.3 385.29L77.88 381.94H78L72 383.47L72.16 383.36C71.945 383.641 71.8086 383.975 71.7647 384.326C71.7207 384.678 71.7709 385.034 71.91 385.36C72.1056 385.628 72.3946 385.814 72.72 385.88C73.077 385.973 73.4419 386.034 73.81 386.06C75.32 386.21 76.81 386.31 78.23 386.33H78.29H78.35L83.8 389.5H83.87V389.57L88.66 399.63L89.11 400.58L88.3 399.91L79.87 392.91H79.99L69.08 391.6L69.27 391.51C68.9567 391.981 68.7707 392.526 68.73 393.09C68.7201 393.358 68.7793 393.623 68.9019 393.862C69.0245 394.1 69.2064 394.303 69.43 394.45C69.9313 394.727 70.4568 394.958 71 395.14C71.55 395.36 72.08 395.6 72.61 395.83C74.71 396.83 76.71 397.83 78.61 398.83L84.67 407.23L84.56 407.16L118 412.66Z" fill="#E19C80"/>
<g opacity="0.3">
<path d="M234.89 447.34C234.89 447.34 226.69 464.52 216.04 469.55C206.15 474.22 199.87 475.23 188.1 474.37C182.35 473.96 163.61 470.32 156.83 468.37L111.16 448.77L207.16 463.9L234.89 447.34Z" fill="black"/>
</g>
<path d="M258.32 319.21C258.32 319.21 275.5 313.12 275.83 351.63C276.16 390.14 231 454.77 223.26 461.13C215.52 467.49 206.76 471.77 183.55 468.33C154.44 464.02 112.64 448.78 112.64 448.78L138.21 425L190.11 422.66L232.3 335.93C232.3 335.93 243.92 317.53 258.32 319.21Z" fill="#D28D71"/>
<path d="M155.86 447.12C155.86 447.12 168.73 455.22 183.26 454.8C197.79 454.38 210.65 459.08 212.52 457.8C214.39 456.52 214.6 454.21 212.52 453.17C210.44 452.13 201.65 450.89 201.65 450.89L194.05 447.77C194.05 447.77 220 450 222.07 449C224.14 448 226.22 446.51 225.39 444.23C225.195 443.598 224.811 443.041 224.292 442.632C223.772 442.223 223.14 441.981 222.48 441.94C222.48 441.94 228.09 442.15 227.88 439.87C227.717 438.903 227.356 437.979 226.821 437.157C226.286 436.335 225.588 435.631 224.77 435.09C223.94 434.68 213.05 430.25 213.05 430.25L199.05 427.47L212.49 426.93L224.23 430.21C224.23 430.21 228.92 430.74 227.88 426.79C226.84 422.84 212.51 418.49 212.51 418.49L194.25 417.23C194.25 417.23 208.36 415.17 209.81 410.81C211.26 406.45 208.81 403.96 208.81 403.96C208.81 403.96 198.81 407.91 194.07 408.74C189.33 409.57 183.49 411.43 175.81 414.55C171.651 416.194 167.585 418.064 163.63 420.15" fill="#D28D71"/>
<path d="M163.61 420.14L164.35 419.72C164.84 419.45 165.58 419.06 166.56 418.57C168.56 417.57 171.44 416.22 175.28 414.63C179.938 412.659 184.71 410.969 189.57 409.57C190.99 409.19 192.49 408.84 194.05 408.57C195.637 408.256 197.203 407.845 198.74 407.34C201.93 406.34 205.26 405.14 208.74 403.79H208.86L208.94 403.88C209.569 404.636 210.025 405.519 210.279 406.469C210.533 407.418 210.578 408.411 210.41 409.38L210.26 410.12L210.06 410.85C209.889 411.35 209.613 411.807 209.25 412.19C208.511 412.926 207.652 413.532 206.71 413.98C204.789 414.904 202.779 415.628 200.71 416.14C198.589 416.707 196.439 417.161 194.27 417.5V417.06L212.54 418.3H212.59C216.361 419.445 220.025 420.917 223.54 422.7C224.438 423.177 225.3 423.718 226.12 424.32C226.54 424.635 226.932 424.986 227.29 425.37C227.674 425.762 227.961 426.238 228.13 426.76C228.279 427.29 228.313 427.846 228.23 428.39C228.189 428.675 228.092 428.949 227.944 429.196C227.796 429.443 227.601 429.659 227.37 429.83C226.426 430.403 225.316 430.639 224.22 430.5V430.5L212.47 427.23H212.55L199.11 427.77V427.26L209.11 429.26L213.11 430.05H213.16L224.83 434.88C225.758 435.439 226.537 436.215 227.1 437.14C227.724 438.019 228.072 439.063 228.1 440.14C228.054 440.435 227.934 440.713 227.75 440.947C227.566 441.182 227.325 441.365 227.05 441.48C226.574 441.718 226.065 441.883 225.54 441.97C224.525 442.159 223.492 442.24 222.46 442.21V441.7C222.923 441.723 223.377 441.841 223.793 442.046C224.209 442.25 224.579 442.538 224.88 442.89C225.483 443.578 225.811 444.465 225.8 445.38C225.755 445.83 225.622 446.267 225.407 446.665C225.193 447.063 224.901 447.415 224.55 447.7C223.905 448.259 223.189 448.729 222.42 449.1C222.223 449.22 222.006 449.304 221.78 449.35C221.57 449.399 221.356 449.429 221.14 449.44C220.72 449.49 220.3 449.5 219.89 449.51C219.06 449.51 218.24 449.51 217.42 449.51C215.78 449.51 214.16 449.41 212.56 449.33C206.16 449 200 448.49 194 448L194.11 447.55L201.7 450.67C204.5 451.09 207.22 451.54 209.87 452.14C210.53 452.3 211.19 452.46 211.87 452.68C212.55 452.862 213.169 453.225 213.66 453.73C213.9 453.999 214.077 454.318 214.177 454.664C214.278 455.01 214.299 455.374 214.24 455.73C214.107 456.418 213.757 457.046 213.24 457.52C213.121 457.638 212.994 457.748 212.86 457.85C212.719 457.967 212.56 458.062 212.39 458.13C212.065 458.222 211.728 458.262 211.39 458.25C210.75 458.24 210.112 458.183 209.48 458.08C208.23 457.91 207.02 457.67 205.82 457.45C203.43 457 201.1 456.56 198.82 456.2C194.607 455.497 190.35 455.092 186.08 454.99C185.08 454.99 184.08 454.99 183.17 454.99C182.26 454.99 181.28 454.99 180.37 454.99C179.46 454.99 178.57 454.87 177.7 454.78L175.19 454.43C170.158 453.533 165.269 451.969 160.65 449.78C159.05 449.02 157.86 448.38 157.07 447.93C156.28 447.48 155.89 447.2 155.89 447.2C155.996 447.251 156.1 447.308 156.2 447.37L157.1 447.86C157.91 448.29 159.1 448.92 160.71 449.65C165.333 451.782 170.214 453.301 175.23 454.17L177.73 454.5C178.59 454.59 179.48 454.63 180.38 454.7C181.28 454.77 182.21 454.7 183.16 454.7C184.11 454.7 185.09 454.7 186.08 454.7C190.369 454.782 194.647 455.173 198.88 455.87C201.15 456.22 203.48 456.65 205.88 457.1C207.08 457.32 208.29 457.55 209.52 457.72C210.136 457.813 210.757 457.866 211.38 457.88C211.677 457.885 211.973 457.848 212.26 457.77C212.519 457.644 212.753 457.471 212.95 457.26C213.392 456.842 213.693 456.297 213.81 455.7C213.856 455.406 213.836 455.105 213.752 454.82C213.667 454.534 213.519 454.271 213.32 454.05C212.877 453.601 212.321 453.279 211.71 453.12C211.09 452.91 210.44 452.76 209.79 452.6C207.17 452.01 204.44 451.6 201.66 451.16H201.6L194 448L192.6 447.43L194.11 447.55C200.04 448.05 206.23 448.55 212.64 448.86C214.24 448.94 215.86 449.01 217.49 449.04C218.3 449.04 219.12 449.04 219.93 449.04C220.34 449.04 220.75 449.04 221.15 448.98C221.345 448.961 221.538 448.931 221.73 448.89C221.911 448.855 222.084 448.787 222.24 448.69C222.959 448.331 223.631 447.884 224.24 447.36C224.546 447.116 224.799 446.813 224.987 446.47C225.174 446.126 225.29 445.749 225.33 445.36C225.327 444.572 225.04 443.812 224.52 443.22C224.269 442.93 223.963 442.692 223.62 442.52C223.277 442.349 222.903 442.247 222.52 442.22V441.71C223.525 441.736 224.53 441.659 225.52 441.48C225.996 441.403 226.458 441.255 226.89 441.04C227.089 440.962 227.264 440.834 227.4 440.67C227.537 440.506 227.629 440.31 227.67 440.1C227.609 439.121 227.261 438.182 226.67 437.4C226.15 436.556 225.441 435.845 224.6 435.32L213 430.49L209 429.7L199 427.7L196.85 427.27L199.04 427.18L212.48 426.65H212.56L224.31 430C225.281 430.134 226.269 429.933 227.11 429.43C227.453 429.118 227.692 428.708 227.794 428.255C227.896 427.802 227.856 427.329 227.68 426.9C227.303 426.012 226.669 425.256 225.86 424.73C225.065 424.14 224.226 423.611 223.35 423.15C219.865 421.375 216.231 419.91 212.49 418.77H212.55L194.28 417.5L192.28 417.36L194.28 417.05C196.431 416.715 198.564 416.271 200.67 415.72C202.695 415.21 204.665 414.5 206.55 413.6C207.448 413.175 208.269 412.604 208.98 411.91C209.303 411.566 209.549 411.157 209.7 410.71L209.91 410.02L210.04 409.31C210.203 408.403 210.168 407.471 209.937 406.578C209.706 405.686 209.284 404.854 208.7 404.14H208.91C205.43 405.48 202.1 406.68 198.91 407.67C197.355 408.167 195.772 408.574 194.17 408.89C192.62 409.16 191.17 409.5 189.71 409.89C184.853 411.265 180.084 412.934 175.43 414.89C171.58 416.44 168.65 417.79 166.68 418.73L164.44 419.83L163.61 420.14Z" fill="#E19C80"/>
<path d="M194.72 437.84C196.164 438.054 197.621 438.168 199.08 438.18C201.76 438.34 205.47 438.65 209.52 439.27C213.57 439.89 217.21 440.68 219.82 441.32C221.214 441.756 222.638 442.09 224.08 442.32C222.769 441.672 221.39 441.169 219.97 440.82C216.584 439.816 213.132 439.048 209.64 438.52C206.15 437.992 202.629 437.701 199.1 437.65C197.637 437.551 196.168 437.615 194.72 437.84V437.84Z" fill="#FF9A6C"/>
<path d="M103.74 363.23C103.2 365.74 102.74 367.83 102.42 369.43C102.231 370.182 102.104 370.948 102.04 371.72C102.335 370.999 102.562 370.253 102.72 369.49C103.12 367.91 103.64 365.84 104.27 363.36C105.56 358.17 107.27 350.99 109.12 343.04C112.12 330.04 114.61 318.97 115.25 315.53V315.26L115.03 315.41C114.641 315.643 114.279 315.918 113.95 316.23C114.371 316.063 114.773 315.852 115.15 315.6L114.98 315.48C113.98 318.84 111.35 329.83 108.31 342.87" fill="#263238"/>
<path d="M211.2 366.18L269.2 392.03C269.2 392.03 291.71 322.56 258.55 311.37L241.92 315.26L211.2 366.18Z" fill="#455A64"/>
<path d="M155.86 447.12C155.86 447.27 138.07 448.04 116.11 448.85C94.15 449.66 76.34 450.2 76.34 450.06C76.34 449.92 94.13 449.14 116.09 448.33C138.05 447.52 155.86 447 155.86 447.12Z" fill="#E19C80"/>
<path d="M84.66 407.65C84.66 407.74 83.52 407.85 81.73 408.29C79.4064 408.883 77.1943 409.849 75.18 411.15C73.1516 412.452 71.4095 414.153 70.06 416.15C69.06 417.68 68.67 418.78 68.58 418.75C68.606 418.478 68.6735 418.212 68.78 417.96C69.0422 417.26 69.3773 416.59 69.78 415.96C71.0765 413.864 72.8346 412.093 74.92 410.78C76.9809 409.439 79.2732 408.493 81.68 407.99C82.4068 407.849 83.1415 407.752 83.88 407.7C84.135 407.637 84.3991 407.62 84.66 407.65Z" fill="#E19C80"/>
<path d="M221.2 357.93C221.17 358.121 221.113 358.306 221.03 358.48L220.45 360C219.94 361.31 219.16 363.2 218.17 365.53C216.17 370.18 213.29 376.53 209.87 383.44C206.45 390.35 203.18 396.53 200.77 400.97C199.57 403.19 198.58 404.97 197.88 406.21L197.07 407.62C196.984 407.788 196.88 407.945 196.76 408.09C196.812 407.909 196.886 407.734 196.98 407.57L197.7 406.11C198.39 404.79 199.31 402.99 200.45 400.8C202.77 396.31 205.98 390.12 209.45 383.21C212.92 376.3 215.81 369.99 217.88 365.38L220.31 359.92L220.99 358.44C221.043 358.264 221.114 358.093 221.2 357.93V357.93Z" fill="#263238"/>
</g>
<defs>
<clipPath id="clip0_2_677">
<rect width="500" height="500" fill="white"/>
</clipPath>
</defs>
</svg>
