<?xml version="1.0" encoding="utf-8"?>
<!-- Generator: Adobe Illustrator 23.0.3, SVG Export Plug-In . SVG Version: 6.00 Build 0)  -->
<svg version="1.1" id="Layer_1" xmlns="http://www.w3.org/2000/svg" xmlns:xlink="http://www.w3.org/1999/xlink" x="0px" y="0px"
	 viewBox="0 0 296 296" style="enable-background:new 0 0 296 296;" xml:space="preserve">
<style type="text/css">
	.st0{fill:#FFCE00;}
	.st1{fill:#FFB100;}
	.st2{fill:#FFE454;}
</style>
<g>
	<path class="st0" d="M271,124c0-11.3-1.4-22.3-3.9-32.9c-7.3-15.2-17.4-28.7-29.6-40c-22.4-13.4-48.8-20.7-76.8-19.6
		C83.5,34.3,23.1,99.2,26,176.5c0.4,11.3,2.2,22.2,5.1,32.7c6.3,12,14.4,22.9,23.9,32.4c21.9,14.2,48,22.4,76,22.4
		C208.3,264,271,201.3,271,124z M197.5,100c8.8,0,16,7.2,16,16s-7.2,16-16,16s-16-7.2-16-16S188.7,100,197.5,100z M98.5,100
		c8.8,0,16,7.2,16,16s-7.2,16-16,16s-16-7.2-16-16S89.7,100,98.5,100z M51.7,195.6v-16c9,0,15.6-7,15.6-15.6
		c0-8.6-6.6-15.6-15.6-15.6v-16c16,0,30.2,12.7,31.6,28.9c17.4,16.9,40.2,26.1,64.6,26.1c24.1,0,47.2-9.5,64.4-26.2
		c1.4-16.1,15.3-28.9,31.3-28.9v16c-8,0-15.6,7-15.6,15.6c0,8.6,7.6,15.6,15.6,15.6v16c-11,0-22-6.6-27.4-16.4
		c-19.2,15.5-43.3,24.2-68.3,24.2c-25.3,0-49.3-8.5-68.5-24.2C73.9,189,63.7,195.6,51.7,195.6z"/>
	<path class="st1" d="M267.1,91.1c2.5,10.6,3.9,21.6,3.9,32.9c0,77.3-62.7,140-140,140c-28,0-54.1-8.3-76-22.4
		c23.9,23.7,56.8,38.4,93,38.4c72.8,0,132-59.2,132-132C280,127.6,275.4,108.3,267.1,91.1z"/>
	<path class="st2" d="M160.8,31.5c28-1,54.4,6.3,76.8,19.6C214,29.3,182.5,16,148,16C75.2,16,16,75.2,16,148c0,22,5.4,42.8,15,61.1
		c-2.9-10.4-4.7-21.4-5.1-32.7C23.1,99.2,83.5,34.3,160.8,31.5z"/>
	<circle cx="98.5" cy="116" r="16"/>
	<circle cx="197.5" cy="116" r="16"/>
	<path d="M148,203.4c25,0,49-8.7,68.2-24.2c5.5,9.8,16.4,16.4,27.4,16.4v-16c-8,0-15.6-7-15.6-15.6c0-8.6,7.6-15.6,15.6-15.6v-16
		c-16,0-29.9,12.7-31.3,28.9c-17.2,16.7-40.3,26.2-64.4,26.2c-24.4,0-47.3-9.3-64.7-26.1c-1.4-16.1-15.6-28.9-31.6-28.9v16
		c9,0,15.6,7,15.6,15.6c0,8.6-6.6,15.6-15.6,15.6v16c12,0,22.3-6.6,27.8-16.4C98.7,194.9,122.7,203.4,148,203.4z"/>
</g>
</svg>
